<svg width="1489" height="1031" viewBox="0 0 1489 1031" fill="none" xmlns="http://www.w3.org/2000/svg">
<rect width="1488.28" height="1030.81" fill="#556536"/>
<path d="M477.129 98.8779C514.847 108.985 547.895 131.857 570.64 163.598C593.385 195.339 604.421 233.985 601.867 272.95C599.313 311.916 583.327 348.79 556.634 377.291C529.94 405.791 494.19 424.155 455.475 429.251C416.76 434.348 377.475 425.864 344.315 405.243C311.154 384.623 286.169 353.142 273.617 316.165C261.065 279.188 261.723 239.003 275.478 202.457C289.233 165.91 315.234 135.264 349.052 115.74L433.444 261.911L477.129 98.8779Z" fill="#849D54"/>
<path d="M287.272 177.519C308.699 140.407 343.44 112.834 384.449 100.395C425.457 87.9549 469.661 91.5794 508.095 110.533C546.53 129.487 576.315 162.35 591.41 202.457C606.505 242.564 605.78 286.911 589.38 326.502C572.981 366.094 542.136 397.965 503.102 415.651C464.069 433.337 419.769 435.513 379.19 421.738C338.611 407.963 304.79 379.269 284.589 341.476C264.388 303.682 259.32 259.62 270.411 218.227L433.444 261.911L287.272 177.519Z" fill="#6C8145"/>
<path d="M991.336 563.712L975.627 578.705C910.999 640.387 811.57 647.2 739.133 594.909C684.871 555.738 613.709 548.855 552.946 576.9L410.319 642.728C363.153 664.496 308.623 663.506 262.279 640.038L0 507.224V841.444H1488.28L1479.71 643.328L1208.11 525.185C1134.68 493.245 1049.26 508.427 991.336 563.712Z" fill="#3D4927"/>
<path d="M407.52 654.534L543.907 733.805C592.922 762.293 653.961 760.009 700.71 727.937C743.453 698.613 798.494 694.006 845.517 715.818L982.264 779.249C1024.89 799.022 1074.35 797.528 1115.7 775.22L1488.28 574.242V1030.81H0.00012207V747.601L225.289 645.369C283.937 618.756 351.838 622.171 407.52 654.534Z" fill="#6C8145"/>
<circle cx="449.274" cy="679.015" r="15.8299" fill="#556536"/>
<circle cx="742.161" cy="707.35" r="15.8299" fill="#556536"/>
<circle cx="1035.05" cy="791.622" r="15.8299" fill="#556536"/>
<circle cx="1327.93" cy="659.677" r="15.8299" fill="#556536"/>
<circle cx="156.387" cy="679.015" r="15.8299" fill="#556536"/>
</svg>
