<svg width="880" height="264" viewBox="0 0 880 264" fill="none" xmlns="http://www.w3.org/2000/svg">
<path d="M269.82 126.688C265.98 132.64 260.604 137.44 253.692 140.896C246.78 144.544 239.484 146.464 232.188 146.848C231.804 156.64 229.116 165.472 224.316 173.152C219.324 181.024 212.796 187.168 204.54 191.584C196.284 196 187.26 198.112 177.276 198.112C166.908 198.112 157.5 195.808 149.052 191.2C140.604 186.592 134.076 180.064 129.468 172C124.668 163.936 122.364 154.72 122.364 144.544C122.364 134.56 124.668 125.536 129.468 117.472C134.076 109.408 140.604 102.88 149.052 98.272C157.5 93.664 166.908 91.168 177.276 91.168C189.18 91.168 199.932 94.24 209.148 100.384C218.364 106.528 224.892 114.784 228.732 124.96C230.268 125.344 231.804 125.536 233.532 125.536C237.564 125.536 241.788 124.576 246.012 122.272C250.236 119.968 253.884 116.704 257.34 112.48L269.82 126.688ZM198.972 167.776C204.348 162.016 207.228 154.336 207.228 144.544C207.228 143.008 207.036 141.664 207.036 140.896C198.972 135.52 194.172 127.456 192.828 116.704C188.22 114.208 183.036 112.864 177.276 112.864C168.06 112.864 160.764 115.744 155.388 121.504C150.012 127.264 147.324 135.136 147.324 144.736C147.324 154.528 150.012 162.208 155.388 167.776C160.764 173.536 168.06 176.224 177.276 176.224C186.3 176.224 193.596 173.536 198.972 167.776ZM272.976 191.776C263.76 187.744 256.464 181.6 251.088 173.536C245.712 165.472 243.024 155.872 243.024 144.352C243.024 133.984 245.136 124.576 249.744 116.512C254.16 108.448 260.304 102.112 267.984 97.696C275.664 93.28 284.304 90.976 293.904 90.976C304.848 90.976 314.256 94.048 321.936 100C329.616 105.952 334.224 113.824 335.952 123.424L311.376 127.456C310.224 122.656 307.92 119.008 304.656 116.512C301.2 114.208 297.168 112.864 292.56 112.864C285.264 112.864 279.504 115.552 274.896 120.736C270.288 125.92 267.984 132.832 267.984 141.664C267.984 152.8 271.632 161.44 279.312 167.392C286.8 173.344 296.4 176.224 308.112 176.224C315.984 176.224 324.048 174.88 332.304 172C340.56 169.12 348.048 165.088 354.96 159.712L366.48 176.032C357.072 183.328 346.896 188.704 336.144 192.352C325.2 196.192 314.448 197.92 303.696 197.92C292.368 197.92 282.192 196 272.976 191.776ZM487.703 126.688C483.863 132.64 478.487 137.44 471.575 140.896C464.663 144.544 457.367 146.464 450.071 146.848C449.687 156.64 446.999 165.472 442.199 173.152C437.207 181.024 430.679 187.168 422.423 191.584C414.167 196 405.143 198.112 395.159 198.112C384.791 198.112 375.383 195.808 366.935 191.2C358.487 186.592 351.959 180.064 347.351 172C342.551 163.936 340.247 154.72 340.247 144.544C340.247 134.56 342.551 125.536 347.351 117.472C351.959 109.408 358.487 102.88 366.935 98.272C375.383 93.664 384.791 91.168 395.159 91.168C407.063 91.168 417.815 94.24 427.031 100.384C436.247 106.528 442.775 114.784 446.615 124.96C448.151 125.344 449.687 125.536 451.415 125.536C455.447 125.536 459.671 124.576 463.895 122.272C468.119 119.968 471.767 116.704 475.223 112.48L487.703 126.688ZM416.855 167.776C422.231 162.016 425.111 154.336 425.111 144.544C425.111 143.008 424.919 141.664 424.919 140.896C416.855 135.52 412.055 127.456 410.711 116.704C406.103 114.208 400.919 112.864 395.159 112.864C385.943 112.864 378.647 115.744 373.271 121.504C367.895 127.264 365.207 135.136 365.207 144.736C365.207 154.528 367.895 162.208 373.271 167.776C378.647 173.536 385.943 176.224 395.159 176.224C404.183 176.224 411.479 173.536 416.855 167.776ZM616.043 174.112C611.627 181.6 605.675 187.36 598.379 191.584C590.891 195.808 582.827 197.92 574.379 197.92C567.659 197.92 561.707 196.576 556.523 193.888C551.339 191.2 547.691 187.168 545.387 181.792C541.163 186.976 535.979 191.008 529.835 193.696C523.691 196.576 516.779 197.92 509.483 197.92C499.883 197.92 491.435 195.808 484.139 191.392C476.843 186.976 471.083 180.64 467.051 172.576C462.827 164.512 460.907 155.296 460.907 144.544C460.907 133.984 462.827 124.576 467.051 116.512C471.275 108.448 477.035 102.304 484.523 97.696C492.011 93.28 500.459 90.976 510.059 90.976C516.587 90.976 522.539 92.128 528.299 94.24C534.059 96.352 538.859 99.232 542.699 102.88V52.768H566.699V162.784C566.699 167.392 567.659 170.848 569.771 173.152C571.883 175.456 574.763 176.608 578.603 176.608C582.443 176.608 586.283 175.456 590.123 172.768C593.963 170.272 597.803 166.624 601.259 161.632L616.043 174.112ZM531.371 172.384C535.979 169.888 539.819 166.24 542.699 161.632V126.688C539.627 122.464 535.595 119.008 530.795 116.512C525.995 114.208 520.619 112.864 514.859 112.864C506.027 112.864 498.923 115.744 493.739 121.504C488.363 127.264 485.867 134.944 485.867 144.544C485.867 154.336 488.363 162.016 493.739 167.584C498.923 173.344 506.027 176.032 515.243 176.032C521.387 176.032 526.763 174.88 531.371 172.384ZM667.215 174.112C662.799 181.408 656.847 187.36 649.359 191.584C641.871 195.808 633.999 197.92 625.551 197.92C616.335 197.92 608.655 195.424 602.703 190.432C596.751 185.44 593.871 178.144 593.871 168.544V92.896H617.871V162.784C617.871 167.392 618.831 170.848 620.943 173.152C623.055 175.456 625.935 176.608 629.775 176.608C637.455 176.608 645.135 171.616 652.431 161.632L667.215 174.112ZM594.639 71.968C591.567 69.28 590.223 65.824 590.223 61.6C590.223 57.568 591.567 54.112 594.639 51.232C597.519 48.544 601.167 47.008 605.775 47.008C610.191 47.008 613.839 48.352 616.911 51.04C619.791 53.728 621.327 57.184 621.327 61.216C621.327 65.44 619.791 69.088 616.911 71.776C614.031 74.656 610.383 76 605.775 76C601.167 76 597.519 74.656 594.639 71.968ZM718.308 174.112C713.892 181.6 707.94 187.36 700.644 191.584C693.156 195.808 685.284 197.92 676.836 197.92C667.428 197.92 659.748 195.424 653.796 190.432C647.844 185.44 644.964 178.144 644.964 168.544V52.768H668.964V162.784C668.964 167.392 669.924 170.848 672.036 173.152C674.148 175.456 677.028 176.608 680.868 176.608C688.74 176.608 696.42 171.616 703.716 161.632L718.308 174.112ZM815.106 176.032C807.234 183.136 798.018 188.512 787.266 192.352C776.514 196.192 765.378 197.92 754.242 197.92C742.722 197.92 732.162 196 722.562 191.968C712.962 187.936 705.282 181.792 699.522 173.536C693.762 165.472 691.074 155.488 691.074 143.584C691.074 133.216 693.186 124.192 697.602 116.128C702.018 108.064 708.162 101.92 715.842 97.504C723.522 93.28 732.162 90.976 741.954 90.976C749.826 90.976 756.93 92.512 763.074 95.392C769.218 98.272 774.21 102.304 777.666 107.296C781.122 112.48 782.85 118.24 782.85 124.384C782.85 131.68 780.354 138.016 775.746 143.2C771.138 148.384 764.802 152.224 757.122 154.72C749.25 157.408 740.61 158.56 731.394 158.56C727.17 158.56 723.33 158.368 719.874 157.792C722.946 163.936 727.938 168.352 734.466 171.424C740.994 174.496 748.482 176.032 756.738 176.032C764.802 176.032 773.058 174.688 781.506 171.616C789.762 168.736 797.058 164.704 803.202 159.328L815.106 176.032ZM723.714 119.392C718.722 124 716.226 130.912 716.034 139.744C719.106 140.32 722.562 140.512 726.594 140.512C735.426 140.512 742.914 139.36 749.058 136.672C755.202 134.176 758.466 130.336 758.466 125.344C758.466 121.696 756.546 118.624 753.09 116.128C749.634 113.632 745.41 112.288 740.802 112.288C734.274 112.288 728.706 114.784 723.714 119.392Z" fill="black"/>
<path fill-rule="evenodd" clip-rule="evenodd" d="M47.232 60.4483C64.128 60.4483 78.336 63.3282 89.856 69.0882C101.376 74.8482 109.824 82.7202 115.584 92.8963C121.152 103.264 124.032 114.976 124.032 128.416C124.032 142.624 120.96 154.72 115.008 164.704C109.056 174.88 100.416 182.56 88.896 187.936C77.376 193.312 63.552 196 47.424 196H0V151.851C0 144.958 5.58749 139.371 12.48 139.371C19.3725 139.371 24.96 144.958 24.96 151.851V174.688H47.232C64.128 174.688 76.992 170.848 85.44 162.784C93.888 154.912 98.304 143.392 98.304 128.416C98.304 114.016 94.08 102.688 86.016 94.2403C77.76 85.9842 64.704 81.7602 46.848 81.7602H24.96V104.598C24.96 111.491 19.3725 117.078 12.48 117.078C5.58749 117.078 0 111.491 0 104.598V81.7602V60.4483H47.232Z" fill="black"/>
<circle cx="846.252" cy="134.936" r="33.4549" fill="#CF6F2F"/>
</svg>
