<svg width="24" height="24" viewBox="0 0 360 360" fill="none" xmlns="http://www.w3.org/2000/svg"><path d="M347.442 125.581H12.5583C10.4184 125.581 8.31394 125.034 6.44474 123.993C4.57555 122.951 3.00359 121.449 1.87804 119.629C0.752483 117.809 0.110678 115.731 0.0135297 113.593C-0.0836185 111.456 0.367112 109.329 1.32295 107.414L46.9341 16.1918C49.3528 11.314 53.0899 7.21157 57.7216 4.34969C62.3533 1.48781 67.6942 -0.0189808 73.1387 0.000188209H286.861C292.308 -0.0193916 297.651 1.4891 302.283 4.35427C306.915 7.21943 310.651 11.3264 313.066 16.2085L358.677 107.414C359.633 109.329 360.084 111.456 359.986 113.593C359.889 115.731 359.247 117.809 358.122 119.629C356.996 121.449 355.424 122.951 353.555 123.993C351.686 125.034 349.582 125.581 347.442 125.581ZM32.8857 100.465H327.114L290.595 27.4271C290.253 26.7303 289.721 26.144 289.06 25.7353C288.4 25.3267 287.638 25.1122 286.861 25.1164H73.1387C72.3647 25.1145 71.6055 25.3281 70.946 25.7333C70.2866 26.1384 69.7529 26.7191 69.4047 27.4104L32.8857 100.465Z" fill="#ABABAB"/><path d="M347.442 100.465H12.5583C9.22769 100.465 6.03348 101.788 3.67837 104.143C1.32327 106.499 0.000183105 109.693 0.000183105 113.023V313.953C0.00905311 326.163 4.86321 337.87 13.4967 346.503C22.1301 355.137 33.8371 359.991 46.0466 360H313.953C326.163 359.991 337.87 355.137 346.503 346.503C355.137 337.87 359.991 326.163 360 313.953V113.023C360 109.693 358.677 106.499 356.322 104.143C353.967 101.788 350.772 100.465 347.442 100.465ZM239.107 239.107L188.874 289.339C186.518 291.687 183.327 293.005 180 293.005C176.673 293.005 173.482 291.687 171.126 289.339L120.893 239.107C118.675 236.726 117.467 233.578 117.525 230.324C117.582 227.071 118.9 223.967 121.201 221.666C123.502 219.365 126.606 218.047 129.859 217.99C133.113 217.932 136.261 219.14 138.642 221.358L167.442 250.141V180C167.442 176.669 168.765 173.475 171.12 171.12C173.475 168.765 176.669 167.442 180 167.442C183.331 167.442 186.525 168.765 188.88 171.12C191.235 173.475 192.558 176.669 192.558 180V250.141L221.358 221.358C223.739 219.14 226.887 217.932 230.141 217.99C233.394 218.047 236.498 219.365 238.799 221.666C241.1 223.967 242.418 227.071 242.475 230.324C242.533 233.578 241.325 236.726 239.107 239.107Z" fill="#ABABAB"/></svg>
