<svg width="24" height="24" viewBox="0 0 360 360" fill="none" xmlns="http://www.w3.org/2000/svg"><path d="M313.954 136.465H46.0464C44.3345 136.465 42.6509 136.028 41.1556 135.194C39.6602 134.361 38.4026 133.159 37.5022 131.703C36.6017 130.247 36.0883 128.585 36.0106 126.875C35.9329 125.164 36.2935 123.463 37.0581 121.931L73.5471 48.9532C75.482 45.051 78.4717 41.769 82.1771 39.4795C85.8824 37.19 90.1552 35.9846 94.5108 35.9999H265.489C269.846 35.9842 274.121 37.191 277.827 39.4832C281.532 41.7753 284.521 45.0609 286.453 48.9666L322.942 121.931C323.706 123.463 324.067 125.164 323.989 126.875C323.912 128.585 323.398 130.247 322.498 131.703C321.597 133.159 320.34 134.361 318.844 135.194C317.349 136.028 315.665 136.465 313.954 136.465ZM62.3084 116.372H297.692L268.476 57.9415C268.202 57.384 267.777 56.915 267.248 56.588C266.72 56.2611 266.11 56.0895 265.489 56.0929H94.5108C93.8916 56.0914 93.2842 56.2623 92.7567 56.5864C92.2291 56.9105 91.8021 57.3751 91.5236 57.9281L62.3084 116.372Z" fill="#ABABAB"/><path d="M313.954 116.372H46.0464C43.3819 116.372 40.8266 117.431 38.9425 119.315C37.0584 121.199 35.9999 123.754 35.9999 126.419V287.163C36.007 296.931 39.8903 306.296 46.7971 313.203C53.7039 320.11 63.0695 323.993 72.8371 324H287.163C296.93 323.993 306.296 320.11 313.203 313.203C320.11 306.296 323.993 296.931 324 287.163V126.419C324 123.754 322.942 121.199 321.057 119.315C319.173 117.431 316.618 116.372 313.954 116.372ZM227.286 227.286L187.1 267.472C185.214 269.35 182.661 270.404 180 270.404C177.339 270.404 174.786 269.35 172.9 267.472L132.714 227.286C130.94 225.381 129.974 222.862 130.02 220.259C130.065 217.657 131.12 215.173 132.961 213.333C134.801 211.492 137.285 210.438 139.887 210.392C142.49 210.346 145.009 211.312 146.913 213.087L169.953 236.113V180C169.953 177.335 171.012 174.78 172.896 172.896C174.78 171.012 177.335 169.953 180 169.953C182.664 169.953 185.22 171.012 187.104 172.896C188.988 174.78 190.046 177.335 190.046 180V236.113L213.087 213.087C214.991 211.312 217.51 210.346 220.113 210.392C222.715 210.438 225.199 211.492 227.039 213.333C228.88 215.173 229.934 217.657 229.98 220.259C230.026 222.862 229.06 225.381 227.286 227.286Z" fill="#ABABAB"/></svg>
