<svg width="24" height="24" viewBox="0 0 24 24" fill="none" xmlns="http://www.w3.org/2000/svg">
<path d="M16.755 2H7.245C6.0861 2 5.5067 2 5.0394 2.1626C4.1532 2.471 3.4575 3.1872 3.158 4.0995C3 4.5805 3 5.1771 3 6.3701V20.3742C3 21.2324 3.985 21.6878 4.6081 21.1176C4.9742 20.7826 5.5258 20.7826 5.8919 21.1176L6.375 21.5597C7.0166 22.1468 7.9834 22.1468 8.625 21.5597C9.2666 20.9726 10.2334 20.9726 10.875 21.5597C11.5166 22.1468 12.4834 22.1468 13.125 21.5597C13.7666 20.9726 14.7334 20.9726 15.375 21.5597C16.0166 22.1468 16.9834 22.1468 17.625 21.5597L18.1081 21.1176C18.4742 20.7826 19.0258 20.7826 19.3919 21.1176C20.015 21.6878 21 21.2324 21 20.3742V6.3701C21 5.1771 21 4.5805 20.842 4.0995C20.5425 3.1872 19.8468 2.471 18.9606 2.1626C18.4933 2 17.9139 2 16.755 2Z" stroke="currentColor" stroke-width="1.5"/>
<path d="M9.5 10.4L10.9286 12L14.5 8" stroke="currentColor" stroke-width="1.5" stroke-linecap="round" stroke-linejoin="round"/>
<path d="M7.5 15.5H16.5" stroke="currentColor" stroke-width="1.5" stroke-linecap="round"/>
</svg>
