<svg width="20" height="20" viewBox="0 0 20 20" fill="none" xmlns="http://www.w3.org/2000/svg">
<path d="M13.9625 1.6665H6.03751C5.07179 1.6665 4.58892 1.6665 4.19949 1.80201C3.46102 2.05897 2.88123 2.65583 2.63163 3.41606C2.5 3.81696 2.5 4.31405 2.5 5.30822V16.9783C2.5 17.6935 3.32083 18.073 3.84008 17.5978C4.14514 17.3187 4.60486 17.3187 4.90992 17.5978L5.3125 17.9662C5.84716 18.4555 6.65284 18.4555 7.1875 17.9662C7.72216 17.477 8.52784 17.477 9.0625 17.9662C9.59716 18.4555 10.4028 18.4555 10.9375 17.9662C11.4722 17.477 12.2778 17.477 12.8125 17.9662C13.3472 18.4555 14.1528 18.4555 14.6875 17.9662L15.0901 17.5978C15.3951 17.3187 15.8549 17.3187 16.1599 17.5978C16.6792 18.073 17.5 17.6935 17.5 16.9783V5.30822C17.5 4.31405 17.5 3.81696 17.3684 3.41606C17.1188 2.65583 16.539 2.05897 15.8005 1.80201C15.4111 1.6665 14.9282 1.6665 13.9625 1.6665Z" stroke="currentColor"/>
<path d="M7.91699 8.6665L9.10747 9.99984L12.0837 6.6665" stroke="currentColor" stroke-linecap="round" stroke-linejoin="round"/>
<path d="M6.25 12.9165H13.75" stroke="currentColor" stroke-linecap="round"/>
</svg>
