<svg width="24" height="24" viewBox="0 0 360 360" fill="none" xmlns="http://www.w3.org/2000/svg"><path d="M318 96V288C318 301.26 307.26 312 294 312H30C16.74 312 5.99999 301.26 5.99999 288V96L12 84H312L318 96Z" fill="#F3F3DC"/><path d="M318 60V96H5.99999V60C5.99999 46.74 16.74 36 30 36H294C307.26 36 318 46.74 318 60Z" fill="#CF6F2F"/><path d="M66 18C66 11.3726 60.6274 6 54 6C47.3726 6 42 11.3726 42 18V54C42 60.6274 47.3726 66 54 66C60.6274 66 66 60.6274 66 54V18Z" fill="#202020"/><path d="M138 18C138 11.3726 132.627 6 126 6C119.373 6 114 11.3726 114 18V54C114 60.6274 119.373 66 126 66C132.627 66 138 60.6274 138 54V18Z" fill="#202020"/><path d="M210 18C210 11.3726 204.627 6 198 6C191.373 6 186 11.3726 186 18V54C186 60.6274 191.373 66 198 66C204.627 66 210 60.6274 210 54V18Z" fill="#202020"/><path d="M282 18C282 11.3726 276.627 6 270 6C263.373 6 258 11.3726 258 18V54C258 60.6274 263.373 66 270 66C276.627 66 282 60.6274 282 54V18Z" fill="#202020"/><path d="M312 276H288V252C288 248.682 285.318 246 282 246C278.682 246 276 248.682 276 252V276H252C248.682 276 246 278.682 246 282C246 285.318 248.682 288 252 288H276V312C276 315.318 278.682 318 282 318C285.318 318 288 315.318 288 312V288H312C315.318 288 318 285.318 318 282C318 278.682 315.318 276 312 276Z" fill="white"/><path d="M341.947 227.493C339.135 225.604 336.595 223.339 334.398 220.76C334.561 217.17 335.283 213.626 336.538 210.258C338.896 202.275 341.833 192.339 336.172 184.565C330.471 176.728 320.056 176.465 311.689 176.251C308.169 176.392 304.648 176.014 301.239 175.128C299.364 172.187 297.933 168.987 296.99 165.629C294.199 157.678 290.721 147.782 281.407 144.756C272.369 141.818 264.258 147.399 257.106 152.307C254.232 154.601 251.006 156.415 247.551 157.678C244.095 156.417 240.867 154.603 237.992 152.307C230.84 147.395 222.727 141.832 213.692 144.756C204.38 147.782 200.903 157.673 198.108 165.626C197.168 168.967 195.752 172.156 193.905 175.094C190.485 176.006 186.946 176.396 183.409 176.249C175.042 176.462 164.627 176.726 158.926 184.562C153.266 192.341 156.202 202.276 158.561 210.26C159.801 213.61 160.529 217.128 160.72 220.695C158.534 223.311 155.984 225.6 153.149 227.493C146.399 232.641 138 239.051 138 248.969C138 258.888 146.399 265.297 153.151 270.446C155.964 272.334 158.504 274.599 160.7 277.178C160.537 280.769 159.815 284.312 158.561 287.68C156.202 295.664 153.266 305.6 158.926 313.374C164.627 321.21 175.042 321.473 183.409 321.687C186.929 321.546 190.45 321.925 193.86 322.81C195.734 325.751 197.166 328.952 198.108 332.309C200.903 340.261 204.379 350.157 213.693 353.184C215.344 353.725 217.069 354 218.806 354C225.815 354 232.216 349.6 237.994 345.633C240.868 343.338 244.095 341.523 247.549 340.26C251.005 341.522 254.234 343.336 257.109 345.632C264.26 350.544 272.371 356.102 281.409 353.183C290.721 350.156 294.197 340.265 296.992 332.312C297.933 328.971 299.348 325.783 301.196 322.845C304.616 321.932 308.155 321.543 311.691 321.69C320.058 321.476 330.473 321.213 336.174 313.377C341.834 305.598 338.898 295.662 336.539 287.678C335.3 284.328 334.572 280.81 334.38 277.243C336.566 274.627 339.116 272.338 341.951 270.445C348.699 265.297 357.098 258.888 357.098 248.969C357.098 239.051 348.699 232.641 341.947 227.493ZM288.238 232.601L242.592 278.247C241.745 279.094 240.739 279.767 239.631 280.226C238.524 280.685 237.337 280.921 236.138 280.921C234.939 280.921 233.752 280.685 232.644 280.226C231.537 279.767 230.531 279.094 229.683 278.247L206.86 255.424C205.995 254.58 205.306 253.573 204.833 252.461C204.36 251.349 204.112 250.154 204.104 248.945C204.097 247.737 204.329 246.539 204.788 245.421C205.247 244.303 205.923 243.287 206.778 242.432C207.633 241.578 208.648 240.901 209.766 240.442C210.884 239.983 212.082 239.751 213.291 239.758C214.5 239.766 215.695 240.014 216.807 240.487C217.919 240.96 218.926 241.649 219.77 242.514L236.138 258.883L275.328 219.692C276.172 218.826 277.179 218.137 278.291 217.664C279.404 217.191 280.599 216.943 281.807 216.936C283.016 216.928 284.214 217.16 285.332 217.619C286.45 218.078 287.466 218.755 288.32 219.609C289.175 220.464 289.851 221.48 290.31 222.598C290.769 223.716 291.002 224.914 290.994 226.123C290.986 227.331 290.739 228.526 290.266 229.638C289.793 230.75 289.103 231.757 288.238 232.601Z" fill="#1FC16B"/><path fill-rule="evenodd" clip-rule="evenodd" d="M239.631 280.226C240.739 279.767 241.745 279.095 242.592 278.247L288.238 232.601C289.103 231.758 289.792 230.751 290.266 229.638C290.739 228.526 290.986 227.331 290.994 226.123C291.002 224.914 290.769 223.716 290.31 222.598C289.851 221.48 289.175 220.464 288.32 219.61C287.466 218.755 286.45 218.079 285.332 217.62C284.214 217.161 283.016 216.928 281.807 216.936C280.599 216.944 279.404 217.191 278.291 217.664C277.179 218.137 276.172 218.827 275.328 219.692L236.138 258.883L219.77 242.515C218.926 241.649 217.919 240.96 216.807 240.487C215.695 240.014 214.5 239.766 213.291 239.759C212.082 239.751 210.884 239.983 209.766 240.442C208.648 240.901 207.633 241.578 206.778 242.432C205.923 243.287 205.247 244.303 204.788 245.421C204.329 246.539 204.097 247.737 204.104 248.945C204.112 250.154 204.359 251.349 204.833 252.461C205.306 253.573 205.995 254.58 206.86 255.424L229.683 278.247C230.531 279.095 231.537 279.767 232.644 280.226C233.752 280.685 234.939 280.921 236.138 280.921C237.337 280.921 238.524 280.685 239.631 280.226Z" fill="white"/></svg>
