<svg width="24" height="24" viewBox="0 0 360 360" fill="none" xmlns="http://www.w3.org/2000/svg"><path d="M318 96V288C318 301.26 307.26 312 294 312H30C16.74 312 5.99999 301.26 5.99999 288V96L12 84H312L318 96Z" fill="#F3F3DC"/><path d="M198 162C207.941 162 216 153.941 216 144C216 134.059 207.941 126 198 126C188.059 126 180 134.059 180 144C180 153.941 188.059 162 198 162Z" fill="#EDCA99"/><path d="M126 162C135.941 162 144 153.941 144 144C144 134.059 135.941 126 126 126C116.059 126 108 134.059 108 144C108 153.941 116.059 162 126 162Z" fill="#EDCA99"/><path d="M270 162C279.941 162 288 153.941 288 144C288 134.059 279.941 126 270 126C260.059 126 252 134.059 252 144C252 153.941 260.059 162 270 162Z" fill="#EDCA99"/><path d="M270 222C279.941 222 288 213.941 288 204C288 194.059 279.941 186 270 186C260.059 186 252 194.059 252 204C252 213.941 260.059 222 270 222Z" fill="#EDCA99"/><path d="M54 222C63.9411 222 72 213.941 72 204C72 194.059 63.9411 186 54 186C44.0589 186 36 194.059 36 204C36 213.941 44.0589 222 54 222Z" fill="#EDCA99"/><path d="M126 222C135.941 222 144 213.941 144 204C144 194.059 135.941 186 126 186C116.059 186 108 194.059 108 204C108 213.941 116.059 222 126 222Z" fill="#EDCA99"/><path d="M198 222C207.941 222 216 213.941 216 204C216 194.059 207.941 186 198 186C188.059 186 180 194.059 180 204C180 213.941 188.059 222 198 222Z" fill="#EDCA99"/><path d="M198 282C207.941 282 216 273.941 216 264C216 254.059 207.941 246 198 246C188.059 246 180 254.059 180 264C180 273.941 188.059 282 198 282Z" fill="#EDCA99"/><path d="M54 282C63.9411 282 72 273.941 72 264C72 254.059 63.9411 246 54 246C44.0589 246 36 254.059 36 264C36 273.941 44.0589 282 54 282Z" fill="#EDCA99"/><path d="M126 282C135.941 282 144 273.941 144 264C144 254.059 135.941 246 126 246C116.059 246 108 254.059 108 264C108 273.941 116.059 282 126 282Z" fill="#EDCA99"/><path d="M318 60V96H5.99999V60C5.99999 46.74 16.74 36 30 36H294C307.26 36 318 46.74 318 60Z" fill="#CF6F2F"/><path d="M66 18C66 11.3726 60.6274 6 54 6C47.3726 6 42 11.3726 42 18V54C42 60.6274 47.3726 66 54 66C60.6274 66 66 60.6274 66 54V18Z" fill="#202020"/><path d="M138 18C138 11.3726 132.627 6 126 6C119.373 6 114 11.3726 114 18V54C114 60.6274 119.373 66 126 66C132.627 66 138 60.6274 138 54V18Z" fill="#202020"/><path d="M210 18C210 11.3726 204.627 6 198 6C191.373 6 186 11.3726 186 18V54C186 60.6274 191.373 66 198 66C204.627 66 210 60.6274 210 54V18Z" fill="#202020"/><path d="M282 18C282 11.3726 276.627 6 270 6C263.373 6 258 11.3726 258 18V54C258 60.6274 263.373 66 270 66C276.627 66 282 60.6274 282 54V18Z" fill="#202020"/><path d="M312 276H288V252C288 248.682 285.318 246 282 246C278.682 246 276 248.682 276 252V276H252C248.682 276 246 278.682 246 282C246 285.318 248.682 288 252 288H276V312C276 315.318 278.682 318 282 318C285.318 318 288 315.318 288 312V288H312C315.318 288 318 285.318 318 282C318 278.682 315.318 276 312 276Z" fill="white"/><path d="M346.712 267.277C344.784 265.982 343.043 264.429 341.537 262.661C341.649 260.2 342.143 257.771 343.004 255.462C344.62 249.989 346.633 243.178 342.753 237.849C338.845 232.477 331.705 232.296 325.969 232.15C323.557 232.246 321.143 231.987 318.805 231.38C317.52 229.364 316.539 227.17 315.893 224.868C313.979 219.417 311.595 212.634 305.21 210.559C299.014 208.545 293.454 212.371 288.552 215.735C286.582 217.308 284.369 218.552 282.002 219.417C279.632 218.553 277.419 217.309 275.449 215.735C270.546 212.368 264.984 208.554 258.79 210.559C252.407 212.634 250.023 219.414 248.107 224.866C247.463 227.156 246.492 229.342 245.226 231.356C242.881 231.982 240.455 232.249 238.031 232.148C232.295 232.294 225.155 232.475 221.247 237.847C217.367 243.179 219.38 249.99 220.997 255.463C221.847 257.76 222.346 260.172 222.477 262.617C220.978 264.41 219.231 265.979 217.287 267.277C212.659 270.806 206.902 275.2 206.902 281.999C206.902 288.798 212.659 293.192 217.288 296.722C219.216 298.016 220.957 299.569 222.463 301.337C222.351 303.798 221.857 306.227 220.997 308.536C219.38 314.009 217.367 320.821 221.247 326.15C225.155 331.522 232.295 331.702 238.031 331.849C240.444 331.752 242.857 332.012 245.195 332.619C246.48 334.635 247.461 336.829 248.107 339.13C250.023 344.582 252.406 351.365 258.791 353.441C259.922 353.812 261.105 354 262.296 354C267.101 354 271.489 350.984 275.45 348.264C277.42 346.691 279.632 345.447 282 344.581C284.369 345.446 286.582 346.69 288.553 348.263C293.456 351.631 299.016 355.441 305.212 353.44C311.595 351.365 313.978 344.584 315.894 339.133C316.539 336.842 317.509 334.657 318.776 332.642C321.121 332.017 323.546 331.75 325.971 331.851C331.707 331.704 338.846 331.524 342.754 326.152C346.635 320.82 344.622 314.008 343.005 308.535C342.155 306.238 341.656 303.827 341.524 301.381C343.023 299.588 344.771 298.019 346.715 296.722C351.341 293.192 357.098 288.798 357.098 281.999C357.098 275.2 351.341 270.806 346.712 267.277ZM309.893 270.779L278.602 302.07C278.021 302.651 277.331 303.112 276.572 303.426C275.813 303.741 274.999 303.903 274.177 303.903C273.355 303.903 272.542 303.741 271.783 303.426C271.023 303.112 270.333 302.651 269.752 302.07L254.107 286.424C253.514 285.846 253.041 285.155 252.717 284.393C252.393 283.631 252.223 282.811 252.218 281.983C252.212 281.154 252.372 280.333 252.686 279.567C253.001 278.8 253.465 278.104 254.051 277.518C254.636 276.932 255.333 276.468 256.099 276.154C256.866 275.839 257.687 275.68 258.515 275.685C259.344 275.69 260.163 275.86 260.926 276.184C261.688 276.509 262.378 276.981 262.957 277.574L274.177 288.795L301.043 261.929C301.622 261.336 302.312 260.863 303.075 260.539C303.837 260.215 304.656 260.045 305.485 260.04C306.313 260.034 307.134 260.194 307.901 260.508C308.667 260.823 309.364 261.287 309.949 261.873C310.535 262.458 310.999 263.155 311.314 263.921C311.628 264.688 311.788 265.509 311.782 266.337C311.777 267.166 311.607 267.985 311.283 268.747C310.959 269.51 310.486 270.2 309.893 270.779Z" fill="#1FC16B"/><path fill-rule="evenodd" clip-rule="evenodd" d="M276.572 303.426C277.331 303.112 278.021 302.651 278.602 302.07L309.893 270.779C310.486 270.2 310.959 269.51 311.283 268.747C311.607 267.985 311.777 267.166 311.782 266.337C311.788 265.509 311.628 264.688 311.314 263.921C310.999 263.155 310.535 262.458 309.949 261.873C309.364 261.287 308.667 260.823 307.901 260.508C307.134 260.194 306.313 260.034 305.485 260.04C304.656 260.045 303.837 260.215 303.075 260.539C302.312 260.863 301.622 261.336 301.043 261.929L274.177 288.795L262.957 277.574C262.378 276.981 261.688 276.509 260.925 276.184C260.163 275.86 259.344 275.69 258.515 275.685C257.687 275.68 256.866 275.839 256.099 276.154C255.333 276.468 254.636 276.932 254.051 277.518C253.465 278.104 253.001 278.8 252.686 279.567C252.372 280.333 252.212 281.154 252.218 281.983C252.223 282.811 252.393 283.631 252.717 284.393C253.041 285.155 253.514 285.846 254.107 286.424L269.752 302.07C270.333 302.651 271.023 303.112 271.782 303.426C272.542 303.741 273.355 303.903 274.177 303.903C274.999 303.903 275.813 303.741 276.572 303.426Z" fill="white"/></svg>
