<svg width="24" height="24" viewBox="0 0 360 360" fill="none" xmlns="http://www.w3.org/2000/svg"><path d="M290.4 112.8V266.4C290.4 277.008 281.808 285.6 271.2 285.6H60C49.392 285.6 40.8 277.008 40.8 266.4V112.8L45.6 103.2H285.6L290.4 112.8Z" fill="#F3F3DC"/><path d="M194.4 165.6C202.353 165.6 208.8 159.153 208.8 151.2C208.8 143.247 202.353 136.8 194.4 136.8C186.447 136.8 180 143.247 180 151.2C180 159.153 186.447 165.6 194.4 165.6Z" fill="#EDCA99"/><path d="M136.8 165.6C144.753 165.6 151.2 159.153 151.2 151.2C151.2 143.247 144.753 136.8 136.8 136.8C128.847 136.8 122.4 143.247 122.4 151.2C122.4 159.153 128.847 165.6 136.8 165.6Z" fill="#EDCA99"/><path d="M252 165.6C259.953 165.6 266.4 159.153 266.4 151.2C266.4 143.247 259.953 136.8 252 136.8C244.047 136.8 237.6 143.247 237.6 151.2C237.6 159.153 244.047 165.6 252 165.6Z" fill="#EDCA99"/><path d="M252 213.6C259.953 213.6 266.4 207.153 266.4 199.2C266.4 191.247 259.953 184.8 252 184.8C244.047 184.8 237.6 191.247 237.6 199.2C237.6 207.153 244.047 213.6 252 213.6Z" fill="#EDCA99"/><path d="M79.2 213.6C87.1529 213.6 93.6 207.153 93.6 199.2C93.6 191.247 87.1529 184.8 79.2 184.8C71.2471 184.8 64.8 191.247 64.8 199.2C64.8 207.153 71.2471 213.6 79.2 213.6Z" fill="#EDCA99"/><path d="M136.8 213.6C144.753 213.6 151.2 207.153 151.2 199.2C151.2 191.247 144.753 184.8 136.8 184.8C128.847 184.8 122.4 191.247 122.4 199.2C122.4 207.153 128.847 213.6 136.8 213.6Z" fill="#EDCA99"/><path d="M194.4 213.6C202.353 213.6 208.8 207.153 208.8 199.2C208.8 191.247 202.353 184.8 194.4 184.8C186.447 184.8 180 191.247 180 199.2C180 207.153 186.447 213.6 194.4 213.6Z" fill="#EDCA99"/><path d="M194.4 261.6C202.353 261.6 208.8 255.153 208.8 247.2C208.8 239.247 202.353 232.8 194.4 232.8C186.447 232.8 180 239.247 180 247.2C180 255.153 186.447 261.6 194.4 261.6Z" fill="#EDCA99"/><path d="M79.2 261.6C87.1529 261.6 93.6 255.153 93.6 247.2C93.6 239.247 87.1529 232.8 79.2 232.8C71.2471 232.8 64.8 239.247 64.8 247.2C64.8 255.153 71.2471 261.6 79.2 261.6Z" fill="#EDCA99"/><path d="M136.8 261.6C144.753 261.6 151.2 255.153 151.2 247.2C151.2 239.247 144.753 232.8 136.8 232.8C128.847 232.8 122.4 239.247 122.4 247.2C122.4 255.153 128.847 261.6 136.8 261.6Z" fill="#EDCA99"/><path d="M290.4 84V112.8H40.8V84C40.8 73.392 49.392 64.8 60 64.8H271.2C281.808 64.8 290.4 73.392 290.4 84Z" fill="#CF6F2F"/><path d="M88.8 50.4C88.8 45.0981 84.5019 40.8 79.2 40.8C73.8981 40.8 69.6 45.0981 69.6 50.4V79.2001C69.6 84.502 73.8981 88.8 79.2 88.8C84.5019 88.8 88.8 84.502 88.8 79.2001V50.4Z" fill="#202020"/><path d="M146.4 50.4C146.4 45.0981 142.102 40.8 136.8 40.8C131.498 40.8 127.2 45.0981 127.2 50.4V79.2001C127.2 84.502 131.498 88.8 136.8 88.8C142.102 88.8 146.4 84.502 146.4 79.2001V50.4Z" fill="#202020"/><path d="M204 50.4C204 45.0981 199.702 40.8 194.4 40.8C189.098 40.8 184.8 45.0981 184.8 50.4V79.2001C184.8 84.502 189.098 88.8 194.4 88.8C199.702 88.8 204 84.502 204 79.2001V50.4Z" fill="#202020"/><path d="M261.6 50.4C261.6 45.0981 257.302 40.8 252 40.8C246.698 40.8 242.4 45.0981 242.4 50.4V79.2001C242.4 84.502 246.698 88.8 252 88.8C257.302 88.8 261.6 84.502 261.6 79.2001V50.4Z" fill="#202020"/><path d="M285.6 256.8H266.4V237.6C266.4 234.946 264.254 232.8 261.6 232.8C258.946 232.8 256.8 234.946 256.8 237.6V256.8H237.6C234.946 256.8 232.8 258.946 232.8 261.6C232.8 264.254 234.946 266.4 237.6 266.4H256.8V285.6C256.8 288.254 258.946 290.4 261.6 290.4C264.254 290.4 266.4 288.254 266.4 285.6V266.4H285.6C288.254 266.4 290.4 264.254 290.4 261.6C290.4 258.946 288.254 256.8 285.6 256.8Z" fill="white"/><path d="M313.369 249.821C311.827 248.786 310.434 247.543 309.23 246.129C309.319 244.16 309.715 242.217 310.403 240.37C311.696 235.991 313.307 230.543 310.203 226.279C307.076 221.981 301.364 221.837 296.775 221.72C294.845 221.797 292.914 221.589 291.044 221.104C290.016 219.491 289.231 217.736 288.714 215.894C287.183 211.534 285.276 206.107 280.168 204.447C275.212 202.836 270.763 205.897 266.841 208.588C265.265 209.847 263.496 210.841 261.601 211.534C259.706 210.842 257.935 209.847 256.359 208.588C252.437 205.894 247.987 202.843 243.032 204.447C237.925 206.107 236.019 211.531 234.486 215.893C233.97 217.725 233.194 219.474 232.181 221.085C230.305 221.585 228.364 221.799 226.425 221.718C221.836 221.835 216.124 221.98 212.998 226.277C209.894 230.543 211.504 235.992 212.797 240.371C213.477 242.208 213.877 244.137 213.982 246.094C212.783 247.528 211.384 248.783 209.83 249.821C206.127 252.645 201.521 256.16 201.521 261.599C201.521 267.039 206.127 270.554 209.831 273.378C211.373 274.413 212.766 275.655 213.97 277.07C213.881 279.039 213.485 280.982 212.797 282.829C211.504 287.207 209.893 292.656 212.997 296.92C216.124 301.217 221.836 301.362 226.425 301.479C228.355 301.402 230.286 301.609 232.156 302.095C233.184 303.708 233.969 305.463 234.486 307.304C236.018 311.666 237.925 317.092 243.033 318.753C243.938 319.049 244.884 319.2 245.837 319.2C249.681 319.2 253.191 316.787 256.36 314.611C257.936 313.353 259.706 312.358 261.6 311.665C263.495 312.357 265.266 313.352 266.843 314.611C270.765 317.304 275.213 320.353 280.169 318.752C285.276 317.092 287.183 311.668 288.715 307.306C289.231 305.474 290.007 303.725 291.021 302.114C292.896 301.613 294.837 301.4 296.777 301.481C301.365 301.363 307.077 301.219 310.204 296.922C313.308 292.656 311.697 287.207 310.404 282.828C309.724 280.991 309.325 279.061 309.22 277.105C310.419 275.671 311.817 274.415 313.372 273.377C317.073 270.554 321.679 267.039 321.679 261.599C321.679 256.16 317.073 252.645 313.369 249.821ZM283.914 252.623L258.882 277.656C258.417 278.121 257.865 278.489 257.258 278.741C256.65 278.993 255.999 279.122 255.342 279.122C254.684 279.122 254.033 278.993 253.426 278.741C252.819 278.489 252.267 278.121 251.802 277.656L239.286 265.139C238.811 264.677 238.433 264.124 238.174 263.514C237.914 262.904 237.778 262.249 237.774 261.586C237.77 260.923 237.897 260.266 238.149 259.653C238.401 259.04 238.772 258.483 239.24 258.014C239.709 257.546 240.266 257.175 240.879 256.923C241.493 256.671 242.15 256.544 242.812 256.548C243.475 256.552 244.13 256.688 244.74 256.947C245.35 257.207 245.903 257.585 246.365 258.06L255.342 267.036L276.835 245.543C277.297 245.069 277.85 244.691 278.46 244.431C279.07 244.172 279.725 244.036 280.388 244.032C281.05 244.028 281.708 244.155 282.321 244.407C282.934 244.658 283.491 245.029 283.96 245.498C284.428 245.967 284.799 246.524 285.051 247.137C285.303 247.75 285.43 248.407 285.426 249.07C285.422 249.733 285.286 250.388 285.026 250.998C284.767 251.608 284.389 252.16 283.914 252.623Z" fill="#1FC16B"/><path fill-rule="evenodd" clip-rule="evenodd" d="M257.258 278.741C257.865 278.489 258.417 278.12 258.882 277.656L283.914 252.623C284.389 252.16 284.767 251.608 285.026 250.998C285.286 250.388 285.422 249.733 285.426 249.07C285.43 248.407 285.303 247.75 285.051 247.137C284.799 246.524 284.428 245.967 283.96 245.498C283.491 245.029 282.934 244.658 282.321 244.407C281.708 244.155 281.05 244.027 280.388 244.032C279.725 244.036 279.07 244.172 278.46 244.431C277.85 244.69 277.297 245.068 276.835 245.543L255.342 267.036L246.365 258.059C245.903 257.585 245.35 257.207 244.74 256.947C244.13 256.688 243.475 256.552 242.812 256.548C242.15 256.544 241.493 256.671 240.879 256.923C240.266 257.175 239.709 257.546 239.24 258.014C238.772 258.483 238.401 259.04 238.149 259.653C237.897 260.266 237.77 260.923 237.774 261.586C237.778 262.249 237.914 262.904 238.174 263.514C238.433 264.124 238.811 264.676 239.286 265.139L251.802 277.656C252.267 278.12 252.819 278.489 253.426 278.741C254.033 278.993 254.684 279.122 255.342 279.122C255.999 279.122 256.65 278.993 257.258 278.741Z" fill="white"/></svg>
