<svg width="24" height="24" viewBox="0 0 360 360" fill="none" xmlns="http://www.w3.org/2000/svg"><path d="M28.631 332.292C65.4703 369.237 125.202 369.237 162.045 332.292L331.369 162.494C368.202 125.549 368.196 65.6562 331.36 28.717C294.524 -8.22217 234.798 -8.22814 197.955 28.7081L28.631 198.505C-8.2113 235.451 -8.2113 295.35 28.631 332.292Z" fill="#6C8145"/><path d="M331.369 28.7081C294.53 -8.23703 234.798 -8.23703 197.955 28.7081L113.503 113.396L246.917 247.183L331.369 162.495C368.211 125.549 368.211 65.6503 331.369 28.7081Z" fill="#ECA66D"/><path d="M50.1785 245.488C43.6041 245.485 37.6785 241.515 35.1637 235.424C32.6488 229.335 34.0387 222.325 38.6875 217.663L87.4494 168.765C93.7946 162.399 104.086 162.399 110.432 168.765C116.78 175.131 116.78 185.448 110.432 191.814L61.6696 240.712C58.625 243.774 54.491 245.491 50.1785 245.488Z" fill="white"/><path d="M180.211 115.092C173.637 115.092 167.711 111.119 165.196 105.031C162.682 98.9394 164.071 91.9288 168.717 87.267L217.479 38.3689C223.827 32.0059 234.116 32.0059 240.464 38.3689C246.813 44.7348 246.813 55.0523 240.464 61.4182L191.702 110.316C188.658 113.378 184.521 115.098 180.211 115.092Z" fill="white"/></svg>
