<svg width="24" height="24" viewBox="0 0 360 360" fill="none" xmlns="http://www.w3.org/2000/svg"><path d="M163.692 249.157L66.6181 164.125C50.3327 152.137 53.2181 132.247 74.0819 132.229H116.404V26.8469C116.404 17.9493 125.471 10.8026 136.763 10.8026H223.93C235.19 10.8026 244.266 17.9493 244.266 26.8469V132.233H286.606C307.447 132.251 310.337 152.141 294.047 164.13L196.987 249.157C192.216 253.32 186.057 255.536 179.933 255.402C173.818 255.268 168.137 253.043 163.692 249.157Z" fill="#8F8F8F"/><path d="M41.3279 335.467V310.646C41.3279 299.809 50.7302 291.077 62.4061 291.077H298.023C309.703 291.077 319.101 299.809 319.101 310.646V335.467C319.101 346.294 309.703 355.035 298.023 355.035H62.4061C50.7302 355.035 41.3279 346.29 41.3279 335.467Z" fill="#8F8F8F"/></svg>
