<svg width="20" height="20" viewBox="16 9 24 24" fill="none" xmlns="http://www.w3.org/2000/svg">
<path d="M30.3601 12.0787L31.2869 11.1518C32.8226 9.61607 35.3125 9.61607 36.8482 11.1518C38.3839 12.6875 38.3839 15.1774 36.8482 16.7131L35.9213 17.6399M30.3601 12.0787C30.3601 12.0787 30.4759 14.0483 32.2138 15.7862C33.9517 17.5241 35.9213 17.6399 35.9213 17.6399M30.3601 12.0787L21.8388 20.5999C21.2617 21.1771 20.9731 21.4656 20.7249 21.7838C20.4321 22.1592 20.1811 22.5653 19.9763 22.995C19.8027 23.3593 19.6737 23.7465 19.4156 24.5208L18.3218 27.8021M35.9213 17.6399L27.4001 26.1612C26.8229 26.7383 26.5344 27.0269 26.2162 27.2751C25.8408 27.5679 25.4347 27.8189 25.005 28.0237C24.6407 28.1973 24.2535 28.3263 23.4792 28.5844L20.1979 29.6782M20.1979 29.6782L19.3958 29.9456C19.0148 30.0726 18.5947 29.9734 18.3106 29.6894C18.0266 29.4053 17.9274 28.9852 18.0544 28.6042L18.3218 27.8021M20.1979 29.6782L18.3218 27.8021" stroke="currentColor" stroke-width="1.5"/>
</svg>
