<svg width="24" height="24" viewBox="0 0 360 360" fill="none" xmlns="http://www.w3.org/2000/svg"><path d="M324 86.9128V261.609C323.988 268.226 321.365 274.572 316.7 279.265L205.456 168.022L203.709 165.339L324 86.9128Z" fill="#E48647"/><path d="M316.7 279.266C312.006 283.93 305.661 286.554 299.043 286.565H61.9567C55.3389 286.554 48.9937 283.93 44.2997 279.266L155.544 168.022L157.104 165.589L180.5 180.5L203.71 165.339L205.456 168.022L316.7 279.266Z" fill="#CF6F2F"/><path d="M157.104 165.589L155.544 168.022L44.2998 279.266C39.635 274.572 37.0117 268.226 37 261.609V99.3917C36.9924 96.8742 37.3708 94.3701 38.123 91.9673L43.2393 93.1523L157.104 165.589Z" fill="#E48647"/><path d="M324 86.9129L203.71 165.339L180.5 180.5L157.104 165.588L43.2393 93.1522L38.123 91.9666C41.3734 81.5357 51.031 74.4319 61.9566 74.4348H292.805C317.761 74.4348 324 86.9129 324 86.9129Z" fill="#EDCA99"/></svg>
