<svg width="24" height="24" viewBox="0 0 360 360" fill="none" xmlns="http://www.w3.org/2000/svg"><path d="M360 63.4346V281.956C359.985 290.234 356.704 298.171 350.869 304.043L211.717 164.891L209.532 161.535L360 63.4346Z" fill="#E48647"/><path d="M350.869 304.043C344.997 309.878 337.06 313.159 328.782 313.174H32.2176C23.9396 313.159 16.0026 309.878 10.131 304.043L149.283 164.891L151.234 161.848L180.5 180.5L209.532 161.535L211.717 164.891L350.869 304.043Z" fill="#CF6F2F"/><path d="M151.234 161.848L149.283 164.891L10.131 304.043C4.29607 298.171 1.01459 290.234 0.999957 281.956V79.0438C0.990446 75.8947 1.46383 72.7625 2.40474 69.7568L8.80454 71.2392L151.234 161.848Z" fill="#E48647"/><path d="M360 63.4346L209.532 161.535L180.5 180.5L151.234 161.848L8.80453 71.2392L2.40472 69.7561C6.47054 56.7085 18.5509 47.8225 32.2176 47.8262H320.978C352.195 47.8262 360 63.4346 360 63.4346Z" fill="#EDCA99"/></svg>
