<svg width="24" height="24" viewBox="0 0 360 360" fill="none" xmlns="http://www.w3.org/2000/svg"><path d="M180 319.2C256.878 319.2 319.2 256.878 319.2 180C319.2 103.122 256.878 40.8 180 40.8C103.122 40.8 40.8 103.122 40.8 180C40.8 256.878 103.122 319.2 180 319.2Z" fill="#FB3748"/><path d="M200.246 180L235.637 215.39C236.891 216.65 237.596 218.355 237.596 220.133C237.596 221.91 236.891 223.616 235.637 224.875L224.875 235.637C223.616 236.891 221.91 237.596 220.133 237.596C218.355 237.596 216.65 236.891 215.39 235.637L180 200.246L144.61 235.637C143.35 236.891 141.645 237.596 139.867 237.596C138.09 237.596 136.384 236.891 135.125 235.637L124.363 224.875C123.109 223.616 122.404 221.91 122.404 220.133C122.404 218.355 123.109 216.65 124.363 215.39L159.754 180L124.363 144.61C123.109 143.35 122.404 141.645 122.404 139.867C122.404 138.09 123.109 136.384 124.363 135.125L135.125 124.363C136.384 123.109 138.09 122.404 139.867 122.404C141.645 122.404 143.35 123.109 144.61 124.363L180 159.754L215.39 124.363C216.65 123.109 218.355 122.404 220.133 122.404C221.91 122.404 223.616 123.109 224.875 124.363L235.637 135.125C236.891 136.384 237.596 138.09 237.596 139.867C237.596 141.645 236.891 143.35 235.637 144.61L200.246 180Z" fill="white"/></svg>
