<svg width="24" height="24" viewBox="0 0 360 360" fill="none" xmlns="http://www.w3.org/2000/svg"><path d="M180 354C276.098 354 354 276.098 354 180C354 83.9025 276.098 6 180 6C83.9024 6 5.99999 83.9025 5.99999 180C5.99999 276.098 83.9024 354 180 354Z" fill="#FB3748"/><path d="M205.308 180L249.546 224.238C251.114 225.812 251.995 227.944 251.995 230.166C251.995 232.388 251.114 234.52 249.546 236.094L236.094 249.546C234.52 251.114 232.388 251.995 230.166 251.995C227.944 251.995 225.812 251.114 224.238 249.546L180 205.308L135.762 249.546C134.188 251.114 132.056 251.995 129.834 251.995C127.612 251.995 125.48 251.114 123.906 249.546L110.454 236.094C108.886 234.52 108.005 232.388 108.005 230.166C108.005 227.944 108.886 225.812 110.454 224.238L154.692 180L110.454 135.762C108.886 134.188 108.005 132.056 108.005 129.834C108.005 127.612 108.886 125.48 110.454 123.906L123.906 110.454C125.48 108.886 127.612 108.005 129.834 108.005C132.056 108.005 134.188 108.886 135.762 110.454L180 154.692L224.238 110.454C225.812 108.886 227.944 108.005 230.166 108.005C232.388 108.005 234.52 108.886 236.094 110.454L249.546 123.906C251.114 125.48 251.995 127.612 251.995 129.834C251.995 132.056 251.114 134.188 249.546 135.762L205.308 180Z" fill="white"/></svg>
