<svg width="20" height="20" viewBox="0 0 20 20" fill="none" xmlns="http://www.w3.org/2000/svg">
<path d="M12.8278 3.37788L12.4933 3.74952V3.74952L12.8278 3.37788ZM16.1268 6.34696L15.7923 6.71861V6.71861L16.1268 6.34696ZM18.0453 8.46158L17.5886 8.665V8.665L18.0453 8.46158ZM2.6433 17.3569L2.99686 17.0033H2.99686L2.6433 17.3569ZM17.3573 17.3569L17.0038 17.0033V17.0033L17.3573 17.3569ZM11.667 18.3332V17.8332H8.33366V18.3332V18.8332H11.667V18.3332ZM1.66699 11.6665H2.16699V8.33317H1.66699H1.16699V11.6665H1.66699ZM18.3337 11.3023H17.8337V11.6665H18.3337H18.8337V11.3023H18.3337ZM12.8278 3.37788L12.4933 3.74952L15.7923 6.71861L16.1268 6.34696L16.4612 5.97531L13.1623 3.00623L12.8278 3.37788ZM18.3337 11.3023H18.8337C18.8337 9.88425 18.8438 9.02535 18.5021 8.25816L18.0453 8.46158L17.5886 8.665C17.8236 9.19264 17.8337 9.79592 17.8337 11.3023H18.3337ZM16.1268 6.34696L15.7923 6.71861C16.9119 7.72629 17.3536 8.13736 17.5886 8.665L18.0453 8.46158L18.5021 8.25816C18.1604 7.49098 17.5152 6.92391 16.4612 5.97531L16.1268 6.34696ZM8.35849 1.6665V2.1665C9.66718 2.1665 10.1922 2.17422 10.6622 2.35458L10.8413 1.88777L11.0205 1.42096C10.3373 1.15878 9.59146 1.1665 8.35849 1.1665V1.6665ZM12.8278 3.37788L13.1623 3.00623C12.2503 2.18545 11.7036 1.68311 11.0205 1.42096L10.8413 1.88777L10.6622 2.35458C11.1323 2.53496 11.5255 2.87851 12.4933 3.74952L12.8278 3.37788ZM8.33366 18.3332V17.8332C6.74818 17.8332 5.60936 17.8321 4.74271 17.7156C3.89044 17.601 3.37663 17.3831 2.99686 17.0033L2.6433 17.3569L2.28975 17.7104C2.88629 18.307 3.6463 18.5772 4.60946 18.7067C5.55824 18.8342 6.77644 18.8332 8.33366 18.8332V18.3332ZM1.66699 11.6665H1.16699C1.16699 13.2237 1.16593 14.4419 1.29349 15.3907C1.42298 16.3539 1.69321 17.1139 2.28975 17.7104L2.6433 17.3569L2.99686 17.0033C2.61709 16.6235 2.39916 16.1097 2.28457 15.2575C2.16805 14.3908 2.16699 13.252 2.16699 11.6665H1.66699ZM11.667 18.3332V18.8332C13.2242 18.8332 14.4424 18.8342 15.3912 18.7067C16.3543 18.5772 17.1144 18.307 17.7109 17.7104L17.3573 17.3569L17.0038 17.0033C16.624 17.3831 16.1102 17.601 15.2579 17.7156C14.3913 17.8321 13.2525 17.8332 11.667 17.8332V18.3332ZM18.3337 11.6665H17.8337C17.8337 13.252 17.8326 14.3908 17.7161 15.2575C17.6015 16.1097 17.3836 16.6235 17.0038 17.0033L17.3573 17.3569L17.7109 17.7104C18.3074 17.1139 18.5777 16.3539 18.7072 15.3907C18.8347 14.4419 18.8337 13.2237 18.8337 11.6665H18.3337ZM1.66699 8.33317H2.16699C2.16699 6.74769 2.16805 5.60887 2.28457 4.74222C2.39916 3.88995 2.61709 3.37614 2.99686 2.99637L2.6433 2.64281L2.28975 2.28926C1.69321 2.8858 1.42298 3.64582 1.29349 4.60897C1.16593 5.55775 1.16699 6.77596 1.16699 8.33317H1.66699ZM8.35849 1.6665V1.1665C6.79295 1.1665 5.5687 1.16545 4.61597 1.29296C3.64923 1.42235 2.88668 1.69233 2.28975 2.28926L2.6433 2.64281L2.99686 2.99637C3.37624 2.61699 3.89166 2.39882 4.74862 2.28412C5.61959 2.16756 6.76477 2.1665 8.35849 2.1665V1.6665Z" fill="currentColor"/>
<path d="M10.833 2.0835V4.16683C10.833 6.13101 10.833 7.11311 11.4432 7.7233C12.0534 8.3335 13.0355 8.3335 14.9997 8.3335H18.333" stroke="currentColor"/>
</svg>
