<svg width="20" height="20" viewBox="0 0 20 20" fill="none" xmlns="http://www.w3.org/2000/svg">
<path d="M7.5346 12.4409L9.99935 10.0001L7.5346 7.55931C5.09919 5.14758 3.88149 3.94172 4.22239 2.90132C4.2517 2.81189 4.28809 2.72489 4.33122 2.64113C4.83307 1.66675 6.55516 1.66675 9.99935 1.66675C13.4435 1.66675 15.1656 1.66675 15.6675 2.64113C15.7106 2.72489 15.747 2.81189 15.7763 2.90132C16.1172 3.94172 14.8995 5.14758 12.4641 7.5593L9.99935 10.0001L12.4641 12.4409C14.8995 14.8526 16.1172 16.0584 15.7763 17.0988C15.747 17.1883 15.7106 17.2753 15.6675 17.359C15.1656 18.3334 13.4435 18.3334 9.99935 18.3334C6.55516 18.3334 4.83307 18.3334 4.33122 17.359C4.28809 17.2753 4.2517 17.1883 4.22239 17.0988C3.88149 16.0584 5.09919 14.8526 7.5346 12.4409Z" fill="#DFB400"/>
</svg>
