<svg width="24" height="24" viewBox="0 0 360 360" fill="none" xmlns="http://www.w3.org/2000/svg"><path d="M335.105 144.711C330.484 141.609 326.311 137.887 322.702 133.65C322.97 127.75 324.156 121.928 326.217 116.394C330.092 103.276 334.917 86.951 325.617 74.177C316.249 61.301 299.137 60.869 285.388 60.5172C279.605 60.7483 273.819 60.1264 268.217 58.6715C265.137 53.8398 262.785 48.5809 261.237 43.064C256.65 29.9997 250.935 13.7397 235.631 8.76648C220.781 3.94023 207.455 13.1097 195.704 21.1737C190.981 24.9442 185.679 27.9248 180.004 29.9997C174.325 27.9269 169.021 24.9462 164.297 21.1737C152.546 13.103 139.215 3.96198 124.369 8.76648C109.069 13.7397 103.356 29.9915 98.7638 43.0587C97.2188 48.5484 94.8928 53.7875 91.857 58.6152C86.2372 60.1146 80.4228 60.7543 74.6115 60.5127C60.864 60.8637 43.7512 61.2965 34.3837 74.1717C25.0837 86.9532 29.9085 103.278 33.7838 116.397C35.821 121.902 37.0172 127.682 37.332 133.543C33.7394 137.841 29.5502 141.602 24.8918 144.712C13.8 153.171 0 163.703 0 180C0 196.296 13.8 206.828 24.8948 215.288C29.5159 218.39 33.6893 222.112 37.2983 226.35C37.0304 232.249 35.8444 238.071 33.783 243.606C29.9085 256.723 25.083 273.049 34.383 285.822C43.7505 298.698 60.8633 299.13 74.6115 299.482C80.3948 299.251 86.1806 299.873 91.7828 301.328C94.8629 306.16 97.2149 311.419 98.763 316.935C103.355 330.002 109.068 346.26 124.372 351.235C127.083 352.124 129.918 352.576 132.772 352.576C144.289 352.576 154.807 345.346 164.3 338.828C169.022 335.056 174.324 332.075 180 330C185.679 332.073 190.983 335.053 195.707 338.826C207.458 346.896 220.785 356.03 235.635 351.233C250.935 346.26 256.648 330.008 261.24 316.941C262.785 311.451 265.111 306.212 268.147 301.384C273.767 299.885 279.581 299.245 285.392 299.487C299.14 299.136 316.253 298.703 325.62 285.828C334.92 273.047 330.095 256.721 326.22 243.603C324.183 238.098 322.987 232.318 322.672 226.456C326.264 222.159 330.454 218.398 335.112 215.287C346.2 206.828 360 196.296 360 180C360 163.703 346.2 153.171 335.105 144.711ZM246.856 153.105L171.856 228.105C170.463 229.499 168.81 230.604 166.99 231.358C165.17 232.112 163.22 232.5 161.25 232.5C159.28 232.5 157.33 232.112 155.51 231.358C153.69 230.604 152.037 229.499 150.644 228.105L113.144 190.605C111.722 189.219 110.59 187.564 109.813 185.737C109.035 183.91 108.628 181.946 108.616 179.96C108.603 177.975 108.985 176.006 109.739 174.169C110.493 172.332 111.605 170.663 113.009 169.259C114.413 167.855 116.082 166.743 117.919 165.989C119.756 165.235 121.725 164.853 123.711 164.866C125.696 164.878 127.66 165.285 129.487 166.062C131.315 166.84 132.969 167.972 134.356 169.394L161.25 196.289L225.644 131.894C227.031 130.472 228.685 129.34 230.513 128.562C232.34 127.785 234.304 127.378 236.289 127.366C238.275 127.353 240.244 127.735 242.081 128.489C243.918 129.243 245.587 130.355 246.991 131.759C248.395 133.163 249.507 134.832 250.261 136.669C251.015 138.506 251.397 140.475 251.384 142.46C251.372 144.446 250.965 146.41 250.187 148.237C249.41 150.064 248.278 151.719 246.856 153.105Z" fill="#5893E0"/></svg>
