<svg width="20" height="20" viewBox="0 0 20 20" fill="none" xmlns="http://www.w3.org/2000/svg">
<path d="M1.66699 10.0002C1.66699 6.85747 1.66699 5.28612 2.6433 4.30981C3.61961 3.3335 5.19096 3.3335 8.33366 3.3335H11.667C14.8097 3.3335 16.381 3.3335 17.3573 4.30981C18.3337 5.28612 18.3337 6.85747 18.3337 10.0002C18.3337 13.1429 18.3337 14.7142 17.3573 15.6905C16.381 16.6668 14.8097 16.6668 11.667 16.6668H8.33366C5.19096 16.6668 3.61961 16.6668 2.6433 15.6905C1.66699 14.7142 1.66699 13.1429 1.66699 10.0002Z" stroke="currentColor"/>
<path d="M5 6.6665L6.79908 8.16574C8.32961 9.44118 9.09488 10.0789 10 10.0789C10.9051 10.0789 11.6704 9.44118 13.2009 8.16574L15 6.6665" stroke="currentColor" stroke-linecap="round"/>
</svg>
