<svg width="24" height="24" viewBox="0 0 24 24" fill="none" xmlns="http://www.w3.org/2000/svg">
<circle cx="11" cy="11" r="7" stroke="currentColor" stroke-width="1.5"/>
<path d="M20 20L17.5 17.5" stroke="currentColor" stroke-width="1.5" stroke-linecap="round"/>
<path d="M11 8.5C9.61929 8.5 8.5 9.61929 8.5 11V12.5C8.5 13.8807 9.61929 15 11 15C12.3807 15 13.5 13.8807 13.5 12.5V11C13.5 9.61929 12.3807 8.5 11 8.5Z" stroke="currentColor" stroke-width="1.5"/>
<path d="M8.5 11.5H7" stroke="currentColor" stroke-width="1.5" stroke-linecap="round"/>
<path d="M15 11.5H13.5" stroke="currentColor" stroke-width="1.5" stroke-linecap="round"/>
<path d="M11 8.5V7" stroke="currentColor" stroke-width="1.5" stroke-linecap="round"/>
<path d="M9 9L8 8" stroke="currentColor" stroke-width="1.5" stroke-linecap="round"/>
<path d="M13 9L14 8" stroke="currentColor" stroke-width="1.5" stroke-linecap="round"/>
<path d="M9 13.5L8 14.5" stroke="currentColor" stroke-width="1.5" stroke-linecap="round"/>
<path d="M13 13.5L14 14.5" stroke="currentColor" stroke-width="1.5" stroke-linecap="round"/>
</svg>
