<svg width="86" height="86" viewBox="0 0 86 86" fill="none" xmlns="http://www.w3.org/2000/svg">
<g clip-path="url(#clip0_1932_2975)">
<path d="M31.7904 17.8606C33.3764 16.0254 34.1693 15.1079 35.0532 14.5055C37.0976 13.1122 39.6625 12.7183 42.0307 13.4341C43.0547 13.7436 44.0864 14.381 46.1499 15.6559C46.9711 16.1632 47.3818 16.4169 47.8095 16.6173C48.7899 17.0767 49.8518 17.3369 50.9336 17.383C51.4055 17.4031 51.8869 17.368 52.8497 17.2979C55.2688 17.1217 56.4783 17.0335 57.5293 17.2326C59.9601 17.693 62.0522 19.2282 63.2207 21.4089C63.7259 22.3517 64.0047 23.532 64.5623 25.8926C64.7843 26.8321 64.8953 27.3018 65.056 27.7459C65.4245 28.764 65.9913 29.6989 66.7237 30.4964C67.0431 30.8443 67.4083 31.1599 68.1387 31.7911C69.9739 33.3771 70.8915 34.1701 71.4939 35.054C72.8872 37.0984 73.281 39.6633 72.5652 42.0315C72.2558 43.0554 71.6183 44.0871 70.3435 46.1506C69.8361 46.9718 69.5824 47.3825 69.382 47.8102C68.9227 48.7907 68.6624 49.8525 68.6164 50.9343C68.5963 51.4062 68.6313 51.8876 68.7015 52.8504C68.8777 55.2695 68.9658 56.4791 68.7668 57.53C68.3064 59.9608 66.7712 62.053 64.5905 63.2214C63.6476 63.7266 62.4673 64.0054 60.1068 64.5631C59.1673 64.785 58.6975 64.896 58.2534 65.0567C57.2353 65.4252 56.3004 65.992 55.503 66.7244C55.1551 67.0438 54.8394 67.4091 54.2082 68.1395C52.6223 69.9746 51.8293 70.8922 50.9454 71.4946C48.901 72.8879 46.3361 73.2817 43.9679 72.5659C42.944 72.2565 41.9122 71.6191 39.8488 70.3442C39.0275 69.8368 38.6169 69.5831 38.1892 69.3827C37.2087 68.9234 36.1468 68.6632 35.0651 68.6171C34.5932 68.597 34.1118 68.6321 33.149 68.7022C30.7299 68.8784 29.5203 68.9665 28.4693 68.7675C26.0385 68.3071 23.9464 66.7719 22.7779 64.5912C22.2728 63.6483 21.9939 62.4681 21.4363 60.1075C21.2143 59.168 21.1034 58.6983 20.9426 58.2541C20.5741 57.236 20.0073 56.3012 19.275 55.5037C18.9555 55.1558 18.5903 54.8402 17.8599 54.2089C16.0247 52.623 15.1071 51.83 14.5047 50.9461C13.1114 48.9017 12.7176 46.3368 13.4334 43.9686C13.7429 42.9447 14.3803 41.913 15.6551 39.8495C16.1625 39.0282 16.4162 38.6176 16.6166 38.1899C17.0759 37.2094 17.3362 36.1475 17.3823 35.0658C17.4024 34.5939 17.3673 34.1125 17.2972 33.1497C17.1209 30.7306 17.0328 29.521 17.2319 28.47C17.6923 26.0392 19.2275 23.9471 21.4082 22.7787C22.351 22.2735 23.5313 21.9947 25.8918 21.437C26.8313 21.2151 27.3011 21.1041 27.7452 20.9433C28.7633 20.5749 29.6982 20.008 30.4957 19.2757C30.8436 18.9562 31.1592 18.591 31.7904 17.8606Z" fill="#849D54" stroke="#849D54" stroke-width="2"/>
<path d="M29.5499 12.8321C31.453 10.6299 32.4046 9.52884 33.4653 8.80596C35.9185 7.134 38.9964 6.66142 41.8383 7.52036C43.067 7.89173 44.3051 8.65663 46.7812 10.1864C47.7667 10.7953 48.2595 11.0997 48.7728 11.3402C49.9493 11.8914 51.2235 12.2037 52.5216 12.259C53.0879 12.2831 53.6656 12.241 54.821 12.1569C57.7239 11.9454 59.1754 11.8397 60.4365 12.0785C63.3535 12.631 65.8641 14.4732 67.2662 17.0901C67.8724 18.2215 68.207 19.6378 68.8762 22.4705C69.1425 23.5979 69.2757 24.1616 69.4686 24.6945C69.9108 25.9163 70.591 27.0381 71.4698 27.9951C71.8531 28.4126 72.2914 28.7913 73.1679 29.5488C75.3701 31.4519 76.4712 32.4035 77.1941 33.4642C78.866 35.9174 79.3386 38.9953 78.4796 41.8372C78.1083 43.0659 77.3434 44.3039 75.8136 46.7801C75.2047 47.7656 74.9003 48.2584 74.6598 48.7717C74.1086 49.9482 73.7963 51.2224 73.741 52.5205C73.7169 53.0868 73.759 53.6645 73.8431 54.8199C74.0546 57.7228 74.1603 59.1743 73.9215 60.4354C73.369 63.3524 71.5268 65.863 68.9099 67.2651C67.7785 67.8713 66.3622 68.2059 63.5295 68.8751C62.4021 69.1414 61.8384 69.2746 61.3055 69.4675C60.0838 69.9097 58.9619 70.5899 58.0049 71.4687C57.5874 71.852 57.2087 72.2903 56.4512 73.1668C54.5481 75.369 53.5965 76.4701 52.5358 77.193C50.0826 78.8649 47.0047 79.3375 44.1628 78.4785C42.9341 78.1072 41.6961 77.3423 39.2199 75.8125C38.2344 75.2036 37.7416 74.8992 37.2284 74.6587C36.0518 74.1075 34.7776 73.7952 33.4795 73.7399C32.9132 73.7158 32.3355 73.7579 31.1801 73.842C28.2772 74.0535 26.8257 74.1592 25.5646 73.9204C22.6476 73.3679 20.137 71.5257 18.7349 68.9088C18.1287 67.7774 17.7941 66.3611 17.1249 63.5284C16.8586 62.401 16.7254 61.8373 16.5325 61.3044C16.0903 60.0826 15.4101 58.9608 14.5313 58.0038C14.148 57.5863 13.7097 57.2076 12.8333 56.4501C10.631 54.547 9.52994 53.5954 8.80706 52.5347C7.13511 50.0815 6.66253 47.0036 7.52146 44.1617C7.89283 42.933 8.65773 41.695 10.1875 39.2188C10.7964 38.2333 11.1008 37.7405 11.3413 37.2273C11.8925 36.0507 12.2048 34.7765 12.2601 33.4784C12.2842 32.9121 12.2421 32.3344 12.158 31.179C11.9465 28.2761 11.8408 26.8246 12.0796 25.5635C12.6321 22.6465 14.4743 20.1359 17.0912 18.7338C18.2226 18.1276 19.6389 17.793 22.4716 17.1238C23.599 16.8575 24.1627 16.7243 24.6956 16.5314C25.9174 16.0892 27.0392 15.409 27.9962 14.5302C28.4137 14.1469 28.7924 13.7086 29.5499 12.8321Z" stroke="#849D54" stroke-width="2"/>
<path d="M32.7915 46.0929L39.6715 51.1414L52.2927 33.9415" stroke="#F9F9ED" stroke-width="2" stroke-linecap="round" stroke-linejoin="round"/>
</g>
<defs>
<clipPath id="clip0_1932_2975">
<rect width="75" height="75" fill="white" transform="translate(0 11.4466) scale(1.00569) rotate(-8.72906)"/>
</clipPath>
</defs>
</svg>
