<svg preserveAspectRatio="none" width="100%" height="100%" overflow="visible" style="display: block;" viewBox="0 0 21.5013 20.5004" fill="none" xmlns="http://www.w3.org/2000/svg">
<path id="Vector" d="M14.1953 13.4459L13.6649 12.9156V12.9156L14.1953 13.4459ZM14.7013 12.9398L15.2317 13.4701V13.4701L14.7013 12.9398ZM17.3865 12.5857L17.0267 13.2438H17.0267L17.3865 12.5857ZM19.5093 13.7465L19.1495 14.4046L19.5093 13.7465ZM20.1075 17.3844L20.6378 17.9147V17.9147L20.1075 17.3844ZM18.5291 18.9631L17.9987 18.4328V18.4328L18.5291 18.9631ZM17.057 19.7116L17.127 20.4583H17.127L17.057 19.7116ZM6.10045 14.9743L6.63083 14.444L6.10045 14.9743ZM0.753259 4.93679L0.00445288 4.9791L0.00445294 4.9791L0.753259 4.93679ZM7.94729 6.55937L8.47767 7.08965L8.47767 7.08965L7.94729 6.55937ZM8.12143 3.59324L8.72309 3.14546V3.14546L8.12143 3.59324ZM6.72033 1.71067L6.11868 2.15845V2.15845L6.72033 1.71067ZM3.26277 1.39298L3.79315 1.92326V1.92326L3.26277 1.39298ZM1.51877 3.13728L0.988396 2.60699L0.988396 2.60699L1.51877 3.13728ZM9.70907 11.3651L10.2394 10.8348L9.70907 11.3651ZM14.1953 13.4459L14.7257 13.9762L15.2317 13.4701L14.7013 12.9398L14.171 12.4095L13.6649 12.9156L14.1953 13.4459ZM17.3865 12.5857L17.0267 13.2438L19.1495 14.4046L19.5093 13.7465L19.8691 13.0885L17.7463 11.9277L17.3865 12.5857ZM20.1075 17.3844L19.5771 16.8541L17.9987 18.4328L18.5291 18.9631L19.0595 19.4934L20.6378 17.9147L20.1075 17.3844ZM17.057 19.7116L16.987 18.9648C15.3576 19.1176 11.1644 18.9784 6.63083 14.444L6.10045 14.9743L5.57007 15.5046C10.4738 20.4092 15.1355 20.645 17.127 20.4583L17.057 19.7116ZM6.10045 14.9743L6.63083 14.444C2.31404 10.1265 1.59204 6.48695 1.50206 4.89448L0.753259 4.93679L0.00445294 4.9791C0.114807 6.93228 0.987654 10.9214 5.57007 15.5046L6.10045 14.9743ZM7.62861 6.8781L8.15899 7.40839L8.47767 7.08965L7.94729 6.55937L7.41692 6.02908L7.09823 6.34782L7.62861 6.8781ZM8.12143 3.59324L8.72309 3.14546L7.32199 1.26289L6.72033 1.71067L6.11868 2.15845L7.51977 4.04102L8.12143 3.59324ZM3.26277 1.39298L2.7324 0.862694L0.988396 2.60699L1.51877 3.13728L2.04915 3.66756L3.79315 1.92326L3.26277 1.39298ZM7.62861 6.8781C7.09823 6.34782 7.09752 6.34853 7.09681 6.34925C7.09656 6.3495 7.09584 6.35022 7.09535 6.35072C7.09437 6.35171 7.09337 6.35273 7.09235 6.35377C7.09031 6.35585 7.0882 6.35803 7.08601 6.36031C7.08165 6.36488 7.07699 6.36984 7.07207 6.37521C7.06224 6.38595 7.05136 6.39832 7.03966 6.41237C7.01626 6.44046 6.98951 6.47531 6.96129 6.51722C6.90469 6.60124 6.84253 6.71305 6.78962 6.85432C6.68181 7.14212 6.62246 7.52531 6.69635 8.00445C6.84119 8.94351 7.48793 10.2043 9.1787 11.8954L9.70907 11.3651L10.2394 10.8348C8.64688 9.24196 8.25339 8.25927 8.17883 7.77581C8.14303 7.54369 8.17918 7.42087 8.19431 7.38047C8.20286 7.35764 8.20902 7.34981 8.20539 7.3552C8.20364 7.3578 8.19953 7.3636 8.19215 7.37246C8.18845 7.3769 8.18392 7.38211 8.17844 7.3881C8.1757 7.39109 8.17272 7.39428 8.16949 7.39766C8.16787 7.39935 8.16618 7.40109 8.16444 7.40288C8.16356 7.40377 8.16267 7.40468 8.16176 7.4056C8.16131 7.40605 8.16061 7.40675 8.16039 7.40698C8.15969 7.40768 8.15899 7.40839 7.62861 6.8781ZM9.70907 11.3651L9.1787 11.8954C10.8695 13.5864 12.1301 14.2333 13.0691 14.3782C13.5482 14.4521 13.9314 14.3927 14.2192 14.2849C14.3605 14.232 14.4723 14.1698 14.5563 14.1132C14.5982 14.0849 14.633 14.0582 14.6611 14.0348C14.6752 14.0231 14.6875 14.0122 14.6983 14.0024C14.7036 13.9974 14.7086 13.9928 14.7132 13.9884C14.7155 13.9862 14.7176 13.9841 14.7197 13.9821C14.7208 13.9811 14.7218 13.9801 14.7228 13.9791C14.7233 13.9786 14.724 13.9779 14.7242 13.9776C14.725 13.9769 14.7257 13.9762 14.1953 13.4459C13.6649 12.9156 13.6656 12.9149 13.6663 12.9142C13.6665 12.914 13.6672 12.9133 13.6677 12.9128C13.6686 12.9119 13.6695 12.911 13.6704 12.9102C13.6722 12.9084 13.6739 12.9067 13.6756 12.9051C13.679 12.9019 13.6822 12.8989 13.6852 12.8962C13.6912 12.8907 13.6964 12.8861 13.7008 12.8825C13.7097 12.8751 13.7155 12.871 13.7181 12.8692C13.7235 12.8656 13.7157 12.8717 13.6929 12.8803C13.6525 12.8954 13.5298 12.9315 13.2978 12.8957C12.8145 12.8212 11.832 12.4277 10.2394 10.8348L9.70907 11.3651ZM6.72033 1.71067L7.32199 1.26289C6.21844 -0.219893 4.04782 -0.452954 2.7324 0.862695L3.26277 1.39298L3.79315 1.92326C4.42108 1.29523 5.52674 1.36311 6.11868 2.15845L6.72033 1.71067ZM0.753259 4.93679L1.50206 4.89448C1.47829 4.47366 1.67094 4.04583 2.04915 3.66756L1.51877 3.13728L0.988396 2.60699C0.402998 3.19249 -0.0500734 4.014 0.00445288 4.9791L0.753259 4.93679ZM18.5291 18.9631L17.9987 18.4328C17.6833 18.7482 17.3392 18.9318 16.987 18.9648L17.057 19.7116L17.127 20.4583C17.9201 20.3839 18.5721 19.9808 19.0595 19.4934L18.5291 18.9631ZM7.94729 6.55937L8.47767 7.08965C9.53894 6.02819 9.61899 4.34923 8.72309 3.14546L8.12143 3.59324L7.51977 4.04102C7.99373 4.67785 7.92576 5.52015 7.41692 6.02908L7.94729 6.55937ZM19.5093 13.7465L19.1495 14.4046C20.1038 14.9264 20.2648 16.1663 19.5771 16.8541L20.1075 17.3844L20.6378 17.9147C22.0809 16.4714 21.6412 14.0575 19.8691 13.0885L19.5093 13.7465ZM14.7013 12.9398L15.2317 13.4701C15.6858 13.0159 16.4111 12.9072 17.0267 13.2438L17.3865 12.5857L17.7463 11.9277C16.5717 11.2854 15.116 11.4642 14.171 12.4095L14.7013 12.9398Z" fill="var(--stroke-0, #8F8F8F)"/>
</svg>
