<svg width="15" height="15" viewBox="0 0 15 15" fill="none" xmlns="http://www.w3.org/2000/svg">
<g clip-path="url(#clip0_2087_6032)">
<path d="M3.75 11.2392C2.7791 11.2099 2.19999 11.1016 1.79917 10.7008C1.25 10.1517 1.25 9.26777 1.25 7.5C1.25 5.73223 1.25 4.84835 1.79917 4.29917C2.34835 3.75 3.23223 3.75 5 3.75H10C11.7678 3.75 12.6517 3.75 13.2008 4.29917C13.75 4.84835 13.75 5.73223 13.75 7.5C13.75 9.26777 13.75 10.1517 13.2008 10.7008C12.8 11.1016 12.2209 11.2099 11.25 11.2392" stroke="#202020"/>
<path d="M10.7008 1.79917L10.3473 2.15273V2.15273L10.7008 1.79917ZM4.29917 1.79917L4.65273 2.15273L4.65273 2.15273L4.29917 1.79917ZM4.29918 13.2008L4.65273 12.8473H4.65273L4.29918 13.2008ZM11.75 7.5C11.75 7.22386 11.5261 7 11.25 7C10.9739 7 10.75 7.22386 10.75 7.5H11.25H11.75ZM4.25 7.5C4.25 7.22386 4.02614 7 3.75 7C3.47386 7 3.25 7.22386 3.25 7.5H3.75H4.25ZM11.25 10H10.75C10.75 10.898 10.7489 11.5212 10.6858 11.9908C10.6246 12.4459 10.5135 12.6811 10.3473 12.8473L10.7008 13.2008L11.0544 13.5544C11.4374 13.1714 11.6008 12.69 11.6769 12.124C11.7511 11.5724 11.75 10.8697 11.75 10H11.25ZM7.5 13.75V14.25C8.36975 14.25 9.07236 14.2511 9.62401 14.1769C10.19 14.1008 10.6714 13.9374 11.0544 13.5544L10.7008 13.2008L10.3473 12.8473C10.1811 13.0135 9.94591 13.1246 9.49076 13.1858C9.02123 13.2489 8.39802 13.25 7.5 13.25V13.75ZM7.5 1.25V1.75C8.39802 1.75 9.02123 1.75106 9.49076 1.81419C9.94591 1.87538 10.1811 1.98653 10.3473 2.15273L10.7008 1.79917L11.0544 1.44562C10.6714 1.06265 10.19 0.899207 9.62401 0.823105C9.07236 0.748938 8.36975 0.75 7.5 0.75V1.25ZM7.5 1.25V0.75C6.63025 0.75 5.92764 0.748938 5.37599 0.823105C4.80996 0.899207 4.32859 1.06265 3.94562 1.44562L4.29917 1.79917L4.65273 2.15273C4.81893 1.98653 5.05409 1.87538 5.50924 1.81419C5.97877 1.75106 6.60198 1.75 7.5 1.75V1.25ZM3.75 10H3.25C3.25 10.8697 3.24894 11.5724 3.32311 12.124C3.39921 12.69 3.56265 13.1714 3.94562 13.5544L4.29918 13.2008L4.65273 12.8473C4.48653 12.6811 4.37538 12.4459 4.31419 11.9908C4.25106 11.5212 4.25 10.898 4.25 10H3.75ZM7.5 13.75V13.25C6.60198 13.25 5.97877 13.2489 5.50924 13.1858C5.0541 13.1246 4.81893 13.0135 4.65273 12.8473L4.29918 13.2008L3.94562 13.5544C4.32859 13.9374 4.80996 14.1008 5.37599 14.1769C5.92764 14.2511 6.63025 14.25 7.5 14.25V13.75ZM11.2392 3.75L11.7389 3.73494C11.7099 2.77153 11.609 2.00025 11.0544 1.44562L10.7008 1.79917L10.3473 2.15273C10.5943 2.39973 10.7099 2.78666 10.7394 3.76506L11.2392 3.75ZM3.76083 3.75L4.2606 3.76506C4.29008 2.78666 4.40573 2.39973 4.65273 2.15273L4.29917 1.79917L3.94562 1.44562C3.391 2.00025 3.29008 2.77153 3.26105 3.73494L3.76083 3.75ZM11.25 10H11.75V7.5H11.25H10.75V10H11.25ZM3.75 10H4.25V7.5H3.75H3.25V10H3.75Z" fill="#202020"/>
<path d="M12.1875 7.77734C11.1705 7.32074 9.63216 6.87541 7.5 6.87541C5.36783 6.87541 3.82945 7.32074 2.8125 7.77734" stroke="#202020" stroke-linecap="round"/>
</g>
<defs>
<clipPath id="clip0_2087_6032">
<rect width="15" height="15" fill="white"/>
</clipPath>
</defs>
</svg>
