<svg width="20" height="20" viewBox="0 0 20 20" fill="none" xmlns="http://www.w3.org/2000/svg">
<path d="M4.16699 12.4998H5.32903C5.98399 12.4998 6.31147 12.4998 6.58783 12.6477C6.8642 12.7956 7.04585 13.0681 7.40916 13.613L7.54232 13.8128C7.89454 14.3411 8.07065 14.6052 8.30938 14.5911C8.54812 14.5769 8.69172 14.2937 8.97892 13.7274L10.6173 10.4968C10.9159 9.90799 11.0652 9.61357 11.3095 9.60376C11.5539 9.59396 11.7263 9.87547 12.0711 10.4385L12.6022 11.3055C12.9596 11.8891 13.1383 12.1809 13.423 12.3403C13.7076 12.4998 14.0498 12.4998 14.7341 12.4998H15.8337" stroke="currentColor" stroke-linecap="round"/>
<path d="M1.66699 9.99984C1.66699 6.07147 1.66699 4.10728 2.88738 2.88689C4.10777 1.6665 6.07195 1.6665 10.0003 1.6665C13.9287 1.6665 15.8929 1.6665 17.1133 2.88689C18.3337 4.10728 18.3337 6.07147 18.3337 9.99984C18.3337 13.9282 18.3337 15.8924 17.1133 17.1128C15.8929 18.3332 13.9287 18.3332 10.0003 18.3332C6.07195 18.3332 4.10777 18.3332 2.88738 17.1128C1.66699 15.8924 1.66699 13.9282 1.66699 9.99984Z" stroke="currentColor"/>
</svg>
