<svg width="24" height="24" viewBox="0 0 360 360" fill="none" xmlns="http://www.w3.org/2000/svg"><path d="M287.999 1H72.0004C57.6788 1 43.9438 6.68924 33.8169 16.8162C23.6899 26.9431 18.0007 40.6781 18.0007 54.9997V321.398C17.9875 327.483 19.5167 333.472 22.4456 338.805C25.3744 344.139 29.6073 348.643 34.7488 351.896C39.8903 355.15 45.7727 357.048 51.8464 357.412C57.9201 357.776 63.9871 356.595 69.4805 353.978C73.8004 351.818 77.5804 349.478 81.5404 347.138C89.1565 341.42 98.4794 338.439 108 338.678C117.576 338.441 126.956 341.419 134.64 347.138C147.932 356.402 163.8 361.251 180 360.998C196.201 361.263 212.074 356.414 225.36 347.138C233.038 341.407 242.422 338.427 252 338.678C261.524 338.411 270.857 341.394 278.459 347.138C282.358 349.571 286.384 351.794 290.519 353.798C295.999 356.408 302.05 357.59 308.109 357.235C314.168 356.879 320.038 354.997 325.175 351.764C330.312 348.532 334.548 344.052 337.489 338.743C340.431 333.434 341.982 327.468 341.999 321.398V54.9997C341.999 40.6781 336.31 26.9431 326.183 16.8162C316.056 6.68924 302.321 1 287.999 1ZM180 252.999H108C103.226 252.999 98.648 251.102 95.2724 247.727C91.8968 244.351 90.0004 239.773 90.0004 234.999C90.0004 230.225 91.8968 225.647 95.2724 222.271C98.648 218.895 103.226 216.999 108 216.999H180C184.774 216.999 189.352 218.895 192.728 222.271C196.103 225.647 198 230.225 198 234.999C198 239.773 196.103 244.351 192.728 247.727C189.352 251.102 184.774 252.999 180 252.999ZM252 180.999H108C103.226 180.999 98.648 179.103 95.2724 175.727C91.8968 172.351 90.0004 167.773 90.0004 162.999C90.0004 158.225 91.8968 153.647 95.2724 150.271C98.648 146.896 103.226 144.999 108 144.999H252C256.773 144.999 261.352 146.896 264.727 150.271C268.103 153.647 269.999 158.225 269.999 162.999C269.999 167.773 268.103 172.351 264.727 175.727C261.352 179.103 256.773 180.999 252 180.999ZM252 108.999H108C103.226 108.999 98.648 107.103 95.2724 103.727C91.8968 100.352 90.0004 95.7734 90.0004 90.9996C90.0004 86.2257 91.8968 81.6474 95.2724 78.2717C98.648 74.8961 103.226 72.9997 108 72.9997H252C256.773 72.9997 261.352 74.8961 264.727 78.2717C268.103 81.6474 269.999 86.2257 269.999 90.9996C269.999 95.7734 268.103 100.352 264.727 103.727C261.352 107.103 256.773 108.999 252 108.999Z" fill="#E48647"/></svg>
