<svg width="24" height="24" viewBox="0 0 360 360" fill="none" xmlns="http://www.w3.org/2000/svg"><path d="M266.002 37.6633H93.9977C82.5931 37.6633 71.6556 42.1938 63.5914 50.2581C55.5271 58.3223 50.9966 69.2598 50.9966 80.6644V292.803C50.9861 297.648 52.2039 302.417 54.5362 306.664C56.8685 310.911 60.2392 314.498 64.3335 317.089C68.4278 319.68 73.112 321.191 77.9487 321.481C82.7853 321.771 87.6165 320.831 91.991 318.747C95.4311 317.027 98.4412 315.164 101.595 313.3C107.659 308.747 115.083 306.373 122.665 306.563C130.291 306.374 137.76 308.746 143.879 313.3C154.463 320.677 167.1 324.539 180 324.337C192.901 324.548 205.541 320.686 216.121 313.3C222.235 308.736 229.708 306.363 237.335 306.563C244.92 306.35 252.351 308.726 258.405 313.3C261.51 315.237 264.716 317.008 268.009 318.604C272.372 320.682 277.191 321.623 282.015 321.34C286.84 321.057 291.515 319.559 295.606 316.984C299.696 314.41 303.069 310.843 305.412 306.615C307.754 302.388 308.99 297.636 309.003 292.803V80.6644C309.003 69.2598 304.473 58.3223 296.408 50.2581C288.344 42.1938 277.407 37.6633 266.002 37.6633ZM180 238.335H122.665C118.864 238.335 115.218 236.825 112.53 234.137C109.842 231.449 108.331 227.803 108.331 224.001C108.331 220.2 109.842 216.554 112.53 213.866C115.218 211.178 118.864 209.668 122.665 209.668H180C183.801 209.668 187.447 211.178 190.135 213.866C192.823 216.554 194.334 220.2 194.334 224.001C194.334 227.803 192.823 231.449 190.135 234.137C187.447 236.825 183.801 238.335 180 238.335ZM237.335 181H122.665C118.864 181 115.218 179.49 112.53 176.802C109.842 174.114 108.331 170.468 108.331 166.667C108.331 162.865 109.842 159.219 112.53 156.531C115.218 153.843 118.864 152.333 122.665 152.333H237.335C241.136 152.333 244.782 153.843 247.47 156.531C250.158 159.219 251.668 162.865 251.668 166.667C251.668 170.468 250.158 174.114 247.47 176.802C244.782 179.49 241.136 181 237.335 181ZM237.335 123.666H122.665C118.864 123.666 115.218 122.155 112.53 119.467C109.842 116.779 108.331 113.133 108.331 109.332C108.331 105.53 109.842 101.884 112.53 99.1964C115.218 96.5083 118.864 94.9981 122.665 94.9981H237.335C241.136 94.9981 244.782 96.5083 247.47 99.1964C250.158 101.884 251.668 105.53 251.668 109.332C251.668 113.133 250.158 116.779 247.47 119.467C244.782 122.155 241.136 123.666 237.335 123.666Z" fill="#E48647"/><path d="M317.813 29.4014L37.8644 341.652" stroke="#AE561A" stroke-width="34" stroke-linecap="round"/></svg>
