<svg width="20" height="20" viewBox="0 0 20 20" fill="none" xmlns="http://www.w3.org/2000/svg">
<path d="M1.66699 9.99984C1.66699 14.6022 5.39795 18.3332 10.0003 18.3332C14.6027 18.3332 18.3337 14.6022 18.3337 9.99984C18.3337 5.39746 14.6027 1.6665 10.0003 1.6665C5.39795 1.6665 1.66699 5.39746 1.66699 9.99984Z" stroke="currentColor" stroke-width="1.25"/>
<path d="M9.16674 6.72601L6.48212 8.6436C5.55153 9.3083 5.55153 10.6913 6.48212 11.356L9.16674 13.2736M13.7501 12.5472V7.45248C13.7501 6.77467 12.9839 6.3804 12.4324 6.77437L8.86609 9.32171C8.4008 9.65406 8.4008 10.3456 8.86609 10.6779L12.4324 13.2253C12.9839 13.6192 13.7501 13.225 13.7501 12.5472Z" stroke="currentColor" stroke-width="1.25" stroke-linecap="round"/>
</svg>
