<svg width="24" height="24" viewBox="0 0 360 360" fill="none" xmlns="http://www.w3.org/2000/svg"><path d="M327.081 161.102V140.491C327.081 101.803 298.152 69.225 259.734 64.6515C240.747 62.3911 221.602 67.3353 206.083 78.5072L179.156 97.8923C173.865 101.701 168.891 105.93 164.282 110.54L106.055 168.767C75.7269 199.095 69.5501 246.012 90.9952 283.156C107.923 312.476 139.207 330.537 173.062 330.537H258.273C284.987 330.537 308.278 312.37 314.782 286.46L320.775 262.585C322.88 254.197 329.829 247.902 338.383 246.632L341.93 246.105C352.06 244.6 358.886 234.945 356.926 224.893C356.324 221.807 354.923 218.934 352.863 216.559L343.944 206.276C333.068 193.739 327.081 177.699 327.081 161.102Z" fill="#ECA66D"/><path d="M242.824 152.818L260.972 116.738C267.502 103.757 280.791 95.5654 295.322 95.5654C331.193 95.5654 344.346 48.373 313.653 29.8067C305.266 24.733 295.256 23.0535 285.672 25.1126L258.165 31.0224C247.443 33.3261 236.435 34.0035 225.511 33.032L195.63 30.3743C118.784 23.5396 52.6184 84.0813 52.6184 161.23L52.6184 245.102C52.6184 262.11 66.4068 275.899 83.4157 275.899L122.949 275.899C155.136 275.899 177.689 244.123 167.066 213.739L158.092 188.071C152.439 171.904 170.752 157.932 184.852 167.654C204.675 181.323 232.004 174.329 242.824 152.818Z" fill="#202020"/><rect x="301.029" y="175.653" width="9.25888" height="28.8876" rx="4.62944" fill="#202020"/><path d="M14.5455 226.324L53.3635 190.157H159.172L188.326 244.252C198.991 264.042 183.468 287.775 161.063 285.935L31.5416 275.296C7.0123 273.281 -3.46165 243.102 14.5455 226.324Z" fill="#202020"/></svg>
