<svg width="24" height="24" viewBox="0 0 360 360" fill="none" xmlns="http://www.w3.org/2000/svg"><path d="M304.084 151.769C300.387 149.288 297.049 146.31 294.161 142.92C294.376 138.2 295.324 133.543 296.974 129.115C300.073 118.621 303.934 105.561 296.494 95.3419C289 85.0411 275.309 84.6955 264.311 84.4141C259.684 84.5989 255.055 84.1014 250.574 82.9375C248.11 79.0721 246.228 74.865 244.99 70.4515C241.32 60.0001 236.748 46.9921 224.505 43.0135C212.625 39.1525 201.964 46.4881 192.563 52.9393C188.785 55.9556 184.543 58.3401 180.003 60.0001C175.46 58.3418 171.217 55.9572 167.438 52.9393C158.036 46.4827 147.372 39.1699 135.495 43.0135C123.255 46.9921 118.685 59.9935 115.011 70.4473C113.775 74.839 111.914 79.0302 109.486 82.8925C104.99 84.0919 100.338 84.6037 95.6891 84.4105C84.6911 84.6913 71.0009 85.0375 63.5069 95.3377C56.0669 105.563 59.9267 118.623 63.0269 129.118C64.6568 133.522 65.6137 138.146 65.8655 142.835C62.9915 146.273 59.6401 149.282 55.9133 151.77C47.0399 158.537 35.9999 166.963 35.9999 180C35.9999 193.037 47.0399 201.463 55.9157 208.231C59.6126 210.713 62.9514 213.69 65.8385 217.08C65.6243 221.8 64.6755 226.457 63.0263 230.885C59.9267 241.379 56.0663 254.44 63.5063 264.658C71.0003 274.959 84.6905 275.305 95.6891 275.586C100.316 275.401 104.944 275.899 109.426 277.063C111.89 280.928 113.772 285.135 115.01 289.549C118.684 300.002 123.254 313.009 135.497 316.988C137.666 317.699 139.935 318.061 142.217 318.061C151.432 318.061 159.845 312.277 167.44 307.063C171.217 304.045 175.459 301.66 180 300C184.543 301.658 188.787 304.043 192.566 307.061C201.967 313.517 212.628 320.824 224.508 316.987C236.748 313.008 241.318 300.007 244.992 289.553C246.228 285.161 248.089 280.97 250.517 277.108C255.013 275.908 259.665 275.396 264.314 275.59C275.312 275.309 289.002 274.963 296.496 264.662C303.936 254.438 300.076 241.377 296.976 230.882C295.346 226.479 294.389 221.854 294.137 217.165C297.011 213.727 300.363 210.718 304.09 208.23C312.96 201.463 324 193.037 324 180C324 166.963 312.96 158.537 304.084 151.769ZM233.485 158.485L173.485 218.485C172.37 219.599 171.048 220.483 169.592 221.086C168.136 221.689 166.576 222 165 222C163.424 222 161.864 221.689 160.408 221.086C158.952 220.483 157.629 219.599 156.515 218.485L126.515 188.485C125.378 187.376 124.472 186.052 123.85 184.59C123.228 183.128 122.903 181.557 122.893 179.969C122.883 178.38 123.188 176.805 123.791 175.335C124.395 173.866 125.284 172.531 126.407 171.407C127.53 170.284 128.866 169.395 130.335 168.791C131.805 168.188 133.38 167.883 134.968 167.893C136.557 167.903 138.128 168.228 139.59 168.85C141.052 169.472 142.376 170.378 143.485 171.515L165 193.031L216.515 141.515C217.624 140.378 218.948 139.472 220.41 138.85C221.872 138.228 223.443 137.903 225.031 137.893C226.62 137.883 228.195 138.188 229.665 138.791C231.134 139.395 232.469 140.284 233.593 141.407C234.716 142.531 235.605 143.866 236.209 145.335C236.812 146.805 237.117 148.38 237.107 149.969C237.097 151.557 236.772 153.128 236.15 154.59C235.528 156.052 234.622 157.376 233.485 158.485Z" fill="#6C8145"/></svg>
