<svg width="24" height="24" viewBox="0 0 360 360" fill="none" xmlns="http://www.w3.org/2000/svg"><path d="M335.105 144.711C330.484 141.609 326.311 137.887 322.702 133.65C322.97 127.75 324.156 121.928 326.217 116.394C330.092 103.276 334.917 86.9509 325.617 74.1769C316.249 61.3009 299.137 60.8689 285.388 60.5171C279.605 60.7482 273.819 60.1263 268.217 58.6714C265.137 53.8397 262.785 48.5808 261.237 43.0639C256.65 29.9996 250.935 13.7396 235.631 8.76636C220.781 3.94011 207.454 13.1096 195.703 21.1736C190.981 24.9441 185.679 27.9247 180.004 29.9996C174.325 27.9268 169.021 24.9461 164.297 21.1736C152.545 13.1029 139.215 3.96186 124.369 8.76636C109.069 13.7396 103.356 29.9914 98.7637 43.0586C97.2187 48.5483 94.8927 53.7874 91.8569 58.6151C86.2371 60.1145 80.4227 60.7542 74.6114 60.5126C60.8639 60.8636 43.7511 61.2964 34.3836 74.1716C25.0836 86.9531 29.9084 103.278 33.7836 116.397C35.8209 121.901 37.0171 127.682 37.3319 133.543C33.7393 137.841 29.5501 141.602 24.8916 144.712C13.7999 153.171 -0.00012207 163.703 -0.00012207 180C-0.00012207 196.296 13.7999 206.828 24.8946 215.288C29.5157 218.39 33.6892 222.112 37.2981 226.35C37.0303 232.249 35.8443 238.071 33.7829 243.606C29.9084 256.723 25.0829 273.049 34.3829 285.822C43.7504 298.698 60.8632 299.13 74.6114 299.482C80.3947 299.251 86.1806 299.873 91.7827 301.328C94.8628 306.16 97.2148 311.419 98.7629 316.935C103.355 330.002 109.068 346.261 124.372 351.235C127.083 352.124 129.918 352.576 132.772 352.576C144.289 352.576 154.807 345.346 164.299 338.828C169.022 335.056 174.324 332.075 180 330C185.679 332.073 190.983 335.053 195.707 338.826C207.458 346.896 220.785 356.03 235.635 351.233C250.935 346.26 256.648 330.008 261.24 316.941C262.785 311.451 265.111 306.212 268.147 301.384C273.766 299.885 279.581 299.245 285.392 299.487C299.14 299.136 316.253 298.703 325.62 285.828C334.92 273.047 330.095 256.721 326.22 243.603C324.183 238.098 322.987 232.317 322.672 226.456C326.264 222.159 330.454 218.398 335.112 215.287C346.2 206.828 360 196.296 360 180C360 163.703 346.2 153.171 335.105 144.711ZM246.856 153.105L171.856 228.105C170.463 229.499 168.81 230.604 166.99 231.358C165.17 232.111 163.22 232.5 161.25 232.5C159.28 232.5 157.33 232.111 155.51 231.358C153.69 230.604 152.037 229.499 150.644 228.105L113.144 190.605C111.722 189.219 110.59 187.564 109.812 185.737C109.035 183.91 108.628 181.946 108.616 179.96C108.603 177.975 108.985 176.006 109.739 174.169C110.493 172.332 111.605 170.663 113.009 169.259C114.413 167.854 116.082 166.743 117.919 165.989C119.756 165.235 121.725 164.853 123.711 164.866C125.696 164.878 127.66 165.285 129.487 166.062C131.315 166.84 132.969 167.972 134.356 169.394L161.25 196.289L225.644 131.894C227.03 130.472 228.685 129.34 230.513 128.562C232.34 127.785 234.304 127.378 236.289 127.366C238.275 127.353 240.244 127.735 242.081 128.489C243.918 129.243 245.587 130.354 246.991 131.759C248.395 133.163 249.507 134.832 250.261 136.669C251.015 138.506 251.397 140.475 251.384 142.46C251.372 144.446 250.965 146.41 250.187 148.237C249.41 150.064 248.278 151.719 246.856 153.105Z" fill="#1FC16B"/></svg>
