<svg width="24" height="24" viewBox="0 0 360 360" fill="none" xmlns="http://www.w3.org/2000/svg"><path d="M303.614 309.795V103.771C303.614 96.9441 298.08 91.4097 291.253 91.4097H68.747C61.92 91.4097 56.3856 96.9441 56.3856 103.771V309.795C56.3856 332.458 74.9277 351 97.5904 351H262.41C285.072 351 303.614 332.458 303.614 309.795Z" fill="#FB3748"/><path d="M48.1446 29.6024H311.855C318.682 29.6024 324.217 35.1368 324.217 41.9639V58.4458C324.217 65.2728 318.682 70.8072 311.855 70.8072H48.1446C41.3175 70.8072 35.7831 65.2728 35.7831 58.4458V41.9639C35.7831 35.1368 41.3175 29.6024 48.1446 29.6024Z" fill="#FB3748"/><path d="M283.012 70.8072L224.825 12.6206C222.507 10.3024 219.363 9 216.085 9H143.915C140.637 9 137.493 10.3024 135.175 12.6206L76.988 70.8072H283.012Z" fill="#FB3748"/></svg>
