<svg width="24" height="24" viewBox="0 0 360 360" fill="none" xmlns="http://www.w3.org/2000/svg"><path d="M303.614 309.795V103.771C303.614 96.9441 298.08 91.4097 291.253 91.4097H68.747C61.92 91.4097 56.3856 96.9441 56.3856 103.771V309.795C56.3856 332.458 74.9277 351 97.5904 351H262.41C285.072 351 303.614 332.458 303.614 309.795Z" fill="#FB3748"/><path d="M48.1446 29.6024H311.855C318.682 29.6024 324.217 35.1368 324.217 41.9639V58.4458C324.217 65.2728 318.682 70.8072 311.855 70.8072H48.1446C41.3175 70.8072 35.7831 65.2728 35.7831 58.4458V41.9639C35.7831 35.1368 41.3175 29.6024 48.1446 29.6024Z" fill="#FB3748"/><path d="M283.012 70.8072L224.825 12.6206C222.507 10.3024 219.363 9 216.085 9H143.915C140.637 9 137.493 10.3024 135.175 12.6206L76.988 70.8072H283.012Z" fill="#FB3748"/><path d="M205.308 180L249.546 224.238C251.114 225.812 251.995 227.944 251.995 230.166C251.995 232.388 251.114 234.52 249.546 236.094L236.094 249.546C234.52 251.114 232.388 251.995 230.166 251.995C227.944 251.995 225.812 251.114 224.238 249.546L180 205.308L135.762 249.546C134.188 251.114 132.056 251.995 129.834 251.995C127.612 251.995 125.48 251.114 123.906 249.546L110.454 236.094C108.886 234.52 108.005 232.388 108.005 230.166C108.005 227.944 108.886 225.812 110.454 224.238L154.692 180L110.454 135.762C108.886 134.188 108.005 132.056 108.005 129.834C108.005 127.612 108.886 125.48 110.454 123.906L123.906 110.454C125.48 108.886 127.612 108.005 129.834 108.005C132.056 108.005 134.188 108.886 135.762 110.454L180 154.692L224.238 110.454C225.812 108.886 227.944 108.005 230.166 108.005C232.388 108.005 234.52 108.886 236.094 110.454L249.546 123.906C251.114 125.48 251.995 127.612 251.995 129.834C251.995 132.056 251.114 134.188 249.546 135.762L205.308 180Z" fill="white"/></svg>
