<svg width="20" height="20" viewBox="0 0 20 20" fill="none" xmlns="http://www.w3.org/2000/svg">
<path d="M1.66699 9.5835C1.66699 6.84393 1.66699 5.47414 2.42362 4.55219C2.56214 4.3834 2.7169 4.22864 2.88568 4.09013C3.80764 3.3335 5.17742 3.3335 7.91699 3.3335C10.6566 3.3335 12.0263 3.3335 12.9483 4.09013C13.1171 4.22864 13.2718 4.3834 13.4104 4.55219C14.167 5.47414 14.167 6.84393 14.167 9.5835V10.4168C14.167 13.1564 14.167 14.5262 13.4104 15.4481C13.2718 15.6169 13.1171 15.7717 12.9483 15.9102C12.0263 16.6668 10.6566 16.6668 7.91699 16.6668C5.17742 16.6668 3.80764 16.6668 2.88568 15.9102C2.7169 15.7717 2.56214 15.6169 2.42362 15.4481C1.66699 14.5262 1.66699 13.1564 1.66699 10.4168V9.5835Z" stroke="currentColor" stroke-width="1.25"/>
<path d="M14.167 7.91666L14.7156 7.64235C16.3372 6.83156 17.148 6.42617 17.7408 6.79256C18.3337 7.15895 18.3337 8.06544 18.3337 9.87842V10.1216C18.3337 11.9346 18.3337 12.841 17.7408 13.2074C17.148 13.5738 16.3372 13.1684 14.7156 12.3576L14.167 12.0833V7.91666Z" stroke="currentColor" stroke-width="1.25"/>
</svg>
