<svg width="20" height="20" viewBox="0 0 20 20" fill="none" xmlns="http://www.w3.org/2000/svg">
<path d="M7.5 3.75H6.66667C4.70248 3.75 3.72039 3.75 3.11019 4.36019C2.5 4.97039 2.5 5.95248 2.5 7.91667V12.0833C2.5 14.0475 2.5 15.0296 3.11019 15.6398C3.72039 16.25 4.70248 16.25 6.66667 16.25H7.5" stroke="currentColor"/>
<path d="M7.5 5.39684C7.5 3.48533 7.5 2.52958 8.08938 2.00708C8.67875 1.48459 9.57961 1.64172 11.3813 1.95597L13.322 2.29445C15.3174 2.64248 16.3151 2.8165 16.9075 3.54838C17.5 4.28027 17.5 5.33877 17.5 7.45576V12.5439C17.5 14.6609 17.5 15.7194 16.9075 16.4513C16.3151 17.1832 15.3174 17.3572 13.322 17.7052L11.3813 18.0437C9.57961 18.358 8.67875 18.5151 8.08938 17.9926C7.5 17.4701 7.5 16.5143 7.5 14.6028V5.39684Z" stroke="currentColor"/>
<path d="M10 9.1665V10.8332" stroke="currentColor" stroke-linecap="round"/>
</svg>
