<svg width="24" height="24" viewBox="0 0 360 360" fill="none" xmlns="http://www.w3.org/2000/svg"><path d="M318.243 245.84L217.344 71.0762C200.864 42.2057 159.188 42.2057 142.767 71.0762L41.8091 245.84C25.3286 274.711 45.8403 310.577 79.0977 310.577H280.598C313.856 310.577 334.723 274.355 318.243 245.84ZM179.996 271.806C171.222 271.806 163.931 264.514 163.931 255.741C163.931 246.967 171.222 239.675 179.996 239.675C188.77 239.675 196.062 246.967 195.706 256.156C196.121 264.514 188.414 271.806 179.996 271.806ZM194.639 167.944C193.928 180.393 193.157 192.783 192.445 205.232C192.09 209.263 192.09 212.939 192.09 216.911C191.734 223.491 186.576 228.589 179.996 228.589C173.416 228.589 168.318 223.847 167.903 217.266C166.835 197.881 165.709 178.851 164.642 159.466C164.286 154.368 163.931 149.21 163.516 144.112C163.516 135.694 168.258 128.758 175.965 126.564C183.672 124.727 191.319 128.402 194.639 135.694C195.765 138.243 196.121 140.792 196.121 143.756C195.765 151.878 194.995 159.94 194.639 167.944Z" fill="#DFB400"/></svg>
