<svg width="24" height="24" viewBox="0 0 360 360" fill="none" xmlns="http://www.w3.org/2000/svg"><path d="M352.803 262.301L226.68 43.8453C206.079 7.75715 153.985 7.75715 133.459 43.8453L7.26133 262.301C-13.3393 298.389 12.3003 343.221 53.872 343.221H305.748C347.319 343.221 373.404 297.944 352.803 262.301ZM179.995 294.758C169.028 294.758 159.913 285.643 159.913 274.676C159.913 263.709 169.028 254.594 179.995 254.594C190.962 254.594 200.077 263.709 199.632 275.195C200.151 285.643 190.518 294.758 179.995 294.758ZM198.299 164.929C197.409 180.491 196.446 195.978 195.557 211.54C195.112 216.579 195.112 221.173 195.112 226.138C194.668 234.364 188.221 240.737 179.995 240.737C171.77 240.737 165.397 234.808 164.878 226.583C163.544 202.351 162.136 178.564 160.803 154.333C160.358 147.96 159.913 141.513 159.395 135.14C159.395 124.617 165.323 115.947 174.956 113.206C184.59 110.908 194.149 115.503 198.299 124.617C199.707 127.804 200.151 130.99 200.151 134.695C199.707 144.848 198.743 154.925 198.299 164.929Z" fill="#DFB400"/></svg>
