<svg width="303" height="247" viewBox="0 0 303 247" fill="none" xmlns="http://www.w3.org/2000/svg">
<path d="M260.182 90.9593C260.544 92.5318 260.874 94.1166 261.172 95.7125L260.583 95.822C260.879 97.3999 261.142 98.9894 261.374 100.589L261.965 100.503C262.196 102.1 262.396 103.707 262.562 105.325H262.563L261.965 105.386C262.129 106.98 262.261 108.584 262.359 110.196L262.957 110.159C263.055 111.767 263.12 113.383 263.153 115.007L262.555 115.02C262.571 115.826 262.58 116.633 262.58 117.443C262.58 118.253 262.571 119.06 262.555 119.866L263.153 119.878C263.12 121.502 263.055 123.118 262.957 124.726L262.359 124.69C262.261 126.302 262.129 127.906 261.965 129.5L262.562 129.56C262.396 131.178 262.196 132.785 261.965 134.382L261.374 134.297C261.142 135.897 260.879 137.486 260.583 139.064L261.171 139.173C260.873 140.769 260.544 142.354 260.182 143.926L259.597 143.792C259.234 145.365 258.84 146.926 258.415 148.474L258.992 148.632C258.562 150.196 258.1 151.746 257.608 153.284L257.039 153.102C256.547 154.638 256.024 156.16 255.471 157.668L256.035 157.874C255.476 159.397 254.886 160.905 254.267 162.398L253.714 162.168C253.096 163.658 252.448 165.134 251.771 166.592L252.314 166.843C251.631 168.313 250.92 169.767 250.179 171.203L249.646 170.93C248.908 172.362 248.14 173.777 247.345 175.174L247.865 175.471C247.063 176.879 246.234 178.268 245.376 179.639L244.868 179.321C244.013 180.687 243.131 182.034 242.223 183.362L242.716 183.7C241.802 185.036 240.861 186.353 239.893 187.649L239.413 187.291C238.449 188.582 237.459 189.852 236.444 191.1L236.907 191.478C235.886 192.734 234.841 193.97 233.769 195.182L233.32 194.785C232.254 195.992 231.162 197.176 230.048 198.337L230.479 198.752C229.358 199.919 228.214 201.064 227.047 202.184L226.632 201.753C225.47 202.868 224.286 203.959 223.08 205.026L223.477 205.475C222.264 206.546 221.029 207.591 219.772 208.612L219.395 208.149C218.146 209.164 216.876 210.155 215.585 211.119L215.943 211.599C214.648 212.566 213.331 213.507 211.995 214.422L211.656 213.928C210.329 214.837 208.982 215.719 207.616 216.573L207.934 217.081C206.563 217.939 205.173 218.768 203.765 219.57L203.469 219.05C202.072 219.845 200.657 220.613 199.224 221.352L199.498 221.885C198.062 222.625 196.608 223.337 195.138 224.019L194.887 223.477C193.428 224.154 191.953 224.802 190.463 225.419L190.693 225.972C189.2 226.591 187.692 227.181 186.168 227.74L185.963 227.177C184.455 227.73 182.933 228.252 181.396 228.744L181.578 229.313C180.041 229.805 178.491 230.267 176.927 230.697L176.768 230.12C175.22 230.545 173.659 230.94 172.086 231.302L172.22 231.887C170.648 232.249 169.064 232.578 167.468 232.876L167.359 232.289C165.781 232.584 164.191 232.848 162.592 233.079L162.677 233.67C161.08 233.901 159.472 234.101 157.855 234.267L157.794 233.67C156.2 233.834 154.597 233.966 152.984 234.065L153.021 234.662C151.413 234.76 149.797 234.826 148.172 234.859L148.161 234.26C147.355 234.276 146.547 234.286 145.738 234.286C144.928 234.286 144.12 234.276 143.315 234.26L143.302 234.859C141.677 234.825 140.061 234.76 138.454 234.662L138.491 234.065C136.879 233.966 135.275 233.834 133.681 233.67L133.619 234.267C132.002 234.101 130.395 233.901 128.798 233.67L128.884 233.079C127.284 232.848 125.695 232.584 124.118 232.289L124.007 232.877C122.411 232.579 120.826 232.249 119.254 231.887L119.389 231.302C117.816 230.94 116.255 230.545 114.707 230.12L114.548 230.697C112.984 230.267 111.433 229.805 109.896 229.313L110.079 228.744C108.543 228.252 107.02 227.73 105.512 227.177L105.306 227.74C103.783 227.181 102.275 226.591 100.782 225.972L101.012 225.419C99.5224 224.802 98.0477 224.154 96.5896 223.477L96.3364 224.019C94.8664 223.337 93.4125 222.625 91.9762 221.885L92.251 221.352C90.8186 220.613 89.4034 219.845 88.0062 219.05L87.7089 219.57C86.3011 218.768 84.9111 217.939 83.5404 217.081L83.8592 216.573C82.4932 215.719 81.1461 214.837 79.8188 213.928L79.4795 214.422C78.1433 213.507 76.8266 212.566 75.531 211.599L75.8898 211.119C74.599 210.155 73.329 209.164 72.0802 208.149L71.7018 208.612C70.4457 207.591 69.21 206.546 67.9977 205.475L68.3957 205.026C67.189 203.959 66.0047 202.868 64.8432 201.753L64.4276 202.184C63.2602 201.064 62.1159 199.919 60.9954 198.752L61.4276 198.337C60.313 197.176 59.2221 195.991 58.1558 194.785L57.705 195.182C56.6337 193.97 55.5884 192.734 54.5671 191.478L55.0316 191.1C54.0163 189.852 53.026 188.582 52.0619 187.291L51.5808 187.649C50.6132 186.353 49.6724 185.036 48.7578 183.7L49.2526 183.362C48.344 182.034 47.462 180.687 46.6076 179.321L46.0981 179.639C45.2406 178.268 44.4122 176.878 43.6105 175.47L44.1307 175.174C43.3351 173.777 42.5677 172.362 41.8289 170.93L41.295 171.203C40.5542 169.767 39.8429 168.313 39.1604 166.843L39.704 166.592C39.027 165.134 38.379 163.658 37.7611 162.168L37.2076 162.398C36.5885 160.905 35.9983 159.397 35.4397 157.874L36.0039 157.668C35.451 156.16 34.9282 154.638 34.4364 153.102L33.8664 153.284C33.3743 151.746 32.9124 150.196 32.4827 148.632L33.0606 148.474C32.6353 146.926 32.241 145.365 31.8784 143.792L31.2927 143.926C30.9304 142.354 30.6016 140.769 30.3031 139.173L30.8918 139.064C30.5966 137.486 30.3328 135.897 30.1017 134.297L29.5091 134.382C29.2784 132.785 29.0784 131.178 28.9126 129.56L29.5101 129.5C29.3467 127.906 29.2147 126.302 29.116 124.69L28.5176 124.726C28.4193 123.118 28.3541 121.502 28.3211 119.878L28.9205 119.866C28.9041 119.06 28.895 118.253 28.895 117.443C28.895 116.633 28.9041 115.826 28.9205 115.02L28.3211 115.007C28.3541 113.383 28.4192 111.767 28.5176 110.159L29.116 110.196C29.2147 108.584 29.3467 106.98 29.5101 105.386L28.9126 105.325C29.0784 103.707 29.2784 102.1 29.5091 100.503L30.1017 100.589C30.3328 98.9894 30.5966 97.3999 30.8918 95.822L30.3022 95.7125C30.6007 94.1166 30.9303 92.5318 31.2927 90.9593L31.8784 91.0942C32.241 89.5212 32.6353 87.9603 33.0606 86.4123L32.4827 86.2529C32.9124 84.689 33.3743 83.1384 33.8664 81.6014L34.4364 81.7842C34.9282 80.248 35.451 78.7255 36.0039 77.2177L35.4397 77.0114C35.9983 75.4881 36.5885 73.98 37.2076 72.487L37.7611 72.7177C38.3789 71.2278 39.027 69.7531 39.704 68.295L39.1604 68.0417C39.8429 66.5717 40.5542 65.1178 41.295 63.6816L41.8289 63.9563C42.5677 62.5239 43.3351 61.1087 44.1307 59.7115L43.6105 59.4153C44.4122 58.0073 45.2406 56.6166 46.0981 55.2458L46.6076 55.5645C47.462 54.1985 48.344 52.8515 49.2526 51.5241L48.7578 51.1848C49.4207 50.2165 50.097 49.2581 50.7878 48.311L51.5808 47.2363L52.0619 47.5952C53.026 46.3044 54.0163 45.0344 55.0316 43.7855L54.5671 43.4071C55.5884 42.151 56.6337 40.9153 57.705 39.7031L58.1558 40.101C59.2221 38.8944 60.313 37.71 61.4276 36.5486L60.9954 36.133C62.1159 34.9655 63.2602 33.8212 64.4276 32.7008L64.8432 33.133C66.0046 32.0183 67.1891 30.9275 68.3957 29.8611L67.9977 29.4104C69.21 28.339 70.4457 27.2937 71.7018 26.2725L72.0802 26.737C73.329 25.7216 74.599 24.7313 75.8898 23.7673L75.531 23.2862C76.8266 22.3186 78.1433 21.3778 79.4795 20.4632L79.8188 20.958C81.1461 20.0493 82.4932 19.1674 83.8592 18.3129L83.5404 17.8035C84.9112 16.946 86.3019 16.1176 87.7099 15.3158L88.0062 15.836C89.4035 15.0404 90.8194 14.2731 92.252 13.5342L91.9762 13.0003C93.4125 12.2595 94.8664 11.5482 96.3364 10.8657L96.5896 11.4094C98.0477 10.7324 99.5224 10.0843 101.012 9.46643L100.782 8.91297C102.275 8.29384 103.783 7.70361 105.306 7.14505L105.512 7.70926C107.02 7.15638 108.543 6.63355 110.079 6.14179L109.896 5.57171C111.433 5.07966 112.984 4.61779 114.548 4.18807L114.707 4.76597C116.255 4.34064 117.816 3.9463 119.389 3.58377L119.254 2.99804C120.826 2.63562 122.411 2.30607 124.007 2.0075L124.117 2.59713C125.695 2.30194 127.284 2.03812 128.884 1.80704L128.798 1.21447C130.395 0.983735 132.002 0.783774 133.619 0.617992L133.681 1.21545C135.275 1.05206 136.879 0.920038 138.491 0.821382L138.454 0.222947C140.061 0.124583 141.677 0.0594503 143.302 0.0264016L143.315 0.625815C144.12 0.609426 144.928 0.600391 145.738 0.600391C146.547 0.600391 147.355 0.609426 148.161 0.625815L148.172 0.0264016C149.797 0.0594361 151.413 0.124597 153.021 0.222947L152.984 0.821382C154.597 0.920037 156.2 1.05206 157.794 1.21545L157.855 0.617992C159.472 0.783759 161.08 0.983749 162.677 1.21447L162.592 1.80704C164.191 2.03812 165.781 2.30193 167.359 2.59713L167.468 2.00847C169.064 2.30698 170.648 2.63572 172.22 2.99804L172.086 3.58377C173.659 3.9463 175.22 4.34063 176.768 4.76597L176.927 4.18807C178.491 4.61778 180.041 5.07967 181.578 5.57171L181.396 6.14179C182.933 6.63356 184.455 7.15637 185.963 7.70926L186.168 7.14505C187.692 7.7036 189.2 8.29385 190.693 8.91297L190.463 9.46643C191.953 10.0843 193.428 10.7323 194.887 11.4094L195.138 10.8657C196.608 11.5482 198.062 12.2595 199.498 13.0003L199.224 13.5342C200.657 14.273 202.072 15.0405 203.469 15.836L203.764 15.3158C205.172 16.1176 206.563 16.946 207.934 17.8035L207.616 18.3129C208.982 19.1674 210.329 20.0493 211.656 20.958L211.995 20.4632C213.331 21.3778 214.648 22.3186 215.943 23.2862L215.585 23.7673C216.876 24.7313 218.146 25.7216 219.395 26.737L219.772 26.2725C221.029 27.2937 222.264 28.339 223.477 29.4104L223.08 29.8611C224.286 30.9275 225.471 32.0183 226.632 33.133L227.047 32.7008C228.214 33.8212 229.358 34.9655 230.479 36.133L230.048 36.5486C231.162 37.7101 232.254 38.8943 233.32 40.101L233.769 39.7031C234.841 40.9153 235.886 42.151 236.907 43.4071L236.444 43.7855C237.459 45.0344 238.449 46.3044 239.413 47.5952L239.893 47.2363C240.861 48.5319 241.802 49.8487 242.716 51.1848L242.223 51.5241C243.131 52.8515 244.013 54.1986 244.868 55.5645L245.376 55.2458C246.234 56.6165 247.063 58.0064 247.865 59.4143L247.345 59.7115C248.14 61.1089 248.907 62.5247 249.646 63.9573L250.179 63.6816C250.92 65.1178 251.631 66.5717 252.314 68.0417L251.771 68.295C252.448 69.7531 253.096 71.2278 253.714 72.7177L254.267 72.487C254.886 73.98 255.476 75.4881 256.035 77.0114H256.036L255.471 77.2177C256.024 78.7255 256.547 80.248 257.039 81.7842L257.608 81.6014C258.1 83.1385 258.562 84.689 258.992 86.2529L258.415 86.4123C258.84 87.9603 259.234 89.5212 259.597 91.0942L260.182 90.9593Z" stroke="#ECA66D" stroke-width="1.2" stroke-dasharray="4.8 4.8"/>
<circle cx="40.2132" cy="62.06" r="40.2132" fill="#C8D4B0"/>
<circle cx="254.04" cy="126.639" r="48.9602" fill="#ACBF88"/>
<circle cx="171.198" cy="29.3489" r="4.55878" fill="#EDCA99"/>
<circle cx="4.55878" cy="172.801" r="4.55878" fill="#EDCA99"/>
<circle cx="217.862" cy="227.66" r="4.55878" fill="#EDCA99"/>
<circle cx="90.8856" cy="213.628" r="32.7944" fill="#EDCA99"/>
<path d="M149.984 111.683C151.886 114.721 156.17 115.091 158.565 112.424L159.23 111.683" stroke="#CF6F2F" stroke-width="2.1" stroke-linecap="round"/>
<path d="M101.892 111.683C103.795 114.721 108.078 115.091 110.473 112.424L111.138 111.683" stroke="#CF6F2F" stroke-width="2.1" stroke-linecap="round"/>
<path d="M111.137 126.639L113.288 129.416C117.659 135.058 124.396 138.361 131.534 138.361C139.741 138.361 147.332 134.002 151.468 126.913L151.628 126.639" stroke="#CF6F2F" stroke-width="2.1" stroke-linecap="round"/>
</svg>
