<svg width="217" height="217" viewBox="0 0 217 217" fill="none" xmlns="http://www.w3.org/2000/svg"><g clip-path="url(#clip0_328_4650)"><path d="M0 8C0 3.58172 3.58172 0 8 0H209C213.418 0 217 3.58172 217 8V209C217 213.418 213.418 217 209 217H8C3.58172 217 0 213.418 0 209V8Z" fill="#AE561A"/><path d="M135.786 77.1578V71.5404C135.786 60.9959 127.901 52.117 117.43 50.8705C112.255 50.2544 107.038 51.6019 102.808 54.6468L96.0697 59.4977C94.2281 60.8235 92.4965 62.2959 90.892 63.9005L75.5457 79.2467C67.2799 87.5125 65.5965 100.3 71.4413 110.423C76.0549 118.414 84.5812 123.337 93.8084 123.337H117.032C124.313 123.337 130.661 118.385 132.433 111.324L134.067 104.817C134.641 102.531 136.534 100.815 138.866 100.468L139.833 100.325C142.594 99.9149 144.454 97.2834 143.92 94.5437C143.756 93.7027 143.374 92.9195 142.812 92.2723L140.381 89.4697C137.417 86.0527 135.786 81.6812 135.786 77.1578Z" fill="#E48647"/><path d="M78.8566 112.141C100.393 116.546 122.597 133.073 132.766 142.196C134.345 143.613 133.475 146.119 131.369 146.37L115.84 148.223C108.08 149.148 100.213 148.173 92.9142 145.381L84.517 142.169C76.0849 138.943 68.0398 133.71 64.628 125.351C61.067 116.627 62.0683 108.708 78.8566 112.141Z" fill="#F9F9ED"/><path d="M107.331 129.565C143.732 153.101 164.949 196.528 166.976 217H50.0234L56.2609 162.231C59.3407 135.189 84.4755 114.787 107.331 129.565Z" fill="#F9F9ED"/><rect x="128.685" y="81.1238" width="2.52347" height="7.87321" rx="1.26174" fill="#202020"/><path d="M97.5988 38.6904L125.64 39.1709C127.557 39.2038 129.431 39.744 131.071 40.7363L132.128 41.376C140.493 46.4361 136.906 59.2965 127.13 59.2969C123.17 59.2969 119.547 61.5295 117.768 65.0674L112.821 74.9004C109.873 80.7629 102.424 82.6694 97.0216 78.9443C93.1787 76.2945 88.1871 80.1024 89.7277 84.5088L92.174 91.5039C95.0692 99.7849 88.922 108.445 80.1495 108.445H69.3751C64.7395 108.445 60.9816 104.687 60.9816 100.052V74.6846C60.9817 54.561 77.4781 38.3455 97.5988 38.6904Z" fill="#202020"/><path d="M68.5209 133.972C82.0151 138.046 110.684 150.699 117.406 168.726" stroke="#202020" stroke-width="3"/><path d="M133.289 184.13C130.21 175.555 122.513 160.443 116.36 168.586C110.208 176.73 119.555 188.981 124.997 194.089" stroke="#202020" stroke-width="3" stroke-linecap="round"/></g><defs><clipPath id="clip0_328_4650"><path d="M0 8C0 3.58172 3.58172 0 8 0H209C213.418 0 217 3.58172 217 8V209C217 213.418 213.418 217 209 217H8C3.58172 217 0 213.418 0 209V8Z" fill="white"/></clipPath></defs></svg>
