<svg width="83" height="74" viewBox="0 0 83 74" fill="none" xmlns="http://www.w3.org/2000/svg">
<path d="M74.2534 27.2452V21.6278C74.2534 11.0833 66.3687 2.20439 55.8982 0.957906C50.7232 0.341836 45.5054 1.68937 41.2758 4.73423L34.5375 9.58518C32.6958 10.911 30.9643 12.3833 29.3597 13.9879L14.0135 29.3342C5.74769 37.5999 4.06425 50.387 9.90903 60.5104C14.5226 68.5014 23.0489 73.4241 32.2761 73.4241H55.5001C62.7807 73.4241 69.1286 68.4727 70.9012 61.4111L72.5346 54.904C73.1085 52.6179 75.0022 50.9021 77.3337 50.5559L78.3004 50.4123C81.0614 50.0023 82.9217 47.3708 82.3874 44.6311C82.2234 43.7902 81.8416 43.007 81.2802 42.3597L78.8492 39.5572C75.8852 36.1402 74.2534 31.7686 74.2534 27.2452Z" fill="#E48647"/>
</svg>
