<svg width="217" height="217" viewBox="0 0 217 217" fill="none" xmlns="http://www.w3.org/2000/svg"><g clip-path="url(#clip0_328_4668)"><path d="M0 8C0 3.58172 3.58172 0 8 0H209C213.418 0 217 3.58172 217 8V209C217 213.418 213.418 217 209 217H8C3.58172 217 0 213.418 0 209V8Z" fill="#196A7F"/><path d="M135.786 77.1578V71.5404C135.786 60.9959 127.901 52.117 117.43 50.8705C112.255 50.2544 107.038 51.6019 102.808 54.6468L96.0697 59.4977C94.2281 60.8235 92.4965 62.2959 90.892 63.9005L75.5457 79.2467C67.2799 87.5125 65.5965 100.3 71.4413 110.423C76.0549 118.414 84.5812 123.337 93.8084 123.337H117.032C124.313 123.337 130.661 118.385 132.433 111.324L134.067 104.817C134.641 102.531 136.534 100.815 138.866 100.468L139.833 100.325C142.594 99.9149 144.454 97.2834 143.92 94.5437C143.756 93.7027 143.374 92.9195 142.812 92.2723L140.381 89.4697C137.417 86.0527 135.786 81.6812 135.786 77.1578Z" fill="#E48647"/><path d="M78.8566 112.141C100.393 116.546 122.597 133.073 132.766 142.196C134.345 143.613 133.475 146.119 131.369 146.37L115.84 148.223C108.08 149.148 100.213 148.173 92.9142 145.381L84.517 142.169C76.0849 138.943 68.0398 133.71 64.628 125.351C61.067 116.627 62.0683 108.708 78.8566 112.141Z" fill="#C7C7C7"/><path d="M107.331 129.565C143.732 153.101 164.949 196.528 166.976 217H50.0234L56.2609 162.231C59.3407 135.189 84.4755 114.787 107.331 129.565Z" fill="#C7C7C7"/><rect x="128.685" y="81.1238" width="2.52347" height="7.87321" rx="1.26174" fill="#202020"/><path d="M97.599 38.6899L125.64 39.1714C127.557 39.2043 129.43 39.7438 131.071 40.7358L132.128 41.3755C140.494 46.4357 136.906 59.2964 127.129 59.2964C123.169 59.2965 119.547 61.5292 117.768 65.0669L112.822 74.9009C109.873 80.7633 102.424 82.669 97.0219 78.9438C93.1791 76.2941 88.1877 80.1021 89.7279 84.5083L92.1742 91.5044C95.0693 99.7853 88.9222 108.446 80.1498 108.446H69.3754C64.7397 108.446 60.9819 104.688 60.9818 100.052V74.6851C60.9818 54.5613 77.4782 38.3449 97.599 38.6899Z" fill="#202020"/><rect x="109.723" y="168.495" width="27.0813" height="8.44678" rx="2" fill="#196A7F"/></g><defs><clipPath id="clip0_328_4668"><path d="M0 8C0 3.58172 3.58172 0 8 0H209C213.418 0 217 3.58172 217 8V209C217 213.418 213.418 217 209 217H8C3.58172 217 0 213.418 0 209V8Z" fill="white"/></clipPath></defs></svg>
