<svg width="77" height="70" viewBox="0 0 77 70" fill="none" xmlns="http://www.w3.org/2000/svg">
<path d="M36.6172 0.00540474L64.6582 0.485873C66.5749 0.518801 68.4486 1.0592 70.0889 2.0513L71.1465 2.69095C79.5117 7.75114 75.9241 20.6119 66.1475 20.6119C62.1873 20.612 58.5657 22.8446 56.7861 26.3824L51.8398 36.2163C48.8909 42.0787 41.4426 43.9844 36.04 40.2593C32.1972 37.6095 27.2057 41.4175 28.7461 45.8238L31.1924 52.8199C34.0874 61.1007 27.9404 69.7613 19.168 69.7613H8.39355C3.75794 69.7613 0.000146071 66.0033 0 61.3677V36.0005C0 15.8768 16.4964 -0.339601 36.6172 0.00540474Z" fill="#202020"/>
</svg>
