<svg width="83" height="82" viewBox="0 0 83 82" fill="none" xmlns="http://www.w3.org/2000/svg">
<path d="M56.75 0.0073902L71.3125 0.25739C73.2292 0.290319 75.1029 0.830674 76.7432 1.82282L77.8008 2.46247C86.1658 7.52271 82.5783 20.3834 72.8018 20.3834C68.8416 20.3835 65.22 22.6161 63.4404 26.1539L58.4941 35.9869C55.5453 41.8494 48.0969 43.7558 42.6943 40.0308C38.8515 37.381 33.8598 41.1889 35.4004 45.5953L35.5986 46.1627H35.6953L43.8232 65.524C46.9436 72.9564 41.4855 81.1683 33.4248 81.1685H12.7402C12.7184 81.1686 12.6966 81.1695 12.6748 81.1695C12.653 81.1695 12.6312 81.1686 12.6094 81.1685H12.3672V81.1646C5.50936 81.0013 0.00017825 75.3918 0 68.4947C0 63.7742 2.58188 59.6584 6.40918 57.4771L6.6543 51.2916V49.2525C6.6543 21.7213 29.2228 -0.464484 56.75 0.0073902Z" fill="#202020"/>
</svg>
