<svg width="82" height="82" viewBox="0 0 82 82" fill="none" xmlns="http://www.w3.org/2000/svg">
<circle cx="41.0001" cy="41.0001" r="41.0001" fill="#EDCA99"/>
<mask id="mask0_2062_6781" style="mask-type:alpha" maskUnits="userSpaceOnUse" x="0" y="0" width="82" height="82">
<circle cx="41.0001" cy="41.0001" r="41.0001" fill="#F3F3DC"/>
</mask>
<g mask="url(#mask0_2062_6781)">
<path d="M55.2499 38.1425V35.6257C55.2499 30.9013 51.7173 26.9231 47.026 26.3646C44.7073 26.0886 42.3695 26.6924 40.4745 28.0566L37.4554 30.23C36.6303 30.8241 35.8545 31.4837 35.1355 32.2027L28.2597 39.0785C24.5563 42.7819 23.802 48.5111 26.4207 53.0469C28.4878 56.6272 32.308 58.8328 36.4422 58.8328H46.8476C50.1097 58.8328 52.9538 56.6143 53.748 53.4504L54.4799 50.5349C54.737 49.5107 55.5854 48.7419 56.63 48.5868L57.0632 48.5225C58.3002 48.3387 59.1337 47.1597 58.8943 45.9322C58.8209 45.5554 58.6498 45.2045 58.3983 44.9145L57.3091 43.6588C55.981 42.1279 55.2499 40.1692 55.2499 38.1425Z" fill="#E48647"/>
<rect x="52.0691" y="39.9193" width="1.13063" height="3.52755" rx="0.558468" fill="#202020"/>
<path fill-rule="evenodd" clip-rule="evenodd" d="M38.1407 20.9077L50.7049 21.1232C51.5636 21.138 52.4029 21.3806 53.1377 21.8251L53.6112 22.1118C57.3592 24.3789 55.7525 30.1406 51.3722 30.1406C49.598 30.1406 47.9753 31.1408 47.1779 32.7257L44.9616 37.1325C43.6402 39.7589 40.3031 40.6124 37.8827 38.9435C36.1609 37.7563 33.9245 39.4625 34.6146 41.4366L35.7108 44.5713C37.0079 48.2814 34.2536 52.1621 30.3233 52.1622H25.4953C23.4185 52.1621 21.7349 50.4778 21.7349 48.4009V37.0357C21.7349 28.0195 29.1258 20.7533 38.1407 20.9077Z" fill="#202020"/>
</g>
</svg>
