<svg width="217" height="217" viewBox="0 0 217 217" fill="none" xmlns="http://www.w3.org/2000/svg"><g clip-path="url(#clip0_328_4634)"><path d="M0 8C0 3.58172 3.58172 0 8 0H209C213.418 0 217 3.58172 217 8V209C217 213.418 213.418 217 209 217H8C3.58172 217 0 213.418 0 209V8Z" fill="#556536"/><path d="M135.786 77.158V71.5406C135.786 60.9962 127.901 52.1172 117.43 50.8707C112.255 50.2547 107.038 51.6022 102.808 54.647L96.0697 59.498C94.2281 60.8238 92.4965 62.2961 90.892 63.9007L75.5457 79.247C67.2799 87.5128 65.5965 100.3 71.4413 110.423C76.0549 118.414 84.5812 123.337 93.8084 123.337H117.032C124.313 123.337 130.661 118.386 132.433 111.324L134.067 104.817C134.641 102.531 136.534 100.815 138.866 100.469L139.833 100.325C142.594 99.9151 144.454 97.2837 143.92 94.5439C143.756 93.703 143.374 92.9198 142.812 92.2725L140.381 89.47C137.417 86.053 135.786 81.6814 135.786 77.158Z" fill="#E48647"/><path d="M78.8566 112.142C100.393 116.546 122.597 133.073 132.766 142.196C134.345 143.613 133.475 146.119 131.369 146.371L115.84 148.223C108.08 149.148 100.213 148.173 92.9142 145.381L84.517 142.169C76.0849 138.943 68.0398 133.71 64.628 125.352C61.067 116.628 62.0683 108.708 78.8566 112.142Z" fill="#ACBF88"/><path d="M107.331 129.566C143.732 153.102 164.949 196.529 166.976 217H50.0234L56.2609 162.231C59.3407 135.189 84.4755 114.787 107.331 129.566Z" fill="#ACBF88"/><rect x="128.685" y="81.124" width="2.52347" height="7.87321" rx="1.26174" fill="#202020"/><path fill-rule="evenodd" clip-rule="evenodd" d="M97.599 38.6902L125.64 39.1707C127.557 39.2036 129.43 39.744 131.071 40.7361L132.128 41.3758C140.493 46.436 136.906 59.2967 127.129 59.2967C123.169 59.2968 119.547 61.5294 117.768 65.0672L112.822 74.9012C109.873 80.7635 102.424 82.6692 97.0219 78.9441C93.179 76.2943 88.1875 80.1023 89.7279 84.5086L92.1742 91.5047C95.0692 99.7855 88.9222 108.446 80.1498 108.446H69.3754C64.7398 108.446 60.982 104.688 60.9818 100.053V74.6853C60.9818 54.5616 77.4782 38.3452 97.599 38.6902Z" fill="#202020"/><path d="M124.437 168.258L124.523 187.538" stroke="#556536" stroke-width="3.6" stroke-linecap="round"/><path d="M134.12 177.855L114.84 177.941" stroke="#556536" stroke-width="3.6" stroke-linecap="round"/></g><defs><clipPath id="clip0_328_4634"><path d="M0 8C0 3.58172 3.58172 0 8 0H209C213.418 0 217 3.58172 217 8V209C217 213.418 213.418 217 209 217H8C3.58172 217 0 213.418 0 209V8Z" fill="white"/></clipPath></defs></svg>
