<svg preserveAspectRatio="none" width="100%" height="100%" overflow="visible" style="display: block;" viewBox="0 0 40.215 35.4182" fill="none" xmlns="http://www.w3.org/2000/svg">
<g id="Group 1">
<path id="Vector 2" d="M35.8182 13.1425V10.4328C35.8182 5.34638 32.0149 1.06337 26.9641 0.462087C24.4678 0.164908 21.9508 0.814932 19.9106 2.2837L16.6602 4.6237C15.7718 5.26323 14.9365 5.97346 14.1625 6.74747L6.75982 14.1502C2.77259 18.1374 1.96053 24.3056 4.77993 29.1889C7.00543 33.0436 11.1183 35.4182 15.5693 35.4182H26.7721C30.2841 35.4182 33.3462 33.0298 34.2012 29.6234L34.9892 26.4845C35.266 25.3818 36.1795 24.5541 37.3041 24.3871L37.7704 24.3178C39.1023 24.12 39.9997 22.8507 39.7419 21.5291C39.6628 21.1234 39.4787 20.7456 39.2078 20.4334L38.0352 19.0815C36.6054 17.4332 35.8182 15.3245 35.8182 13.1425Z" fill="var(--fill-0, #ECA66D)"/>
</g>
</svg>
