<svg preserveAspectRatio="none" width="100%" height="100%" overflow="visible" style="display: block;" viewBox="0 0 39.7848 39.154" fill="none" xmlns="http://www.w3.org/2000/svg">
<path id="Union" d="M27.375 0.00356591L34.3994 0.123683C35.3241 0.139538 36.2282 0.399912 37.0195 0.878566L37.5293 1.18716C41.5645 3.62808 39.8342 9.83169 35.1182 9.83169C33.2078 9.83169 31.461 10.9093 30.6025 12.6159L28.2158 17.359C26.7933 20.1869 23.2008 21.1062 20.5947 19.3092C18.741 18.0311 16.333 19.8683 17.0762 21.9938L17.1719 22.2672H17.2188L21.1396 31.6071C22.6446 35.1923 20.0114 39.153 16.123 39.153H6.15332C6.14031 39.1531 6.12729 39.154 6.11426 39.154C6.1013 39.154 6.08814 39.1531 6.0752 39.153H5.96582V39.1501C2.65767 39.0713 2.48846e-05 36.3668 0 33.0397C0 30.7629 1.24498 28.7776 3.09082 27.7252L3.20996 24.735V23.7575C3.21016 10.4772 14.0966 -0.224082 27.375 0.00356591Z" fill="var(--fill-0, #202020)"/>
</svg>
