<svg preserveAspectRatio="none" width="100%" height="100%" overflow="visible" style="display: block;" viewBox="0 0 45.5735 40.8403" fill="none" xmlns="http://www.w3.org/2000/svg">
<g id="Group 1">
<path id="Vector 2" d="M41.1482 18.4192V15.6919C41.1482 10.5723 37.32 6.26134 32.2363 5.65614C29.7237 5.35702 27.1903 6.01129 25.1368 7.48963L21.8652 9.84488C20.971 10.4886 20.1303 11.2034 19.3512 11.9825L11.9003 19.4335C7.88704 23.4467 7.06969 29.6551 9.90747 34.5703C12.1475 38.4501 16.2872 40.8402 20.7672 40.8402H32.043C35.5779 40.8402 38.66 38.4362 39.5206 35.0076L40.3137 31.8483C40.5923 30.7383 41.5118 29.9052 42.6437 29.7371L43.1131 29.6674C44.4536 29.4683 45.3569 28.1907 45.0974 26.8605C45.0178 26.4522 44.8324 26.0719 44.5599 25.7577L43.3795 24.397C41.9405 22.738 41.1482 20.6155 41.1482 18.4192Z" fill="var(--fill-0, #A17557)"/>
<path id="Vector 1" d="M30.5592 24.0358L34.9602 9.76571C36.293 5.44417 33.062 1.0666 28.5396 1.0666L24.7595 0.925322C11.96 0.446975 1.93065 11.8116 3.9968 24.4523L4.98548 30.501C5.6096 34.3193 10.1845 35.9677 13.1006 33.425L17.7039 29.4111C18.8691 28.3951 19.2484 26.7448 18.6436 25.322C18.1278 24.1085 18.3236 22.7083 19.1513 21.6818C20.905 19.5069 24.3658 20.084 25.3128 22.7125L25.5066 23.2507C25.5306 23.3171 25.5474 23.3859 25.5567 23.4559L25.5789 23.6213C25.9429 26.3404 29.7507 26.6573 30.5592 24.0358Z" fill="var(--fill-0, #E3E3E3)"/>
</g>
</svg>
