<svg width="48" height="48" viewBox="0 0 48 48" fill="none" xmlns="http://www.w3.org/2000/svg">
<path d="M30.7491 21.7096V21.005C30.7491 17.1362 27.7274 14 24 14C20.2726 14 17.2509 17.1362 17.2509 21.005V21.7096C17.2509 22.5552 17.0097 23.3818 16.5578 24.0854L15.4504 25.8095C14.4388 27.3843 15.211 29.5249 16.9704 30.0229C21.5727 31.3257 26.4273 31.3257 31.0296 30.0229C32.789 29.5249 33.5612 27.3843 32.5496 25.8095L31.4422 24.0854C30.9903 23.3818 30.7491 22.5552 30.7491 21.7096Z" stroke="#202020" stroke-width="1.5"/>
<path d="M19.5 31C20.155 32.7478 21.9225 34 24 34C26.0775 34 27.845 32.7478 28.5 31" stroke="#202020" stroke-width="1.5" stroke-linecap="round"/>
<circle cx="29.9998" cy="15.8098" r="4.55737" fill="#E48647"/>
</svg>
