<svg width="24" height="24" viewBox="0 0 24 24" fill="none" xmlns="http://www.w3.org/2000/svg">
<path d="M17.625 20.9999C18.2666 20.4296 19.2334 20.4296 19.875 20.9999C20.3109 21.3874 21 21.0779 21 20.4947V3.50495C21 2.92172 20.3109 2.61227 19.875 2.99975C19.2334 3.57004 18.2666 3.57004 17.625 2.99975C16.9834 2.42945 16.0166 2.42945 15.375 2.99975C14.7334 3.57004 13.7666 3.57004 13.125 2.99975C12.4834 2.42945 11.5166 2.42945 10.875 2.99975C10.2334 3.57004 9.26659 3.57004 8.625 2.99975C7.98341 2.42945 7.01659 2.42945 6.375 2.99975C5.73341 3.57004 4.76659 3.57004 4.125 2.99975C3.68909 2.61227 3 2.92172 3 3.50494V20.4947C3 21.0779 3.68909 21.3874 4.125 20.9999C4.76659 20.4296 5.73341 20.4296 6.375 20.9999C7.01659 21.5702 7.98341 21.5702 8.625 20.9999C9.26659 20.4296 10.2334 20.4296 10.875 20.9999C11.5166 21.5702 12.4834 21.5702 13.125 20.9999C13.7666 20.4296 14.7334 20.4296 15.375 20.9999C16.0166 21.5702 16.9834 21.5702 17.625 20.9999Z" stroke="#202020" stroke-width="1.5"/>
<path d="M7.5 15.5H16.5" stroke="#202020" stroke-width="1.5" stroke-linecap="round"/>
<path d="M7.5 12H16.5" stroke="#202020" stroke-width="1.5" stroke-linecap="round"/>
<path d="M7.5 8.5H16.5" stroke="#202020" stroke-width="1.5" stroke-linecap="round"/>
</svg>
