<svg preserveAspectRatio="none" width="100%" height="100%" overflow="visible" style="display: block;" viewBox="0 0 53.7564 40.8403" fill="none" xmlns="http://www.w3.org/2000/svg">
<g id="Group 1">
<path id="Vector 2" d="M41.1482 18.4193V15.6919C41.1482 10.5723 37.32 6.26139 32.2364 5.65619C29.7238 5.35707 27.1904 6.01134 25.1368 7.48968L21.8652 9.84493C20.9711 10.4886 20.1304 11.2035 19.3513 11.9826L11.9003 19.4335C7.88709 23.4468 7.06974 29.6552 9.90752 34.5703C12.1475 38.4502 16.2873 40.8402 20.7673 40.8402H32.043C35.578 40.8402 38.66 38.4362 39.5207 35.0076L40.3137 31.8483C40.5924 30.7384 41.5118 29.9053 42.6438 29.7372L43.1131 29.6675C44.4537 29.4684 45.3569 28.1908 45.0975 26.8606C45.0179 26.4523 44.8325 26.072 44.5599 25.7577L43.3796 24.397C41.9405 22.738 41.1482 20.6155 41.1482 18.4193Z" fill="var(--fill-0, #C99D78)"/>
<path id="Vector 1" d="M30.1164 21.1453L31.4871 13.968C31.9549 11.5186 34.0968 9.74708 36.5904 9.74708C41.4374 9.74708 43.2158 3.37102 39.0685 0.862287L38.8974 0.758783C38.0768 0.262401 37.1361 0 36.177 0H24.4204C11.6226 0 1.87488 11.4704 3.93931 24.1005L4.92688 30.1425C5.57657 34.1172 10.3388 35.8331 13.3744 33.1862L16.9782 30.0438C18.6001 28.6296 19.2106 26.3777 18.525 24.3379L17.201 20.3989C16.266 17.6172 19.0345 15.0251 21.7487 16.141C22.6431 16.5088 23.3403 17.2376 23.6681 18.1474L24.8962 21.5562C25.2841 22.6329 26.3056 23.3506 27.45 23.3506C28.7529 23.3506 29.872 22.425 30.1164 21.1453Z" fill="var(--fill-0, #202020)"/>
</g>
</svg>
