<svg width="117" height="179" viewBox="0 0 117 179" fill="none" xmlns="http://www.w3.org/2000/svg">
<path d="M85.7621 38.2439V32.6266C85.7621 22.0821 77.8775 13.2031 67.407 11.9567C62.232 11.3406 57.0141 12.6881 52.7846 15.733L46.0462 20.5839C44.2046 21.9097 42.473 23.3821 40.8685 24.9866L25.5222 40.3329C17.2564 48.5987 15.573 61.3857 21.4178 71.5092C26.0314 79.5002 34.5577 84.4228 43.7849 84.4228H67.0088C74.2895 84.4228 80.6374 79.4714 82.41 72.4099L84.0434 65.9028C84.6172 63.6167 86.511 61.9009 88.8424 61.5547L89.8091 61.4111C92.5702 61.0011 94.4305 58.3696 93.8962 55.6299C93.7322 54.7889 93.3504 54.0057 92.7889 53.3585L90.3579 50.5559C87.3939 47.1389 85.7621 42.7673 85.7621 38.2439Z" fill="#E48647"/>
<path d="M28.8332 73.2276C50.3691 77.6321 72.5739 94.1591 82.7426 103.282C84.3214 104.699 83.4517 107.205 81.3455 107.457L65.8161 109.309C58.057 110.234 50.1891 109.259 42.8908 106.467L34.4936 103.255C26.0615 100.029 18.0164 94.7962 14.6046 86.4377C11.0435 77.7136 12.0449 69.7941 28.8332 73.2276Z" fill="#F9F9ED"/>
<path d="M57.3079 90.6515C93.7088 114.188 114.925 157.615 116.953 178.086H0L6.23748 123.317C9.31729 96.275 34.4521 75.8734 57.3079 90.6515Z" fill="#F9F9ED"/>
<rect x="78.6616" y="42.21" width="2.52347" height="7.87321" rx="1.26174" fill="#202020"/>
<path d="M61.0541 0.00732422L75.6166 0.257324C77.5334 0.290256 79.4069 0.830537 81.0472 1.82275L82.1049 2.46143C90.4701 7.5216 86.8825 20.3823 77.1058 20.3823C73.1458 20.3825 69.5241 22.6152 67.7445 26.1528L62.7982 35.9868C59.8493 41.8494 52.401 43.755 46.9984 40.0298C43.1557 37.3801 38.1644 41.1881 39.7045 45.5942L39.9037 46.1626H39.9994L48.1273 65.5239C51.2474 72.9562 45.7895 81.1672 37.7289 81.1675H17.0609C17.0336 81.1677 17.0062 81.1685 16.9789 81.1685C16.9515 81.1685 16.9242 81.1677 16.8969 81.1675H16.6713V81.1646C9.81333 81.0012 4.30408 75.3909 4.30408 68.4937C4.30416 63.7734 6.88611 59.6584 10.7133 57.4771L10.9584 51.2915V49.2515C10.9586 21.7204 33.527 -0.464552 61.0541 0.00732422Z" fill="#202020"/>
</svg>
