<svg width="216" height="136" viewBox="0 0 216 136" fill="none" xmlns="http://www.w3.org/2000/svg">
<path fill-rule="evenodd" clip-rule="evenodd" d="M47.232 3.05176e-05C64.128 3.05176e-05 78.336 2.87997 89.856 8.63998C101.376 14.4 109.824 22.272 115.584 32.448C121.152 42.816 124.032 54.528 124.032 67.968C124.032 82.176 120.96 94.272 115.008 104.256C109.056 114.432 100.416 122.112 88.896 127.488C77.376 132.864 63.552 135.552 47.424 135.552H0V91.4027C0 84.5102 5.58749 78.9228 12.48 78.9228C19.3725 78.9228 24.96 84.5102 24.96 91.4027V114.24H47.232C64.128 114.24 76.992 110.4 85.44 102.336C93.888 94.464 98.304 82.944 98.304 67.968C98.304 53.568 94.08 42.24 86.016 33.792C77.76 25.536 64.704 21.312 46.848 21.312H24.96V44.1498C24.96 51.0423 19.3725 56.6298 12.48 56.6298C5.58749 56.6298 0 51.0423 0 44.1498V21.312V3.05176e-05H47.232Z" fill="black"/>
<circle cx="182.487" cy="67.7762" r="33.4549" fill="#CF6F2F"/>
</svg>
