<svg width="1051" height="568" viewBox="0 0 1051 568" fill="none" xmlns="http://www.w3.org/2000/svg" preserveAspectRatio="none">
<path d="M290.227 0.510742C295.422 0.510805 300.099 3.66211 302.049 8.47754L313.609 37.0215C315.404 41.4516 319.706 44.3505 324.485 44.3506H1037.55C1044.6 44.3506 1050.31 50.0614 1050.31 57.1055V554.709C1050.31 561.753 1044.6 567.464 1037.55 567.464H13.2637C6.21959 567.464 0.509766 561.753 0.509766 554.709V53.543C0.509766 48.4667 4.62486 44.3506 9.70117 44.3506C13.0294 44.3504 16.025 42.3319 17.2744 39.2471L29.7363 8.47754C31.6866 3.6621 36.3632 0.510793 41.5586 0.510742H290.227Z" fill="#FFFFFF" stroke="#EDDFBA" stroke-width="1.02039"/>
</svg>
