<svg width="24" height="24" viewBox="0 0 24 24" fill="none" xmlns="http://www.w3.org/2000/svg">
<path d="M15.4452 15.6954L14.9149 15.1651L15.4452 15.6954ZM15.9513 15.1892L16.4817 15.7195L15.9513 15.1892ZM18.6365 14.8352L18.2766 15.4933H18.2766L18.6365 14.8352ZM20.7592 15.996L20.3994 16.654L20.7592 15.996ZM21.3574 19.6339L21.8878 20.1642L21.3574 19.6339ZM19.779 21.2126L19.2486 20.6823L19.779 21.2126ZM18.307 21.961L18.377 22.7078H18.377L18.307 21.961ZM7.3504 17.2238L7.88077 16.6935L7.3504 17.2238ZM2.00321 7.18627L1.2544 7.22857L1.2544 7.22857L2.00321 7.18627ZM9.19724 8.80884L9.72762 9.33913L9.72762 9.33913L9.19724 8.80884ZM9.37138 5.84272L9.97304 5.39494V5.39494L9.37138 5.84272ZM7.97028 3.96015L7.36863 4.40793V4.40793L7.97028 3.96015ZM4.51272 3.64246L5.0431 4.17274V4.17274L4.51272 3.64246ZM2.76872 5.38675L2.23835 4.85647L2.23835 4.85647L2.76872 5.38675ZM10.959 13.6146L11.4894 13.0843L10.959 13.6146ZM15.4452 15.6954L15.9756 16.2257L16.4817 15.7195L15.9513 15.1892L15.4209 14.659L14.9149 15.1651L15.4452 15.6954ZM18.6365 14.8352L18.2766 15.4933L20.3994 16.654L20.7592 15.996L21.1191 15.3379L18.9963 14.1772L18.6365 14.8352ZM21.3574 19.6339L20.827 19.1036L19.2486 20.6823L19.779 21.2126L20.3094 21.7428L21.8878 20.1642L21.3574 19.6339ZM18.307 21.961L18.237 21.2143C16.6075 21.3671 12.4143 21.2278 7.88077 16.6935L7.3504 17.2238L6.82002 17.7541C11.7238 22.6587 16.3855 22.8945 18.377 22.7078L18.307 21.961ZM7.3504 17.2238L7.88077 16.6935C3.56398 12.376 2.84199 8.73643 2.75201 7.14396L2.00321 7.18627L1.2544 7.22857C1.36476 9.18176 2.2376 13.1709 6.82002 17.7541L7.3504 17.2238ZM8.87856 9.12758L9.40894 9.65786L9.72762 9.33913L9.19724 8.80884L8.66687 8.27856L8.34818 8.59729L8.87856 9.12758ZM9.37138 5.84272L9.97304 5.39494L8.57194 3.51237L7.97028 3.96015L7.36863 4.40793L8.76972 6.2905L9.37138 5.84272ZM4.51272 3.64246L3.98235 3.11217L2.23835 4.85647L2.76872 5.38675L3.2991 5.91704L5.0431 4.17274L4.51272 3.64246ZM8.87856 9.12758C8.34818 8.59729 8.34747 8.59801 8.34676 8.59873C8.34651 8.59897 8.34579 8.5997 8.3453 8.6002C8.34432 8.60119 8.34332 8.6022 8.3423 8.60324C8.34026 8.60533 8.33815 8.60751 8.33596 8.60979C8.3316 8.61435 8.32694 8.61932 8.32202 8.62469C8.31219 8.63542 8.30131 8.6478 8.28961 8.66185C8.26621 8.68994 8.23946 8.72479 8.21124 8.7667C8.15464 8.85071 8.09248 8.96253 8.03957 9.10379C7.93176 9.39159 7.87241 9.77479 7.9463 10.2539C8.09114 11.193 8.73787 12.4538 10.4286 14.1448L10.959 13.6146L11.4894 13.0843C9.89683 11.4914 9.50334 10.5087 9.42877 10.0253C9.39297 9.79317 9.42913 9.67035 9.44426 9.62995C9.45281 9.60711 9.45897 9.59928 9.45534 9.60468C9.45359 9.60728 9.44948 9.61307 9.4421 9.62194C9.4384 9.62637 9.43387 9.63159 9.42839 9.63757C9.42565 9.64057 9.42267 9.64376 9.41944 9.64714C9.41782 9.64883 9.41613 9.65057 9.41438 9.65235C9.41351 9.65325 9.41262 9.65415 9.41171 9.65507C9.41126 9.65553 9.41056 9.65623 9.41034 9.65646C9.40964 9.65716 9.40894 9.65786 8.87856 9.12758ZM10.959 13.6146L10.4286 14.1448C12.1194 15.8359 13.38 16.4828 14.319 16.6277C14.7981 16.7016 15.1813 16.6422 15.4691 16.5344C15.6104 16.4814 15.7222 16.4193 15.8062 16.3626C15.8481 16.3344 15.883 16.3077 15.9111 16.2843C15.9251 16.2725 15.9375 16.2617 15.9482 16.2518C15.9536 16.2469 15.9586 16.2423 15.9631 16.2379C15.9654 16.2357 15.9676 16.2336 15.9697 16.2316C15.9707 16.2305 15.9717 16.2295 15.9727 16.2286C15.9732 16.2281 15.9739 16.2273 15.9742 16.2271C15.9749 16.2264 15.9756 16.2257 15.4452 15.6954C14.9149 15.1651 14.9156 15.1644 14.9163 15.1637C14.9165 15.1635 14.9172 15.1628 14.9177 15.1623C14.9186 15.1614 14.9195 15.1605 14.9204 15.1596C14.9222 15.1579 14.9239 15.1562 14.9256 15.1546C14.929 15.1514 14.9322 15.1484 14.9351 15.1456C14.9411 15.1402 14.9464 15.1356 14.9508 15.1319C14.9597 15.1245 14.9654 15.1204 14.968 15.1187C14.9735 15.115 14.9656 15.1212 14.9428 15.1297C14.9025 15.1449 14.7798 15.181 14.5477 15.1452C14.0645 15.0706 13.082 14.6771 11.4894 13.0843L10.959 13.6146ZM7.97028 3.96015L8.57194 3.51237C7.46838 2.02958 5.29777 1.79652 3.98235 3.11217L4.51272 3.64246L5.0431 4.17274C5.67103 3.5447 6.77669 3.61258 7.36863 4.40793L7.97028 3.96015ZM2.00321 7.18627L2.75201 7.14396C2.72824 6.72314 2.92089 6.29531 3.2991 5.91704L2.76872 5.38675L2.23835 4.85647C1.65295 5.44197 1.19988 6.26348 1.2544 7.22857L2.00321 7.18627ZM19.779 21.2126L19.2486 20.6823C18.9333 20.9977 18.5892 21.1813 18.237 21.2143L18.307 21.961L18.377 22.7078C19.1701 22.6334 19.8221 22.2302 20.3094 21.7428L19.779 21.2126ZM9.19724 8.80884L9.72762 9.33913C10.7889 8.27767 10.8689 6.59871 9.97304 5.39494L9.37138 5.84272L8.76972 6.2905C9.24368 6.92733 9.17571 7.76962 8.66687 8.27856L9.19724 8.80884ZM20.7592 15.996L20.3994 16.654C21.3537 17.1759 21.5148 18.4157 20.827 19.1036L21.3574 19.6339L21.8878 20.1642C23.3309 18.7208 22.8912 16.3069 21.1191 15.3379L20.7592 15.996ZM15.9513 15.1892L16.4817 15.7195C16.9357 15.2654 17.6611 15.1567 18.2766 15.4933L18.6365 14.8352L18.9963 14.1772C17.8217 13.5349 16.366 13.7137 15.4209 14.659L15.9513 15.1892Z" fill="#1C274C"/>
</svg>
