<svg width="1489" height="1031" viewBox="0 0 1489 1031" fill="none" xmlns="http://www.w3.org/2000/svg">
<rect width="1488.28" height="1030.81" fill="#EDDFBA"/>
<path d="M1095.94 351.334C1098 356.304 1099.97 361.324 1101.83 366.394H1101.83L1099.95 367.083C1101.79 372.102 1103.53 377.171 1105.17 382.285L1107.07 381.675C1108.71 386.792 1110.24 391.955 1111.67 397.162L1109.75 397.691C1111.16 402.844 1112.48 408.041 1113.68 413.278L1115.63 412.829C1116.84 418.063 1117.94 423.338 1118.93 428.65L1116.97 429.017C1117.95 434.27 1118.83 439.561 1119.6 444.886L1121.57 444.6C1122.34 449.917 1123 455.267 1123.55 460.651L1121.57 460.855C1122.11 466.161 1122.55 471.499 1122.88 476.867L1124.87 476.745C1125.2 482.096 1125.42 487.476 1125.53 492.883L1123.53 492.924C1123.58 495.607 1123.61 498.296 1123.61 500.992C1123.61 503.688 1123.58 506.377 1123.53 509.06L1125.53 509.1C1125.42 514.507 1125.2 519.887 1124.87 525.238L1122.88 525.117C1122.55 530.484 1122.11 535.823 1121.57 541.129L1123.55 541.333C1123 546.716 1122.34 552.067 1121.57 557.383L1119.6 557.098C1118.83 562.423 1117.95 567.713 1116.97 572.966L1118.93 573.333C1117.94 578.646 1116.84 583.92 1115.63 589.155L1113.68 588.707C1112.48 593.943 1111.16 599.139 1109.75 604.292L1111.67 604.822C1110.24 610.028 1108.71 615.191 1107.07 620.308L1105.17 619.7C1103.53 624.814 1101.79 629.881 1099.95 634.901L1101.83 635.588C1099.97 640.658 1098 645.679 1095.94 650.648L1094.1 649.883C1092.04 654.844 1089.88 659.753 1087.63 664.607L1089.44 665.448C1087.17 670.342 1084.8 675.181 1082.33 679.962L1080.56 679.047C1078.1 683.817 1075.54 688.528 1072.89 693.18L1074.63 694.169C1071.96 698.855 1069.2 703.481 1066.34 708.043L1064.65 706.984C1061.81 711.532 1058.87 716.017 1055.84 720.436L1057.49 721.565C1054.45 726.014 1051.31 730.396 1048.09 734.709L1046.49 733.513C1043.28 737.81 1039.98 742.039 1036.6 746.197L1038.16 747.458C1034.76 751.639 1031.27 755.749 1027.7 759.785L1026.21 758.462C1022.66 762.479 1019.02 766.423 1015.31 770.29L1016.75 771.673C1013.02 775.56 1009.21 779.371 1005.33 783.101L1003.94 781.66C1000.08 785.371 996.133 789.002 992.116 792.552L993.438 794.049C989.403 797.616 985.293 801.101 981.111 804.501L979.851 802.952C975.693 806.332 971.464 809.628 967.167 812.837L968.363 814.438C964.049 817.66 959.667 820.795 955.219 823.84L954.09 822.191C949.671 825.216 945.185 828.152 940.638 830.997L941.697 832.691C937.135 835.545 932.509 838.307 927.823 840.975L926.834 839.24C922.182 841.889 917.47 844.444 912.701 846.904L913.616 848.679C908.835 851.146 903.996 853.516 899.102 855.789L898.261 853.977C893.406 856.231 888.498 858.388 883.537 860.445L884.302 862.291C879.333 864.351 874.312 866.312 869.242 868.171L868.555 866.294C863.535 868.135 858.467 869.875 853.353 871.512L853.962 873.416C848.845 875.054 843.681 876.588 838.475 878.019L837.946 876.093C832.793 877.509 827.597 878.822 822.36 880.029L822.809 881.976C817.574 883.182 812.3 884.283 806.987 885.277L806.62 883.313C801.367 884.296 796.077 885.174 790.752 885.943L791.036 887.919C785.72 888.687 780.369 889.349 774.985 889.901L774.782 887.914C769.476 888.457 764.138 888.895 758.771 889.223L758.892 891.217C753.54 891.545 748.16 891.765 742.753 891.875L742.714 889.876C740.031 889.931 737.341 889.958 734.646 889.958C731.95 889.958 729.261 889.931 726.578 889.876L726.537 891.875C721.13 891.765 715.75 891.545 710.398 891.217L710.521 889.223C705.153 888.895 699.815 888.457 694.509 887.914L694.305 889.901C688.921 889.349 683.57 888.687 678.254 887.919L678.54 885.943C673.215 885.174 667.924 884.296 662.671 883.313L662.304 885.277C656.991 884.283 651.717 883.182 646.482 881.976L646.932 880.029C641.695 878.822 636.499 877.509 631.346 876.093L630.815 878.019C625.609 876.588 620.446 875.054 615.329 873.416L615.938 871.513C610.824 869.876 605.756 868.136 600.736 866.295L600.048 868.171C594.978 866.312 589.957 864.351 584.988 862.291L585.755 860.445C580.795 858.388 575.886 856.231 571.031 853.977L570.188 855.789C565.295 853.516 560.455 851.146 555.674 848.68L556.591 846.904C551.821 844.444 547.109 841.889 542.457 839.24L541.468 840.975C536.782 838.307 532.155 835.545 527.593 832.691L528.653 830.997C524.106 828.152 519.621 825.216 515.202 822.191L514.072 823.84C509.624 820.795 505.241 817.661 500.928 814.439L502.124 812.837C497.827 809.628 493.598 806.332 489.44 802.952L488.18 804.501C483.998 801.101 479.888 797.616 475.852 794.049L477.175 792.553C473.158 789.003 469.214 785.371 465.348 781.66L463.963 783.101C460.076 779.371 456.267 775.559 452.536 771.672L453.979 770.29C450.267 766.423 446.635 762.48 443.085 758.462L441.587 759.785C438.02 755.749 434.535 751.639 431.135 747.458L432.687 746.197C429.306 742.039 426.01 737.81 422.801 733.513L421.198 734.709C417.977 730.396 414.841 726.014 411.796 721.566L413.447 720.436C410.422 716.017 407.485 711.532 404.641 706.984L402.945 708.043C400.091 703.481 397.329 698.855 394.661 694.169L396.398 693.18C393.75 688.528 391.193 683.817 388.733 679.047L386.957 679.962C384.491 675.181 382.12 670.342 379.848 665.448L381.66 664.607C379.406 659.753 377.25 654.844 375.193 649.883L373.346 650.648C371.285 645.679 369.324 640.658 367.465 635.588L369.343 634.901C367.502 629.881 365.762 624.813 364.125 619.699L362.221 620.308C360.583 615.191 359.048 610.027 357.617 604.821L359.544 604.292C358.128 599.139 356.815 593.943 355.608 588.707L353.66 589.155C352.454 583.92 351.353 578.646 350.359 573.333L352.324 572.966C351.341 567.713 350.465 562.423 349.695 557.098L347.717 557.382C346.949 552.066 346.287 546.715 345.735 541.332L347.725 541.128C347.181 535.822 346.743 530.484 346.415 525.117L344.42 525.238C344.093 519.887 343.873 514.506 343.763 509.099L345.761 509.06C345.706 506.377 345.679 503.688 345.679 500.992C345.679 498.296 345.706 495.607 345.761 492.924L343.763 492.883C343.873 487.476 344.092 482.096 344.42 476.745L346.415 476.867C346.743 471.499 347.181 466.161 347.725 460.855L345.735 460.651C346.287 455.267 346.949 449.917 347.717 444.6L349.695 444.886C350.465 439.561 351.341 434.27 352.324 429.017L350.359 428.65C351.212 424.093 352.142 419.564 353.151 415.064L353.66 412.829L355.608 413.278C356.815 408.041 358.128 402.845 359.544 397.692L357.617 397.162C359.048 391.955 360.583 386.792 362.221 381.675L364.125 382.285C365.762 377.171 367.502 372.102 369.343 367.083L367.465 366.394C369.324 361.324 371.285 356.303 373.346 351.334L375.192 352.101C377.249 347.141 379.406 342.232 381.66 337.377L379.848 336.535C382.12 331.641 384.491 326.802 386.957 322.02L388.733 322.937C391.193 318.168 393.749 313.455 396.398 308.803L394.661 307.814C397.33 303.128 400.091 298.502 402.945 293.939L404.641 295C407.485 290.452 410.421 285.967 413.446 281.548L411.796 280.418C414.841 275.97 417.975 271.587 421.197 267.273L421.198 267.274L422.801 268.47C426.01 264.173 429.306 259.944 432.687 255.787L431.135 254.525C434.535 250.343 438.02 246.234 441.587 242.198L443.085 243.521C446.635 239.504 450.267 235.56 453.978 231.694L452.536 230.31C456.267 226.423 460.077 222.613 463.964 218.882L465.348 220.325C469.214 216.614 473.158 212.981 477.175 209.431L475.852 207.933C479.887 204.366 483.997 200.881 488.179 197.481L489.44 199.033C493.598 195.652 497.827 192.356 502.124 189.147L500.927 187.544C505.241 184.323 509.623 181.187 514.071 178.142L514.072 178.143L515.201 179.793C519.62 176.768 524.106 173.832 528.653 170.987L527.593 169.292C532.155 166.437 536.782 163.676 541.468 161.007L542.457 162.745C547.109 160.096 551.821 157.54 556.591 155.08L555.674 153.303C560.455 150.837 565.295 148.466 570.188 146.194L571.031 148.006C575.885 145.753 580.794 143.596 585.754 141.54L584.988 139.692C589.957 137.631 594.978 135.67 600.048 133.811L600.736 135.689C605.756 133.848 610.824 132.108 615.938 130.471L615.329 128.567C620.446 126.929 625.609 125.394 630.815 123.963L631.345 125.89C636.498 124.474 641.695 123.161 646.932 121.955L646.482 120.006C651.717 118.8 656.991 117.699 662.304 116.706L662.671 118.67C667.924 117.688 673.215 116.811 678.54 116.042L678.254 114.063C683.57 113.295 688.921 112.633 694.305 112.082L694.509 114.071C699.815 113.527 705.153 113.09 710.521 112.761L710.398 110.766C715.75 110.439 721.13 110.219 726.537 110.109L726.578 112.107C729.261 112.052 731.95 112.025 734.646 112.025C737.341 112.025 740.031 112.052 742.714 112.107L742.754 110.109C748.161 110.219 753.541 110.439 758.892 110.766L758.771 112.761C764.138 113.09 769.477 113.527 774.783 114.071L774.986 112.082C780.37 112.633 785.721 113.295 791.037 114.063L790.752 116.042C796.077 116.811 801.367 117.688 806.62 118.67L806.987 116.706C812.3 117.699 817.574 118.8 822.809 120.006L822.36 121.955C827.597 123.161 832.793 124.474 837.946 125.89L838.476 123.963C843.682 125.394 848.845 126.929 853.962 128.567L853.354 130.471C858.467 132.108 863.535 133.848 868.555 135.689L869.242 133.811C874.312 135.67 879.333 137.631 884.302 139.692L883.537 141.54C888.497 143.597 893.406 145.753 898.261 148.007L899.102 146.194C903.996 148.466 908.835 150.837 913.616 153.303L912.701 155.08C917.47 157.54 922.182 160.096 926.834 162.745L927.823 161.007C932.509 163.676 937.135 166.438 941.697 169.292L940.638 170.987C945.185 173.832 949.671 176.768 954.09 179.793L955.22 178.143V178.142C959.668 181.187 964.05 184.323 968.363 187.544L967.167 189.147C971.464 192.356 975.693 195.652 979.851 199.033L981.111 197.481C985.293 200.881 989.403 204.366 993.438 207.933L992.116 209.431C996.133 212.981 1000.08 216.613 1003.94 220.324L1005.33 218.882C1009.21 222.613 1013.02 226.422 1016.75 230.309L1015.31 231.694C1019.02 235.56 1022.66 239.504 1026.21 243.521L1027.7 242.198C1031.27 246.234 1034.76 250.344 1038.16 254.526L1036.61 255.787C1039.99 259.944 1043.28 264.173 1046.49 268.47L1048.09 267.273C1051.31 271.587 1054.45 275.97 1057.49 280.418H1057.5L1055.84 281.548C1058.87 285.967 1061.81 290.452 1064.65 295L1066.34 293.939C1069.2 298.502 1071.96 303.128 1074.63 307.814L1072.89 308.803C1075.54 313.455 1078.1 318.168 1080.56 322.937L1082.33 322.02C1084.8 326.802 1087.17 331.641 1089.44 336.535L1087.63 337.377C1089.88 342.232 1092.04 347.14 1094.1 352.1L1095.94 351.334Z" stroke="#EDCA99" stroke-width="4" stroke-dasharray="16 16"/>
<circle cx="359.874" cy="255.221" r="209.77" fill="#EDCA99"/>
<circle cx="1128.41" cy="461.196" r="209.77" fill="#EDCA99"/>
<circle cx="531.26" cy="813.97" r="171.386" fill="#EDCA99"/>
<mask id="mask0_138_968" style="mask-type:alpha" maskUnits="userSpaceOnUse" x="150" y="45" width="420" height="420">
<circle cx="359.874" cy="255.221" r="209.77" fill="#3D4927"/>
</mask>
<g mask="url(#mask0_138_968)">
<path d="M417.976 216.53V206.308C417.976 187.121 403.629 170.965 384.577 168.697C375.16 167.576 365.666 170.028 357.969 175.568L345.708 184.395C342.357 186.808 339.206 189.487 336.287 192.406L308.362 220.331C293.321 235.372 290.258 258.639 300.893 277.06C309.289 291.601 324.803 300.558 341.593 300.558H383.852C397.1 300.558 408.651 291.549 411.877 278.699L414.849 266.859C415.893 262.699 419.339 259.577 423.581 258.947L425.34 258.686C430.365 257.939 433.75 253.151 432.777 248.166C432.479 246.636 431.784 245.21 430.763 244.033L426.339 238.933C420.946 232.715 417.976 224.761 417.976 216.53Z" fill="#ECA66D"/>
<path d="M376.19 212.422L385.191 194.528C388.429 188.09 395.02 184.028 402.226 184.028C420.016 184.028 426.543 160.626 411.322 151.419L409.398 150.255C406.413 148.449 403.003 147.467 399.515 147.407L370.944 146.917C321.994 146.078 281.861 185.528 281.861 234.486L281.861 258.188C281.861 266.623 288.699 273.462 297.135 273.462H316.74C332.703 273.462 343.888 257.703 338.619 242.634L334.169 229.905C331.366 221.887 340.448 214.958 347.44 219.779C357.271 226.558 370.824 223.09 376.19 212.422Z" fill="#040404"/>
<path d="M314.387 280.188C353.968 288.283 394.79 318.881 413.033 335.372C415.668 337.755 414.211 341.963 410.684 342.384L379.973 346.047C366.977 347.597 353.799 345.963 341.575 341.287L322.82 334.112C308.697 328.709 295.419 319.884 289.281 306.065C281.919 289.491 282.662 273.7 314.387 280.188Z" fill="#CF6F2F"/>
<path d="M360.214 308.168C430.108 349.981 470.933 432.633 474.733 470.992H261.921L274.069 364.331C279.227 319.037 321.093 284.765 360.214 308.168Z" fill="#CF6F2F"/>
<rect x="405.056" y="223.746" width="4.59179" height="14.3263" rx="2.2959" fill="#202020"/>
<path d="M280.486 274.998L282.231 230.939H334.705L350.446 268.433C355.672 280.882 346.53 294.636 333.028 294.636H299.361C288.635 294.636 280.061 285.715 280.486 274.998Z" fill="#040404"/>
<circle cx="292.817" cy="271.572" r="23.0633" fill="#040404"/>
</g>
<mask id="mask1_138_968" style="mask-type:alpha" maskUnits="userSpaceOnUse" x="359" y="642" width="344" height="344">
<circle cx="171.386" cy="171.386" r="171.386" transform="matrix(-1 0 0 1 702.646 642.584)" fill="#3D4927"/>
</mask>
<g mask="url(#mask1_138_968)">
<path d="M589.92 772.824V763.354C589.92 745.578 576.627 730.609 558.976 728.508C550.251 727.469 541.455 729.741 534.325 734.874L522.965 743.052C519.86 745.287 516.941 747.769 514.236 750.474L488.364 776.346C474.43 790.281 471.592 811.838 481.445 828.904C489.223 842.376 503.597 850.675 519.152 850.675H558.304C570.579 850.675 581.28 842.327 584.268 830.423L587.022 819.453C587.99 815.599 591.182 812.706 595.113 812.122L596.742 811.88C601.397 811.189 604.533 806.753 603.632 802.134C603.356 800.716 602.712 799.396 601.766 798.305L597.667 793.58C592.671 787.82 589.92 780.45 589.92 772.824Z" fill="#A17557"/>
<path d="M553.153 792.325L568.434 742.777C573.062 727.771 561.843 712.571 546.14 712.571L533.015 712.081C488.572 710.42 453.748 749.881 460.922 793.772L464.152 813.529C466.408 827.33 482.943 833.289 493.483 824.098L505.997 813.187C511.628 808.276 513.748 800.457 511.367 793.375L506.77 779.697C503.523 770.039 513.137 761.039 522.561 764.913C525.666 766.19 528.087 768.721 529.225 771.88L535.413 789.054C535.626 789.647 535.776 790.262 535.86 790.886C537.124 800.328 550.346 801.428 553.153 792.325Z" fill="#E3E3E3"/>
<path d="M495.371 830.374C531.698 839.39 568.31 869.284 584.562 885.251C586.91 887.558 585.4 891.397 582.118 891.651L553.549 893.861C541.46 894.796 529.324 892.777 518.188 887.978L501.103 880.615C488.237 875.07 476.286 866.391 471.135 853.362C464.958 837.738 466.253 823.148 495.371 830.374Z" fill="#ECA66D"/>
<path d="M536.405 857.725C601.159 896.463 638.982 973.039 642.503 1008.58H445.338L456.592 909.758C461.372 867.794 500.16 836.043 536.405 857.725Z" fill="#ECA66D"/>
<rect x="577.95" y="779.51" width="4.25419" height="13.273" rx="2.12709" fill="#202020"/>
</g>
<mask id="mask2_138_968" style="mask-type:alpha" maskUnits="userSpaceOnUse" x="918" y="251" width="421" height="420">
<circle cx="209.77" cy="209.77" r="209.77" transform="matrix(-1 0 0 1 1338.18 251.426)" fill="#3D4927"/>
</mask>
<g mask="url(#mask2_138_968)">
<path d="M1082.41 457.069V447.599C1082.41 429.823 1095.7 414.854 1113.35 412.753C1122.08 411.714 1130.87 413.986 1138 419.119L1149.36 427.297C1152.47 429.532 1155.39 432.014 1158.09 434.719L1183.96 460.591C1197.9 474.526 1200.74 496.083 1190.88 513.149C1183.1 526.621 1168.73 534.92 1153.17 534.92H1114.02C1101.75 534.92 1091.05 526.572 1088.06 514.668L1085.3 503.698C1084.34 499.844 1081.14 496.951 1077.21 496.367L1075.58 496.125C1070.93 495.434 1067.79 490.998 1068.69 486.379C1068.97 484.961 1069.61 483.641 1070.56 482.55L1074.66 477.825C1079.66 472.065 1082.41 464.695 1082.41 457.069Z" fill="#C99D78"/>
<path d="M1120.71 466.534L1115.95 441.613C1114.33 433.108 1106.89 426.957 1098.23 426.957C1081.4 426.957 1075.23 404.818 1089.63 396.107L1090.22 395.748C1093.07 394.024 1096.34 393.113 1099.67 393.113H1140.49C1184.93 393.113 1218.77 432.941 1211.6 476.795L1208.18 497.774C1205.92 511.576 1189.38 517.534 1178.84 508.343L1166.33 497.432C1160.7 492.521 1158.58 484.702 1160.96 477.62L1165.56 463.943C1168.8 454.284 1159.19 445.284 1149.77 449.158C1146.66 450.435 1144.24 452.966 1143.1 456.125L1138.84 467.961C1137.49 471.699 1133.94 474.192 1129.97 474.192C1125.45 474.192 1121.56 470.978 1120.71 466.534Z" fill="#202020"/>
<path d="M1176.96 514.619C1140.63 523.635 1104.02 553.529 1087.76 569.496C1085.42 571.803 1086.93 575.642 1090.21 575.896L1118.78 578.106C1130.87 579.041 1143 577.022 1154.14 572.223L1171.22 564.86C1184.09 559.315 1196.04 550.636 1201.19 537.607C1207.37 521.983 1206.07 507.393 1176.96 514.619Z" fill="#F3F3DC"/>
<path d="M1135.92 541.97C1071.17 580.708 1033.34 657.284 1029.82 692.822H1226.99L1215.73 594.003C1210.96 552.039 1172.17 520.288 1135.92 541.97Z" fill="#F3F3DC"/>
<rect width="4.25419" height="33.8665" rx="2.12709" transform="matrix(-1 0 0 1 1091.35 450.865)" fill="#202020"/>
<rect width="4.25419" height="59.452" rx="2.12709" transform="matrix(4.37114e-08 -1 -1 -4.37114e-08 1139.09 468.199)" fill="#202020"/>
</g>
<rect x="1078.56" y="505.817" width="7.58956" height="23.6793" rx="3.79478" transform="rotate(-72.8419 1078.56 505.817)" fill="#202020"/>
</svg>
