<svg xmlns="http://www.w3.org/2000/svg" viewBox="0 0 256 256" fill="none">
  <svg x="27.88" y="51.24" width="200.246" height="153.521" viewBox="0 0 200.246 153.521" preserveAspectRatio="xMidYMid meet" xmlns="http://www.w3.org/2000/svg" overflow="visible">
<g id="Group 25">
<g id="Vector">
<path d="M185.279 69.4928V59.2713C185.279 40.0842 170.932 23.9278 151.879 21.6597C142.463 20.5386 132.968 22.9907 125.272 28.5312L113.011 37.3581C109.659 39.7706 106.509 42.4497 103.589 45.3694L75.6644 73.294C60.6237 88.3347 57.5605 111.602 68.1958 130.023C76.5909 144.564 92.1056 153.521 108.896 153.521H139.095C154.165 153.521 167.936 144.991 174.648 131.499L181.181 118.368C182.87 114.973 186.111 112.619 189.861 112.062L192.643 111.648C197.667 110.902 201.052 106.114 200.08 101.129C199.781 99.5986 199.087 98.1734 198.065 96.9957L193.642 91.8961C188.248 85.6784 185.279 77.7237 185.279 69.4928Z" fill="#ECA66D"/>
<path d="M138.878 69.5579L143.466 56.2936C146.16 48.5045 153.496 43.2795 161.738 43.2795C174.964 43.2795 183.612 30.2497 174.853 20.3387C167.754 12.3061 157.608 4.64339 143.722 2.07925C140.496 1.48355 137.001 0.968557 133.319 0.524207C86.6101 -5.11353 49.1635 35.5519 49.1635 82.6001V83.9021C49.1635 95.8535 52.3196 107.068 57.8437 116.757C61.5421 123.244 68.871 126.424 76.338 126.424H84.3363C96.2778 126.424 105.168 115.397 102.634 103.727L99.499 89.286C97.0221 77.8777 109.785 69.3238 119.396 75.9508C126.406 80.7849 136.095 77.6058 138.878 69.5579Z" fill="#202020"/>
<path d="M172.359 79.0048C172.359 77.7368 173.387 76.7089 174.655 76.7089C175.923 76.7089 176.951 77.7368 176.951 79.0048V88.7394C176.951 90.0073 175.923 91.0353 174.655 91.0353C173.387 91.0353 172.359 90.0073 172.359 88.7394V79.0048Z" fill="#202020"/>
<path fill-rule="evenodd" clip-rule="evenodd" d="M77.571 42.2629C80.3719 42.1006 82.187 38.9536 80.3439 36.8383C71.1598 26.2975 57.9878 20.0306 43.7247 20.8573C17.999 22.3484 -1.53473 46.3512 0.0949972 74.469C1.06499 91.2044 9.31346 105.626 21.2568 114.245C28.7765 119.671 35.8583 110.185 34.4759 101.016C34.2217 99.3296 34.0421 97.6146 33.9413 95.8746C32.3115 67.7568 51.8452 43.754 77.571 42.2629Z" fill="#202020"/>
</g>
</g>
  </svg>
</svg>
