<svg xmlns="http://www.w3.org/2000/svg" viewBox="0 0 256 256" fill="none">
  <svg x="42.72" y="51.17" width="170.568" height="153.655" viewBox="0 0 170.568 153.655" preserveAspectRatio="xMidYMid meet" xmlns="http://www.w3.org/2000/svg" overflow="visible">
<g id="Group 31">
<g id="Vector">
<path d="M155.601 69.626V59.4044C155.601 40.2174 141.254 24.061 122.201 21.7928C112.784 20.6718 103.29 23.1238 95.5937 28.6643L83.3324 37.4913C79.9813 39.9037 76.8305 42.5829 73.9108 45.5026L45.9863 73.4271C30.9456 88.4678 27.8824 111.735 38.5177 130.156C46.9128 144.697 62.4274 153.655 79.2175 153.655H121.477C134.725 153.655 146.276 144.645 149.501 131.795L152.473 119.955C153.517 115.795 156.963 112.673 161.206 112.043L162.965 111.782C167.989 111.036 171.374 106.247 170.402 101.262C170.103 99.7317 169.409 98.3066 168.387 97.1288L163.963 92.0292C158.57 85.8116 155.601 77.8569 155.601 69.626Z" fill="#ECA66D"/>
<path d="M113.815 65.5179L122.815 47.6242C126.053 41.1865 132.644 37.1242 139.85 37.1242C157.64 37.1242 164.167 13.7225 148.946 4.5148L147.022 3.35121C144.037 1.54557 140.627 0.562847 137.139 0.503037L108.569 0.0131491C59.6184 -0.826191 19.4853 38.6245 19.4853 87.5821V111.284C19.4853 119.72 26.3235 126.558 34.7588 126.558L54.3646 126.558C70.3273 126.558 81.5119 110.799 76.2437 95.7305L71.7931 83.0008C68.9898 74.9828 78.0718 68.0538 85.0645 72.8755C94.8952 79.6542 108.449 76.1856 113.815 65.5179Z" fill="#8F8F8F"/>
<path d="M142.681 79.138C142.681 77.87 143.709 76.8421 144.977 76.8421C146.245 76.8421 147.272 77.87 147.272 79.138V88.8725C147.272 90.1405 146.245 91.1684 144.977 91.1684C143.709 91.1684 142.681 90.1405 142.681 88.8725V79.138Z" fill="#202020"/>
<path d="M60.8825 35.7343C60.8825 54.1099 47.2535 69.0062 30.4412 69.0062C13.629 69.0062 0 54.1099 0 35.7343C0 17.3588 13.629 2.46253 30.4412 2.46253C47.2535 2.46253 60.8825 17.3588 60.8825 35.7343Z" fill="#8F8F8F"/>
</g>
</g>
  </svg>
</svg>
