<svg xmlns="http://www.w3.org/2000/svg" viewBox="0 0 256 256" fill="none">
  <svg x="54.32" y="49.82" width="147.354" height="156.365" viewBox="0 0 147.354 156.365" preserveAspectRatio="xMidYMid meet" xmlns="http://www.w3.org/2000/svg" overflow="visible">
<g id="Group 24">
<g id="Vector">
<path d="M132.386 72.3364V62.1148C132.386 42.9278 118.039 26.7714 98.9866 24.5032C89.57 23.3822 80.0754 25.8342 72.3792 31.3748L60.1179 40.2017C56.7668 42.6141 53.616 45.2933 50.6963 48.213L22.7718 76.1376C7.73111 91.1782 4.66787 114.446 15.3032 132.867C23.6983 147.408 39.2129 156.365 56.003 156.365H98.2621C111.51 156.365 123.061 147.355 126.287 134.506L129.259 122.665C130.303 118.505 133.749 115.383 137.991 114.753L139.75 114.492C144.774 113.746 148.159 108.958 147.187 103.972C146.889 102.442 146.194 101.017 145.172 99.8392L140.749 94.7396C135.355 88.522 132.386 80.5673 132.386 72.3364Z" fill="#ECA66D"/>
<path d="M117.884 39.8346H130.005C145.287 39.8346 151.481 20.1575 138.955 11.4037L124.69 1.43527C119.464 -2.21665 112.29 1.52224 112.29 7.89772C112.29 12.6728 108.079 16.3517 103.347 15.7103L56.1463 9.31223C25.1798 5.1147 -1.87919 30.3107 0.102435 61.4975L3.63954 117.164C4.07196 123.97 9.71764 129.268 16.5368 129.268H23.7986C40.4363 129.268 52.6811 113.688 48.7489 97.5216L45.6033 84.589C43.5351 76.086 53.0634 69.5272 60.2677 74.4948C70.9347 81.8502 85.6413 78.0866 91.4638 66.5113L99.0397 51.4498C102.622 44.3284 109.912 39.8346 117.884 39.8346Z" fill="#202020"/>
<path d="M119.466 81.8484C119.466 80.5804 120.494 79.5525 121.762 79.5525C123.03 79.5525 124.058 80.5804 124.058 81.8484V91.5829C124.058 92.8509 123.03 93.8788 121.762 93.8788C120.494 93.8788 119.466 92.8509 119.466 91.5829V81.8484Z" fill="#202020"/>
</g>
</g>
  </svg>
</svg>
