<svg xmlns="http://www.w3.org/2000/svg" viewBox="0 0 256 256" fill="none">
  <svg x="58.28" y="36.88" width="139.439" height="156.254" viewBox="0 0 139.439 156.254" preserveAspectRatio="xMidYMid meet" xmlns="http://www.w3.org/2000/svg" overflow="visible">
<g id="Group 23">
<path id="Ellipse 11" d="M129.891 89.4255C129.891 92.3371 132.555 94.7517 134.994 96.3419C137.666 98.0834 139.439 101.152 139.439 104.647C139.439 110.073 135.164 114.471 129.891 114.471C127.511 114.471 124.853 115.389 123.873 117.558C113.553 140.41 91.0473 156.254 64.9457 156.254C29.0771 156.254 0 126.334 0 89.4255C0 52.5173 29.0771 22.5973 64.9457 22.5973C100.814 22.5973 129.891 52.5173 129.891 89.4255Z" fill="#ECA66D"/>
<rect id="Rectangle 1" x="112.029" y="80.2328" width="6.13794" height="19.1503" rx="3.06897" fill="#202020"/>
<path id="Ellipse 2" fill-rule="evenodd" clip-rule="evenodd" d="M84.523 29.772C83.4629 29.6665 82.5953 30.7389 83.1608 31.6418C85.9791 36.1405 90.5468 39.2732 95.9451 39.8105C105.682 40.7794 114.433 32.9378 115.492 22.2958C116.216 15.0227 113.16 8.32385 108.044 4.50214C106.018 2.98855 103.768 5.30947 104.048 7.82303C104.208 9.26267 104.221 10.7476 104.07 12.2574C103.011 22.8994 94.2597 30.741 84.523 29.772Z" fill="#202020"/>
<circle id="Ellipse 9" cx="40.3424" cy="89.4255" r="14.1644" transform="rotate(-45 40.3424 89.4255)" fill="url(#paint0_linear_0_4)"/>
</g>
<defs>
<linearGradient id="paint0_linear_0_4" x1="40.3424" y1="75.261" x2="40.3424" y2="103.59" gradientUnits="userSpaceOnUse">
<stop stop-color="#DD8E4E"/>
<stop offset="1" stop-color="#ECA66D"/>
</linearGradient>
</defs>
  </svg>
</svg>
