<svg xmlns="http://www.w3.org/2000/svg" viewBox="0 0 256 256" fill="none">
  <svg x="52.46" y="51.17" width="151.083" height="153.655" viewBox="0 0 151.083 153.655" preserveAspectRatio="xMidYMid meet" xmlns="http://www.w3.org/2000/svg" overflow="visible">
<g id="Group 28">
<g id="Vector">
<path d="M136.115 69.626V59.4044C136.115 40.2174 121.768 24.061 102.716 21.7928C93.2991 20.6718 83.8046 23.1238 76.1084 28.6643L63.847 37.4913C60.496 39.9037 57.3452 42.5829 54.4255 45.5026L26.5009 73.4271C11.4603 88.4678 8.39701 111.735 19.0324 130.156C27.4274 144.697 42.9421 153.655 59.7322 153.655H101.991C115.239 153.655 126.79 144.645 130.016 131.795L132.988 119.955C134.032 115.795 137.478 112.673 141.72 112.043L143.479 111.782C148.503 111.036 151.889 106.247 150.916 101.262C150.618 99.7317 149.923 98.3066 148.902 97.1288L144.478 92.0292C139.085 85.8116 136.115 77.8569 136.115 69.626Z" fill="#ECA66D"/>
<path d="M94.3292 65.5179L103.33 47.6242C106.568 41.1865 113.159 37.1242 120.365 37.1242C138.155 37.1242 144.682 13.7225 129.46 4.5148L127.537 3.35121C124.552 1.54557 121.142 0.562847 117.654 0.503037L89.0834 0.0131491C40.133 -0.826191 -1.87815e-06 38.6246 0 87.5821L9.09281e-07 111.284C1.23288e-06 119.72 6.83815 126.558 15.2734 126.558H34.8793C50.842 126.558 62.0266 110.799 56.7584 95.7305L52.3077 83.0008C49.5045 74.9828 58.5865 68.0538 65.5791 72.8755C75.4098 79.6542 88.9633 76.1856 94.3292 65.5179Z" fill="#202020"/>
<path d="M123.195 79.138C123.195 77.87 124.223 76.8421 125.491 76.8421C126.759 76.8421 127.787 77.87 127.787 79.138V88.8725C127.787 90.1405 126.759 91.1684 125.491 91.1684C124.223 91.1684 123.195 90.1405 123.195 88.8725V79.138Z" fill="#202020"/>
</g>
</g>
  </svg>
</svg>
