<svg xmlns="http://www.w3.org/2000/svg" viewBox="0 0 256 256" fill="none">
  <svg x="71.25" y="72.70" width="138.348" height="132.127" viewBox="0 0 138.348 132.127" preserveAspectRatio="xMidYMid meet" xmlns="http://www.w3.org/2000/svg" overflow="visible">
<g id="Group 1_f">
<path id="Vector 2_f" d="M123.38 48.0988V37.8773C123.38 18.6903 109.033 2.53384 89.9808 0.265686C80.5642 -0.855335 71.0696 1.59669 63.3734 7.1372L51.1121 15.9641C47.761 18.3766 44.6102 21.0557 41.6905 23.9755L13.766 51.9C-1.2747 66.9407 -4.33794 90.2084 6.29741 108.629C14.6925 123.17 30.2071 132.127 46.9972 132.127H89.2563C102.504 132.127 114.055 123.118 117.281 110.268L120.253 98.4278C121.297 94.2679 124.743 91.1458 128.985 90.5157L130.744 90.2545C135.768 89.5084 139.154 84.7201 138.181 79.7348C137.883 78.2046 137.188 76.7794 136.167 75.6017L131.743 70.5021C126.35 64.2844 123.38 56.3298 123.38 48.0988Z" fill="#ECA66D"/>
</g>
  </svg>
  <svg x="46.4" y="51.17" width="150.076" height="153.655" viewBox="0 0 150.076 153.655" preserveAspectRatio="xMidYMid meet" xmlns="http://www.w3.org/2000/svg" overflow="visible">
<g id="Vector_h">
<path d="M106.437 65.5179L115.437 47.6242C118.675 41.1865 125.266 37.1242 132.472 37.1242C150.262 37.1242 156.789 13.7225 141.568 4.5148L139.644 3.35121C136.659 1.54557 133.249 0.562847 129.761 0.503037L101.191 0.0131491C52.2404 -0.826191 12.1074 38.6246 12.1074 87.5821L12.1074 111.284C12.1074 119.72 18.9456 126.558 27.3809 126.558H46.9867C62.9494 126.558 74.134 110.799 68.8658 95.7305L64.4152 83.0008C61.6119 74.9828 70.6939 68.0538 77.6865 72.8755C87.5173 79.6542 101.071 76.1856 106.437 65.5179Z" fill="#202020"/>
<path d="M10.6635 134.08L12.4769 84.0352H64.951L81.8349 127.991C86.5871 140.363 77.454 153.655 64.2008 153.655H29.5413C18.8403 153.655 10.2759 144.774 10.6635 134.08Z" fill="#202020"/>
<path d="M46.1266 128.447C46.1266 142.369 35.8008 153.654 23.0633 153.654C10.3258 153.654 0 142.369 0 128.447C0 114.525 10.3258 103.239 23.0633 103.239C35.8008 103.239 46.1266 114.525 46.1266 128.447Z" fill="#202020"/>
</g>
  </svg>
  <rect x="181.71" y="128.01" width="4.592" height="14.326" rx="2.296" fill="#202020"/>
</svg>
