<svg xmlns="http://www.w3.org/2000/svg" viewBox="0 0 256 256" fill="none">
  <svg x="58.34" y="72.30" width="151.699" height="133.605" viewBox="0 0 151.699 133.605" preserveAspectRatio="xMidYMid meet" xmlns="http://www.w3.org/2000/svg" overflow="visible">
<g id="Group 1_f">
<path id="Vector 2_f" d="M135.114 49.5761V39.3546C135.114 20.1676 120.767 4.01114 101.714 1.74299C92.2974 0.621971 82.8029 3.074 75.1067 8.61451L62.8453 17.4414C59.4943 19.8539 56.3435 22.533 53.4238 25.4528L25.4992 53.3773C10.4586 68.418 7.39532 91.6857 18.0307 110.107C26.4257 124.647 41.9404 133.605 58.7305 133.605H100.99C114.238 133.605 125.789 124.595 129.014 111.745L131.986 99.9051C133.03 95.7452 136.476 92.6231 140.719 91.993L142.478 91.7318C147.502 90.9857 150.887 86.1974 149.915 81.2121C149.616 79.6819 148.921 78.2567 147.9 77.079L143.476 71.9794C138.083 65.7617 135.114 57.8071 135.114 49.5761Z" fill="#ECA66D"/>
</g>
  </svg>
  <svg x="40.42" y="54" width="154.876" height="129.114" viewBox="0 0 154.876 129.114" preserveAspectRatio="xMidYMid meet" xmlns="http://www.w3.org/2000/svg" overflow="visible">
<g id="Vector_h">
<path d="M111.239 63.7591L120.24 45.8655C123.478 39.4278 130.069 35.3654 137.275 35.3654C155.065 35.3654 161.588 11.9611 146.366 2.7534C142.206 0.237189 137.242 -0.59572 132.489 0.425471L118.848 3.35634C113.53 4.49881 108.071 4.83477 102.653 4.35293L99.4048 4.06399C55.0769 0.121452 16.91 35.0444 16.91 79.5472L16.91 109.525C16.91 117.961 23.7482 124.799 32.1835 124.799L51.7893 124.799C67.752 124.799 78.9366 109.04 73.6684 93.9717L69.2178 81.242C66.4145 73.2241 75.4965 66.295 82.4891 71.1167C92.3199 77.8954 105.873 74.4268 111.239 63.7591Z" fill="#202020"/>
<path d="M6.04006 92.7485L17.2796 82.2764H69.7536L79.9832 101.258C87.0936 114.451 76.7447 130.273 61.8077 129.046L17.3708 125.396C1.01788 124.053 -5.96473 103.934 6.04006 92.7485Z" fill="#202020"/>
</g>
  </svg>
  <rect x="180.53" y="129.09" width="4.592" height="14.326" rx="2.296" fill="#202020"/>
</svg>
