<svg preserveAspectRatio="none" width="100%" height="100%" overflow="visible" style="display: block;" viewBox="0 0 19.8856 18.2963" fill="none" xmlns="http://www.w3.org/2000/svg">
<path id="Union" d="M16.958 0.127394C17.4606 0.136051 17.9517 0.278387 18.3818 0.538527L18.6592 0.705519C20.8531 2.03264 19.9127 5.40565 17.3486 5.40571C16.31 5.40571 15.3603 5.99161 14.8936 6.91939L13.5957 9.49849C12.8223 11.036 10.8691 11.536 9.45215 10.559C8.4444 9.86415 7.13547 10.8625 7.53906 12.018L8.18066 13.853C8.93998 16.0248 7.32804 18.2963 5.02734 18.2963H2.20117C0.985518 18.2962 9.2305e-05 17.3108 0 16.0952V9.44185C2.86081e-05 4.16406 4.32649 -0.0890664 9.60352 0.00141746L16.958 0.127394Z" fill="var(--fill-0, #202020)"/>
</svg>
