<svg preserveAspectRatio="none" width="100%" height="100%" overflow="visible" style="display: block;" viewBox="0 0 19.5 20.3556" fill="none" xmlns="http://www.w3.org/2000/svg">
<path id="Vector" d="M15.375 19.1779C16.0166 18.6076 16.9834 18.6076 17.625 19.1779C18.0609 19.5654 18.75 19.2559 18.75 18.6727V1.68292C18.75 1.09969 18.0609 0.790248 17.625 1.17772C16.9834 1.74802 16.0166 1.74802 15.375 1.17772C14.7334 0.607425 13.7666 0.607425 13.125 1.17772C12.4834 1.74802 11.5166 1.74802 10.875 1.17772C10.2334 0.607425 9.26659 0.607425 8.625 1.17772C7.98341 1.74802 7.01659 1.74802 6.375 1.17772C5.73341 0.607425 4.76659 0.607425 4.125 1.17772C3.48341 1.74802 2.51659 1.74802 1.875 1.17772C1.43909 0.790248 0.75 1.09969 0.75 1.68292V18.6727C0.75 19.2559 1.43909 19.5654 1.875 19.1779C2.51659 18.6076 3.48341 18.6076 4.125 19.1779C4.76659 19.7482 5.73341 19.7482 6.375 19.1779C7.01659 18.6076 7.98341 18.6076 8.625 19.1779C9.26659 19.7482 10.2334 19.7482 10.875 19.1779C11.5166 18.6076 12.4834 18.6076 13.125 19.1779C13.7666 19.7482 14.7334 19.7482 15.375 19.1779Z" stroke="var(--stroke-0, #202020)" stroke-width="1.5"/>
</svg>
