<svg preserveAspectRatio="none" width="100%" height="100%" overflow="visible" style="display: block;" viewBox="0 0 21.5001 20.5" fill="none" xmlns="http://www.w3.org/2000/svg">
<path id="Vector (Stroke)" fill-rule="evenodd" clip-rule="evenodd" d="M15 1.5V3.18953L17 4.78953V1.5H15ZM18.5 5.98953V1.25C18.5 0.559644 17.9404 0 17.25 0H14.75C14.0597 0 13.5 0.559644 13.5 1.25V1.98953L13.0926 1.66362C11.7231 0.567961 9.77699 0.567961 8.40742 1.66362L0.281506 8.16435C-0.0419401 8.42311 -0.0943811 8.89507 0.164376 9.21852C0.423133 9.54197 0.895102 9.59441 1.21855 9.33565L2.00003 8.71047V19H0.750028C0.335814 19 2.76177e-05 19.3358 2.76177e-05 19.75C2.76177e-05 20.1642 0.335814 20.5 0.750028 20.5H20.75C21.1642 20.5 21.5 20.1642 21.5 19.75C21.5 19.3358 21.1642 19 20.75 19H19.5V8.71047L20.2815 9.33565C20.605 9.59441 21.0769 9.54197 21.3357 9.21852C21.5944 8.89507 21.542 8.42311 21.2185 8.16435L18.5 5.98953ZM18 7.51047L12.1556 2.83492C11.3338 2.17753 10.1662 2.17753 9.34446 2.83492L3.50003 7.51047V19H7.00003L7.00003 14.7006C6.99999 14.0358 6.99996 13.4629 7.06163 13.0042C7.12773 12.5125 7.27679 12.0413 7.65904 11.659C8.04128 11.2768 8.51255 11.1277 9.00418 11.0616C9.46293 10.9999 10.0358 11 10.7007 11H10.7994C11.4643 11 12.0371 10.9999 12.4959 11.0616C12.9875 11.1277 13.4588 11.2768 13.841 11.659C14.2233 12.0413 14.3723 12.5125 14.4384 13.0042C14.5001 13.4629 14.5001 14.0358 14.5 14.7006L14.5 19H18V7.51047ZM13 19V14.75C13 14.0217 12.9984 13.5509 12.9518 13.204C12.9081 12.8787 12.8375 12.7768 12.7804 12.7197C12.7233 12.6626 12.6213 12.592 12.296 12.5482C11.9491 12.5016 11.4783 12.5 10.75 12.5C10.0217 12.5 9.55093 12.5016 9.20406 12.5482C8.87875 12.592 8.77679 12.6626 8.7197 12.7197C8.6626 12.7768 8.59199 12.8787 8.54826 13.204C8.50162 13.5509 8.50003 14.0217 8.50003 14.75V19H13ZM10.75 6C10.0597 6 9.50003 6.55964 9.50003 7.25C9.50003 7.94036 10.0597 8.5 10.75 8.5C11.4404 8.5 12 7.94036 12 7.25C12 6.55964 11.4404 6 10.75 6ZM8.00003 7.25C8.00003 5.73122 9.23124 4.5 10.75 4.5C12.2688 4.5 13.5 5.73122 13.5 7.25C13.5 8.76878 12.2688 10 10.75 10C9.23124 10 8.00003 8.76878 8.00003 7.25Z" fill="var(--fill-0, #202020)"/>
</svg>
