<svg preserveAspectRatio="none" width="100%" height="100%" overflow="visible" style="display: block;" viewBox="0 0 19.8856 18.2963" fill="none" xmlns="http://www.w3.org/2000/svg">
<path id="Union" d="M16.958 0.127394C17.4605 0.136051 17.9518 0.277504 18.3818 0.53755L18.6592 0.705519C20.8531 2.03264 19.9127 5.40565 17.3486 5.40571C16.31 5.40571 15.3603 5.9915 14.8936 6.91939L13.5957 9.49849C12.8222 11.0356 10.8689 11.5358 9.45215 10.559C8.44428 9.86407 7.13503 10.8624 7.53906 12.018L8.18066 13.853C8.93982 16.0247 7.32797 18.2963 5.02734 18.2963H2.20117C0.985461 18.2962 0 17.3099 0 16.0942V9.44185C0 4.16403 4.32648 -0.0890667 9.60352 0.00141748L16.958 0.127394Z" fill="var(--fill-0, #202020)"/>
</svg>
