<svg preserveAspectRatio="none" width="100%" height="100%" overflow="visible" style="display: block;" viewBox="0 0 1029.82 556.627" fill="none" xmlns="http://www.w3.org/2000/svg">
<path id="Union" d="M285.281 0.5C289.917 0.500154 294.171 3.06576 296.335 7.16504L306.981 27.333C308.972 31.1043 312.887 33.4647 317.151 33.4648H1016.82C1023.73 33.4649 1029.32 39.0613 1029.32 45.9648V543.627C1029.32 550.531 1023.73 556.127 1016.82 556.127H13C6.09644 556.127 0.5 550.531 0.5 543.627V42.8496C0.5 37.6666 4.70176 33.4648 9.88477 33.4648C12.9941 33.4648 15.8483 31.7439 17.2998 28.9941L28.8232 7.16504C30.9872 3.06576 35.2416 0.500153 39.877 0.5H285.281Z" fill="var(--fill-0, #F9F9ED)" stroke="var(--stroke-0, #EDDFBA)"/>
</svg>
