<svg preserveAspectRatio="none" width="100%" height="100%" overflow="visible" style="display: block;" viewBox="0 0 21.8649 19.2569" fill="none" xmlns="http://www.w3.org/2000/svg">
<g id="Group 1">
<path id="Vector 2" d="M19.4744 7.1456V5.67233C19.4744 2.90684 17.4065 0.578165 14.6604 0.251249C13.3032 0.0896728 11.9347 0.443092 10.8254 1.24166L9.05816 2.51392C8.57516 2.86163 8.12103 3.24779 7.7002 3.66862L3.67534 7.69348C1.50748 9.86134 1.06597 13.215 2.59888 15.8701C3.80888 17.9659 6.04507 19.2569 8.46508 19.2569H14.556C16.4655 19.2569 18.1304 17.9583 18.5953 16.1063L19.0237 14.3997C19.1742 13.8001 19.6708 13.3501 20.2823 13.2593L20.5358 13.2216C21.26 13.1141 21.7479 12.424 21.6078 11.7054C21.5647 11.4848 21.4646 11.2794 21.3174 11.1097L20.6798 10.3747C19.9024 9.47849 19.4744 8.33195 19.4744 7.1456Z" fill="var(--fill-0, #E48647)"/>
</g>
</svg>
