<svg preserveAspectRatio="none" width="100%" height="100%" overflow="visible" style="display: block;" viewBox="0 0 895.965 556.627" fill="none" xmlns="http://www.w3.org/2000/svg">
<path id="Union" d="M246.855 0.5C251.74 0.500154 256.177 3.3453 258.215 7.78418L266.929 26.7637C268.804 30.8474 272.886 33.4648 277.38 33.4648H882.965C889.868 33.4649 895.465 39.0613 895.465 45.9648V543.627C895.465 550.531 889.868 556.127 882.965 556.127H13C6.09644 556.127 0.5 550.531 0.5 543.627V41.5117C0.500107 37.0676 4.10276 33.4649 8.54688 33.4648C11.3006 33.4648 13.8021 31.8609 14.9512 29.3584L24.8564 7.78418C26.8946 3.34513 31.3322 0.5 36.2168 0.5H246.855Z" fill="var(--fill-0, #F9F9ED)" stroke="var(--stroke-0, #EDDFBA)"/>
</svg>
