<svg preserveAspectRatio="none" width="100%" height="100%" overflow="visible" style="display: block;" viewBox="0 0 34.3096 21.5371" fill="none" xmlns="http://www.w3.org/2000/svg">
<g id="Group 22">
<path id="D" fill-rule="evenodd" clip-rule="evenodd" d="M7.50443 4.84877e-06C10.1889 4.84877e-06 12.4464 0.457583 14.2767 1.37276C16.1071 2.28794 17.4493 3.53868 18.3645 5.15549C19.2492 6.8028 19.7068 8.66365 19.7068 10.7991C19.7068 13.0565 19.2187 14.9784 18.273 16.5647C17.3273 18.1815 15.9545 19.4017 14.1242 20.2559C12.2938 21.11 10.0974 21.5371 7.53494 21.5371H0V14.5225C0 13.4274 0.887764 12.5396 1.98288 12.5396C3.07799 12.5396 3.96576 13.4274 3.96576 14.5225V18.151H7.50443C10.1889 18.151 12.2328 17.5409 13.5751 16.2596C14.9173 15.0089 15.619 13.1785 15.619 10.7991C15.619 8.51113 14.9479 6.71129 13.6666 5.36903C12.3549 4.05727 10.2805 3.38614 7.44342 3.38614H3.96576V7.01472C3.96576 8.10983 3.07799 8.9976 1.98288 8.9976C0.887764 8.9976 0 8.10983 0 7.01472V3.38614V4.84877e-06H7.50443Z" fill="var(--fill-0, #202020)"/>
<circle id="Ellipse 27" cx="28.9941" cy="10.7686" r="5.31546" fill="var(--fill-0, #CF6F2F)"/>
</g>
</svg>
