<svg preserveAspectRatio="none" width="100%" height="100%" overflow="visible" style="display: block;" viewBox="0 0 15.8779 17.0285" fill="none" xmlns="http://www.w3.org/2000/svg">
<path id="Vector" d="M15.165 12.2549C14.9565 12.8934 14.5899 13.471 14.097 13.9327C13.3657 14.6176 12.2381 14.9197 9.98305 15.524C7.72797 16.1282 6.60043 16.4303 5.62466 16.2028C4.8542 16.0232 4.15431 15.6191 3.61351 15.0417C2.92858 14.3104 2.62646 13.1829 2.02221 10.9278L1.50457 8.99593C0.900326 6.74085 0.598202 5.61331 0.82572 4.63753C1.00537 3.86708 1.40945 3.16719 1.98686 2.62638C2.71815 1.94146 3.84569 1.63934 6.10077 1.03509C6.5274 0.920772 6.91368 0.81727 7.2662 0.726121" stroke="var(--stroke-0, #202020)" stroke-width="1.5"/>
</svg>
