<svg preserveAspectRatio="none" width="100%" height="100%" overflow="visible" style="display: block;" viewBox="0 0 16.0838 17.498" fill="none" xmlns="http://www.w3.org/2000/svg">
<path id="Vector" d="M14.0616 11.3973L14.5792 9.46541C15.1835 7.21033 15.4856 6.08279 15.2581 5.10702C15.0785 4.33656 14.6744 3.63667 14.097 3.09587C13.3657 2.41094 12.2381 2.10882 9.98305 1.50457C7.72797 0.900326 6.60043 0.598202 5.62466 0.82572C4.8542 1.00537 4.15431 1.40945 3.61351 1.98686C3.02708 2.61297 2.72128 3.52957 2.2662 5.19561C2.18978 5.4754 2.10915 5.77632 2.02227 6.10056L2.02221 6.10077L1.50457 8.03262C0.900325 10.2877 0.598202 11.4152 0.825721 12.391C1.00537 13.1615 1.40945 13.8614 1.98686 14.4022C2.71814 15.0871 3.84568 15.3892 6.10076 15.9935L6.10077 15.9935C8.13336 16.5381 9.24993 16.8373 10.165 16.7244C10.2651 16.7121 10.3629 16.6948 10.4592 16.6723C11.2296 16.4927 11.9295 16.0886 12.4703 15.5112C13.1552 14.7799 13.4574 13.6523 14.0616 11.3973Z" stroke="var(--stroke-0, #202020)" stroke-width="1.5"/>
</svg>
